<svg xmlns="http://www.w3.org/2000/svg" xmlns:xlink="http://www.w3.org/1999/xlink" version="1.1" class="loader-inner" x="0px" y="0px" width="100%" height="100%" viewBox="0 0 800 600" xml:space="preserve" preserveAspectRatio="xMidYMin meet"><rect x="278.772" y="207.692" fill="#59595B" width="39.609" height="96.173"/><path fill="#59595B" d="M376.545 303.881l-31.881-96.172h40.018l16.885 68.188h0.408l18.351-68.188h43.779l18.127 67.814h0.409l18.333-67.814h35.029l-32.937 96.172h-43.779l-18.945-67.065h-0.426l-20.426 67.065H376.545z"/><path fill="#DB812E" d="M263.811 167.708c0 0 35.438-7.592 51.694-13.158 0 0 8.477 14.86 19.456 15.149 0 0-15.609 16.239-43.831 27.644L263.811 167.708z"/><path fill="#59595B" d="M324.373 364.579c0 6.588-0.936 10.095-3.473 13.448 -3.71 4.732-10.791 7.335-20.527 7.335 -12.477 0-19.983-4.169-21.26-11.847h8.681c0.954 4.512 5.277 6.674 13.124 6.674 10.35 0 15.115-4.086 15.115-13.26v-4.817c-3.694 5.156-8.562 7.336-16.29 7.336 -13.43 0-22.315-8.17-22.315-20.494 0-12.75 9.31-21.446 22.877-21.446 7.285 0 12.05 2.092 16.29 7.013v-5.856h7.812v35.915H324.373zM285.972 348.528c0 9.413 5.72 15.319 14.809 15.319 9.209 0 15.133-6.146 15.133-15.745 0-9.43-5.601-14.995-15.133-14.995C291.692 333.107 285.972 339.014 285.972 348.528z"/><path fill="#59595B" d="M365.753 334.418c-1.157-0.086-2.213-0.154-2.656-0.154 -4.442 0-8.255 1.261-11.115 3.525 -3.813 3.08-4.868 6.398-4.868 15.505v15.66h-8.358v-40.273h7.812v8.442c3.694-6.655 9.532-9.6 19.149-9.6v6.895H365.753z"/><path fill="#59595B" d="M419.286 348.938c0 13.243-9.192 21.157-24.648 21.157 -15.03 0-24.868-8.34-24.868-21.089 0-13.159 9.651-21.518 24.766-21.518C409.873 327.488 419.286 335.593 419.286 348.938zM378.332 348.766c0 9.755 6.264 15.745 16.306 15.745 9.942 0 16.069-5.905 16.069-15.557 0-9.94-6.127-15.83-16.187-15.83C384.698 333.107 378.332 339.27 378.332 348.766z"/><path fill="#59595B" d="M473.024 368.938h-7.815v-6.247c-3.811 4.767-10.16 7.404-17.463 7.404 -12.052 0-17.344-4.664-17.344-15.336v-26.111h8.339v23.779c0 4.051 0.222 5.736 0.954 7.507 1.157 2.91 4.971 4.561 10.264 4.561 5.617 0 10.367-2.313 12.902-6.162 1.276-2.144 1.805-4.834 1.805-10.145v-19.523h8.34v40.273H473.024z"/><path fill="#59595B" d="M495.662 334.418c4.035-4.665 9.311-6.93 16.732-6.93 14.605 0 23.795 8.358 23.795 21.518 0 12.834-9.09 21.089-23.268 21.089 -7.286 0-12.8-2.161-16.716-6.706v21.191h-8.356v-55.933h7.812V334.418L495.662 334.418zM495.884 348.766c0 9.755 6.127 15.745 16.187 15.745 9.414 0 15.559-6.16 15.559-15.489 0-9.667-6.248-15.914-15.983-15.914C501.909 333.107 495.884 339.098 495.884 348.766z"/><path fill="#DB812E" d="M278.517 442.318v-30.213h3.234v27.319h15.439v2.894H278.517z"/><path fill="#DB812E" d="M324.646 442.318l-2.417-6.827h-13.191l-2.417 6.827h-3.438l11.115-30.213h2.707l11.064 30.213H324.646zM315.709 416.751l-5.685 15.949h11.285L315.709 416.751z"/><path fill="#DB812E" d="M351.302 445.45v-36.479h3.063v36.479H351.302z"/><path fill="#DB812E" d="M389.209 442.573c-4.528 0-7.507-1.141-10.349-3.983l2.212-2.195c2.502 2.501 4.835 3.319 8.222 3.319 4.425 0 7.133-2.095 7.133-5.617 0-1.549-0.477-2.929-1.448-3.779 -0.969-0.833-1.736-1.089-3.949-1.43l-3.523-0.546c-2.366-0.374-4.239-1.14-5.566-2.297 -1.532-1.345-2.298-3.217-2.298-5.651 0-5.106 3.694-8.511 9.668-8.511 3.864 0 6.401 0.971 8.988 3.303l-2.076 2.06c-1.874-1.686-3.865-2.587-7.047-2.587 -4.018 0-6.349 2.263-6.349 5.599 0 1.481 0.425 2.656 1.361 3.473 0.936 0.817 2.501 1.431 4.051 1.669l3.302 0.51c2.86 0.426 4.256 1.022 5.515 2.111 1.652 1.413 2.537 3.506 2.537 6.009C399.643 439.305 395.489 442.573 389.209 442.573z"/><path fill="#DB812E" d="M413.839 414.997v11.116h13.243v2.894h-13.243v13.312h-3.233v-30.213h18.758v2.892H413.839L413.839 414.997z"/><path fill="#DB812E" d="M453.567 445.45v-36.479h3.047v36.479H453.567z"/><path fill="#DB812E" d="M502.948 442.318l-16.018-24.223v24.223h-3.218v-30.213h3.047l16.034 24.152v-24.152h3.199v30.213H502.948z"/><path fill="#DB812E" d="M527.137 429.842v12.493h-3.234v-12.493l-8.989-17.72h3.489l7.132 14.468 7.031-14.468h3.471L527.137 429.842z"/></svg>