<svg xmlns="http://www.w3.org/2000/svg" version="1.1" x="0" y="0" width="300" height="300" viewBox="0 0 300 300" xml:space="preserve"><rect x="59.06" y="34.5" width="179.54" height="218.6" fill="none"/><path d="M104.33 201.26c-0.09-0.04-0.19-0.03-0.27 0.03 -1.19 0.93-2.22 1.48-3.97 1.48 -2.25 0-3.7-1.58-3.7-4.02 0-2.48 1.36-4.02 3.55-4.02 1.49 0 2.84 0.53 3.8 1.48 0.07 0.07 0.18 0.09 0.28 0.05 0.09-0.04 0.16-0.13 0.16-0.23v-3.93c0-0.09-0.05-0.18-0.13-0.22 -1.14-0.66-2.45-0.97-4.13-0.97 -4.67 0-7.81 3.15-7.81 7.84 0 4.69 3.14 7.84 7.81 7.84 1.8 0 3.13-0.34 4.43-1.12 0.08-0.05 0.12-0.13 0.12-0.22v-3.75C104.48 201.4 104.42 201.31 104.33 201.26z" fill="#666"/><path d="M117.32 190.91c-4.5 0-7.89 3.37-7.89 7.84 0 4.47 3.39 7.84 7.89 7.84 4.51 0 7.91-3.37 7.91-7.84C125.23 194.28 121.83 190.91 117.32 190.91zM117.32 202.77c-2.12 0-3.6-1.65-3.6-4.02 0-2.37 1.48-4.02 3.6-4.02 2.15 0 3.6 1.62 3.6 4.02C120.92 201.15 119.47 202.77 117.32 202.77z" fill="#666"/><path d="M144.25 191.16h-3.93c-0.11 0-0.21 0.07-0.24 0.17l-3.49 10.24 -3.54-10.24c-0.04-0.1-0.13-0.17-0.24-0.17h-3.95c-0.08 0-0.16 0.04-0.21 0.11s-0.06 0.16-0.03 0.23l5.46 14.68c0.04 0.1 0.13 0.16 0.24 0.16h4.47c0.11 0 0.2-0.06 0.24-0.16l5.46-14.68c0.03-0.08 0.02-0.16-0.03-0.23C144.42 191.2 144.34 191.16 144.25 191.16z" fill="#666"/><path d="M159.35 202.6h-6v-2.01h5.28c0.14 0 0.26-0.12 0.26-0.26v-3.16c0-0.14-0.12-0.25-0.25-0.25h-5.28v-2.01h5.82c0.14 0 0.25-0.11 0.25-0.25v-3.24c0-0.14-0.11-0.25-0.25-0.25h-9.71c-0.14 0-0.25 0.11-0.25 0.26v14.67c0 0.14 0.11 0.26 0.25 0.26h9.88c0.14 0 0.26-0.11 0.26-0.25v-3.23C159.6 202.71 159.49 202.6 159.35 202.6z" fill="#666"/><path d="M174.3 200.69c1.61-0.95 2.53-2.55 2.53-4.43 0-3.44-2.32-5.34-6.53-5.34 -1.64 0-3.56 0.13-4.69 0.33 -0.12 0.02-0.21 0.13-0.21 0.25v14.6c0 0.14 0.11 0.26 0.26 0.26h3.66c0.14 0 0.26-0.11 0.26-0.25v-4.44h0.67l3.09 4.58c0.05 0.07 0.13 0.11 0.21 0.11h4.33c0.09 0 0.18-0.05 0.23-0.14 0.04-0.09 0.04-0.19-0.02-0.27L174.3 200.69zM172.59 196.35c0 0.76-0.24 1.77-2.37 1.77h-0.66v-3.49c0.23-0.02 0.55-0.03 0.76-0.03C171.83 194.61 172.59 195.19 172.59 196.35z" fill="#666"/><path d="M192.96 202.6h-6v-2.01h5.28c0.14 0 0.26-0.12 0.26-0.26v-3.16c0-0.14-0.11-0.25-0.26-0.25h-5.28v-2.01h5.82c0.14 0 0.26-0.11 0.26-0.25v-3.24c0-0.14-0.11-0.25-0.25-0.25h-9.71c-0.14 0-0.25 0.11-0.25 0.26v14.67c0 0.14 0.11 0.26 0.26 0.26h9.88c0.14 0 0.25-0.11 0.25-0.25v-3.23C193.21 202.71 193.1 202.6 192.96 202.6z" fill="#666"/><path d="M204.17 190.91c-1.79 0-3.82 0.19-4.95 0.38 -0.12 0.02-0.21 0.13-0.21 0.25v14.4c0 0.12 0.08 0.22 0.2 0.25 1.46 0.32 3.9 0.35 4.87 0.35 5.45 0 8.58-2.89 8.58-7.94C212.66 193.79 209.49 190.91 204.17 190.91zM204.52 202.82c-0.45 0-0.94-0.02-1.32-0.05v-7.91c0.37-0.03 0.83-0.05 1.25-0.05 2.49 0 3.92 1.38 3.92 3.8C208.37 201.32 207 202.82 204.52 202.82z" fill="#666"/><path d="M102.17 221.12c-0.06-0.03-0.13-0.02-0.18 0.02 -0.88 0.7-1.65 1.1-2.96 1.1 -1.68 0-2.77-1.18-2.77-3 0-1.85 1.02-3 2.66-3 1.11 0 2.12 0.39 2.83 1.11 0.05 0.05 0.12 0.06 0.19 0.04 0.06-0.02 0.11-0.09 0.11-0.16V214.3c0-0.06-0.03-0.12-0.08-0.15 -0.84-0.49-1.81-0.72-3.06-0.72 -3.46 0-5.78 2.33-5.78 5.81 0 3.47 2.32 5.8 5.78 5.8 1.33 0 2.31-0.25 3.28-0.83 0.05-0.03 0.08-0.09 0.08-0.15v-2.79C102.26 221.21 102.23 221.15 102.17 221.12z" fill="#666"/><path d="M113.24 213.73c-0.02-0.07-0.09-0.11-0.16-0.11h-3.28c-0.07 0-0.13 0.04-0.16 0.11l-4.24 10.9c-0.02 0.05-0.01 0.11 0.02 0.16 0.03 0.05 0.09 0.07 0.14 0.07h2.88c0.07 0 0.14-0.05 0.16-0.11l0.71-1.96h4.16l0.69 1.96c0.03 0.07 0.09 0.11 0.16 0.11h2.99c0 0 0.01 0 0.01 0 0.09 0 0.17-0.08 0.17-0.17 0-0.04-0.01-0.08-0.04-0.11L113.24 213.73zM112.56 220.22h-2.3l1.17-3.2L112.56 220.22z" fill="#666"/><path d="M128.07 222.11h-3.97v-8.32c0-0.09-0.08-0.17-0.17-0.17h-2.73c-0.09 0-0.17 0.08-0.17 0.17v10.9c0 0.1 0.08 0.17 0.17 0.17h6.88c0.09 0 0.17-0.08 0.17-0.17v-2.4C128.24 222.19 128.16 222.11 128.07 222.11z" fill="#666"/><path d="M135.04 213.62h-2.73c-0.09 0-0.17 0.08-0.17 0.17v10.9c0 0.1 0.08 0.17 0.17 0.17h2.73c0.1 0 0.17-0.08 0.17-0.17v-10.9C135.21 213.69 135.13 213.62 135.04 213.62z" fill="#666"/><path d="M146.65 213.62h-6.62c-0.09 0-0.17 0.08-0.17 0.17v10.9c0 0.1 0.08 0.17 0.17 0.17h2.73c0.09 0 0.17-0.08 0.17-0.17v-3.64h3.3c0.09 0 0.17-0.08 0.17-0.17V218.5c0-0.09-0.08-0.17-0.17-0.17h-3.29v-1.97h3.72c0.09 0 0.17-0.08 0.17-0.17v-2.4C146.82 213.69 146.74 213.62 146.65 213.62z" fill="#666"/><path d="M156.19 213.43c-3.33 0-5.84 2.5-5.84 5.8 0 3.31 2.51 5.8 5.84 5.8 3.34 0 5.86-2.49 5.86-5.8C162.04 215.93 159.53 213.43 156.19 213.43zM156.19 222.24c-1.58 0-2.69-1.24-2.69-3 0-1.77 1.11-3 2.69-3 1.61 0 2.69 1.21 2.69 3.01C158.88 221.03 157.8 222.24 156.19 222.24z" fill="#666"/><path d="M172.73 220.67c1.2-0.7 1.88-1.89 1.88-3.28 0-2.54-1.72-3.95-4.83-3.95 -1.21 0-2.64 0.1-3.48 0.24 -0.08 0.01-0.14 0.09-0.14 0.17v10.84c0 0.1 0.08 0.17 0.17 0.17h2.71c0.1 0 0.17-0.08 0.17-0.17v-3.31h0.53l2.3 3.41c0.03 0.05 0.09 0.08 0.14 0.08h3.21c0.06 0 0.12-0.04 0.15-0.09 0.03-0.06 0.02-0.12-0.01-0.18L172.73 220.67zM171.5 217.46c0 0.9-0.58 1.33-1.77 1.33h-0.51v-2.63c0.18-0.01 0.42-0.02 0.58-0.02C170.57 216.14 171.5 216.37 171.5 217.46z" fill="#666"/><path d="M189.04 213.62h-2.64c-0.09 0-0.17 0.08-0.17 0.17v6.11l-4.07-6.2c-0.03-0.05-0.09-0.08-0.14-0.08h-2.75c-0.09 0-0.17 0.08-0.17 0.17v10.9c0 0.1 0.08 0.17 0.17 0.17h2.64c0.1 0 0.17-0.08 0.17-0.17v-6l4.24 6.1c0.03 0.05 0.08 0.07 0.14 0.07h2.59c0.09 0 0.17-0.08 0.17-0.17v-10.9C189.21 213.69 189.13 213.62 189.04 213.62z" fill="#666"/><path d="M196.76 213.62h-2.73c-0.09 0-0.17 0.08-0.17 0.17v10.9c0 0.1 0.08 0.17 0.17 0.17h2.73c0.1 0 0.17-0.08 0.17-0.17v-10.9C196.93 213.69 196.86 213.62 196.76 213.62z" fill="#666"/><path d="M212.53 224.57l-4.22-10.85c-0.02-0.07-0.09-0.11-0.16-0.11h-3.28c-0.07 0-0.13 0.04-0.16 0.11l-4.24 10.9c-0.02 0.05-0.01 0.11 0.02 0.16 0.03 0.05 0.08 0.08 0.14 0.08h2.88c0.07 0 0.14-0.05 0.16-0.11l0.71-1.96h4.16l0.69 1.96c0.02 0.07 0.09 0.11 0.16 0.11h2.99c0 0 0.01 0 0.01 0 0.09 0 0.17-0.08 0.17-0.17C212.57 224.64 212.55 224.61 212.53 224.57zM207.64 220.22h-2.3l1.17-3.2L207.64 220.22z" fill="#666"/><path d="M152.15 71.04c-33.29 0-60.37 27.7-60.37 61.74 0 16.25 6.1 31.53 17.18 43.13l6.81-6.96c-8.8-9.65-13.64-22.24-13.64-35.54 0-28.53 22.35-51.73 49.81-51.73 27.47 0 49.81 23.21 49.81 51.73 0 13.2-4.77 25.72-13.46 35.35l7.04 7.16c11.09-11.6 17.18-26.89 17.18-43.14C212.52 98.74 185.44 71.04 152.15 71.04z" fill="#666"/><path d="M151.94 83.12c-26.68 0-48.38 22.56-48.38 50.3 0 12.91 4.68 25.14 13.21 34.52l4.88-4.98c1.77-1.81 2.07-5.12 0.67-7.24 -0.33-0.5-8.11-12.32-8.11-22.92l0.04-1.66c0.86-20.82 17.51-37.12 37.9-37.12 20.39 0 37.04 16.3 37.9 37.11l0.04 1.65c-0.45 10.75-7.79 22.26-8.11 22.75 -1.47 2.21-1.15 5.65 0.69 7.52l4.62 4.69c8.41-9.35 13.03-21.51 13.03-34.32C200.32 105.68 178.62 83.12 151.94 83.12z" fill="#666"/><path d="M201.98 173.73v0.4h-0.68v1.86h-0.47v-1.86h-0.68v-0.4H201.98z" fill="#666"/><path d="M203.75 173.73h0.68v2.26h-0.44v-1.53c0-0.04 0-0.1 0-0.18 0-0.08 0-0.14 0-0.18l-0.43 1.89h-0.46l-0.42-1.89c0 0.04 0 0.1 0 0.18 0 0.08 0 0.14 0 0.18v1.53h-0.44v-2.26h0.69l0.41 1.77L203.75 173.73z" fill="#666"/><path d="M167.6 161.46v-25.38c0-0.16 0.08-0.3 0.21-0.38 0.13-0.08 0.3-0.09 0.44-0.02 2.38 1.15 5.12 1.14 7.49 0 0.14-0.07 0.31-0.06 0.44 0.02 0.13 0.08 0.21 0.23 0.21 0.39v18.58M153.9 165.32v-46.28c0-0.16 0.08-0.3 0.21-0.38 0.13-0.08 0.3-0.09 0.44-0.02 2.38 1.14 5.11 1.14 7.49 0 0.14-0.07 0.31-0.06 0.44 0.02 0.13 0.08 0.21 0.23 0.21 0.38v44.56M140.76 163.45v-17.32c0-0.15 0.08-0.3 0.21-0.38 0.13-0.08 0.3-0.09 0.44-0.02 2.38 1.15 5.12 1.14 7.49 0 0.14-0.07 0.31-0.06 0.44 0.02 0.13 0.08 0.21 0.23 0.21 0.38v19.16M127.61 154.79v-24.43c0-0.16 0.08-0.3 0.21-0.38 0.13-0.08 0.3-0.09 0.44-0.02 2.38 1.15 5.12 1.14 7.49 0 0.14-0.07 0.3-0.06 0.44 0.03 0.13 0.08 0.21 0.23 0.21 0.38v31.17M132.01 127.97c-3.2 0-5.8-2.6-5.8-5.8 0-3.2 2.6-5.8 5.8-5.8 3.2 0 5.81 2.6 5.81 5.81C137.81 125.36 135.21 127.97 132.01 127.97zM145.15 143.73c-3.2 0-5.8-2.6-5.8-5.8 0-3.2 2.6-5.8 5.8-5.8 3.2 0 5.81 2.6 5.81 5.81C150.96 141.13 148.35 143.73 145.15 143.73zM172 122.08c3.2 0 5.81 2.6 5.81 5.8 0 3.2-2.6 5.8-5.81 5.8 -3.2 0-5.8-2.6-5.8-5.8C166.2 124.68 168.8 122.08 172 122.08zM158.29 105.03c3.2 0 5.8 2.6 5.8 5.8s-2.6 5.8-5.8 5.8c-3.2 0-5.8-2.6-5.8-5.8C152.49 107.64 155.09 105.03 158.29 105.03z" fill="#666"/><path d="M132.01 116.36c-3.2 0-5.8 2.6-5.8 5.81 0 3.2 2.6 5.8 5.8 5.8 3.2 0 5.81-2.6 5.81-5.8C137.81 118.96 135.21 116.36 132.01 116.36z" fill="#666"/><path d="M136.19 129.98c-0.13-0.08-0.3-0.09-0.44-0.02 -2.37 1.14-5.12 1.15-7.49 0 -0.14-0.07-0.3-0.06-0.44 0.02 -0.13 0.08-0.21 0.23-0.21 0.38v24.43c2.52 2.71 5.49 4.99 8.79 6.74v-31.16C136.4 130.21 136.32 130.06 136.19 129.98z" fill="#666"/><path d="M145.15 132.12c-3.2 0-5.8 2.6-5.8 5.81 0 3.2 2.6 5.8 5.8 5.8 3.2 0 5.81-2.6 5.81-5.8C150.96 134.73 148.35 132.12 145.15 132.12z" fill="#666"/><path d="M149.33 145.74c-0.13-0.08-0.3-0.09-0.44-0.02 -2.37 1.14-5.12 1.15-7.49 0 -0.14-0.07-0.31-0.06-0.44 0.02 -0.13 0.08-0.21 0.23-0.21 0.38v17.32c2.78 0.99 5.73 1.62 8.79 1.84v-19.16C149.54 145.97 149.47 145.82 149.33 145.74z" fill="#666"/><path d="M172 133.69c3.2 0 5.81-2.6 5.81-5.8 0-3.2-2.6-5.8-5.81-5.8 -3.2 0-5.8 2.6-5.8 5.8C166.2 131.08 168.8 133.69 172 133.69z" fill="#666"/><path d="M176.18 135.7c-0.13-0.08-0.3-0.09-0.44-0.02 -2.37 1.14-5.11 1.15-7.49 0 -0.14-0.07-0.3-0.06-0.44 0.03 -0.13 0.08-0.21 0.23-0.21 0.38v25.38c3.3-1.77 6.27-4.07 8.79-6.8v-18.58C176.39 135.93 176.31 135.78 176.18 135.7z" fill="#666"/><path d="M158.29 116.64c3.2 0 5.8-2.6 5.8-5.8 0-3.2-2.6-5.8-5.8-5.8 -3.2 0-5.8 2.6-5.8 5.8C152.49 114.04 155.09 116.64 158.29 116.64z" fill="#666"/><path d="M162.48 118.65c-0.13-0.08-0.3-0.09-0.44-0.02 -2.38 1.14-5.11 1.14-7.49 0 -0.14-0.07-0.31-0.06-0.44 0.02 -0.13 0.08-0.21 0.23-0.21 0.38v46.28c3.06-0.18 6.01-0.77 8.79-1.72v-44.56C162.69 118.88 162.61 118.74 162.48 118.65z" fill="#666"/></svg>