<svg xmlns="http://www.w3.org/2000/svg" xmlns:xlink="http://www.w3.org/1999/xlink" version="1.1" x="0px" y="0px" width="300px" height="300px" viewBox="0 0 300 300" xml:space="preserve" class="style0"><style>.style0{enable-background:	new 0 0 300 300;}.style1{fill-rule:	evenodd;clip-rule:	evenodd;fill:	#666666;}</style><g></g><g><g><path d="M66.536 174.074c-6.068 0.702-12.875-0.795-15.801-6.699 c-2.9-5.852-1.389-12.018 1.108-17.528c4.743-10.461 11.803-20.331 20.865-27.782c2.93-2.408 5.427-4.556 9.349-5.132 c2.972-0.438 5 2.5 3.3 2.662c-2.513 0.282-4.103 1.38-5.097 3.266c-0.651 1.237-0.872 3.4 1 3.9 c1.941 0.4 3.179-1.009 4.264-2.343c2.3-2.831 2.494-8.37-1.308-9.481c-9.539-2.785-23.271 7.604-31.597 16.9 c-7.985 8.923-16.796 21.948-12.51 35.14c3.234 10 15.4 11.3 24.8 9.815c13.02-2.043 22.654-7.56 36.926-5.493 c4.137 0.6 8.7 2 10.8 6.088c2.981-3.581 8.942-8.353 25.038-1.191c-6.022-6.191-14.659-8.701-23.069-9.808 C97.797 164.2 82.9 172.2 66.5 174.074L66.536 174.074z" class="style1"/><polygon points="154.5,130.3 147.5,130.3 143.6,136.6 150.6,136.6 154.5,130.3" class="style1"/><path d="M261.019 113.705c-5.519 7.664-15.3 11.116-25.389 10.7 l-5.465 6.516c18.39 0 26.382-9.448 31.35-16.908C262.156 113 261.3 113 261 113.705L261.019 113.705z" class="style1"/><path d="M209.437 114.311c-6.954-0.796-12.221 1.542-13.612 2.1 c-0.596-1.093-2.035-1.889-3.576-2.138c-7.625-0.701-17.09 4.227-25.155 10.705c-3.115 2.502-5.721 5.016-8.308 8 c-4.821 5.473-8.302 11.071-11.715 17.493c-4.613 8.679-6.512 24.3 5.7 26.187c14.049 2.2 29.397-13.332 27.91-26.58 c-0.771-6.889-10.448-4.295-13.941-0.391c-1.708 1.583-7.968 9.839-6.874 15.41c2.31-3.065 5.477-5.263 9.141-6.367 c0.342-4.008 1.846-8.473 5.664-9.945c1.229-0.473 4.123-0.646 4.4 1.593c1.066 8.023-5.187 16.313-12.584 20.9 c-3.215 1.997-10.782 3.448-12.264-1.901c-3.136-11.323 4.626-21.339 10.533-30.043c5.933-8.741 12.394-15.676 21.401-20.633 c2.269-1.248 5.281-2.739 7.864-1.346c-1.191 0.596-6.708 3.375-9.836 7.459c-1.342 1.783-5.217 6.664-4.968 10.8 c0.148 2.1 0.8 4 2.9 4.7c1.165 0.4 2.5 0.1 3.495-0.434c7.854-4.202 12.277-13.089 11.583-21.771 c1.49-0.398 3.975-0.497 5.3 0c3.301 0.7 14.5 7 19.4 10.095l5.563-5.719 C222.022 119.1 216.5 115.8 209.4 114.311z M184.286 138.331c-2.463 0.725-3.727-2.188-2.832-4.823 c0.998-2.941 1.932-4.832 4.024-7.261c2.777-3.224 6.607-6.315 9.984-7.311C196.406 127.3 189.4 136.8 184.3 138.331z" class="style1"/><path d="M129.475 154.521c-1.49 0.099-1.017-1.692-0.794-2.065 L141.597 130h-6.956l-1.093 2.001c-4.026-4.561-10.252-0.74-13.692 2.469c-7.437 6.939-10.799 17.303-20.051 22.1 c-2.025 1.039-4.784 0.727-5.48-1.863c-0.336-1.247-0.049-2.941 0.375-3.966c2.922-7.069 7.75-15.015 13.115-17.601 c1.789-0.597 3.775-0.595 3.2 2.488c-1.979-1.124-3.7 0.953-4.625 2.476c-0.76 1.252-0.64 3.3 1 3.2 c4.045-0.097 6.64-7.184 4.279-9.593c-5.167-5.271-13.414 3.083-18.306 8.116c-1.786 1.838-4.403 2.426-7.03 2.5 c-0.292 0.057-0.437-0.024-0.437-0.024c1.922-3.714 3.533-9.276-0.493-11.78c-2.518-1.565-6.171 0.353-8.194 1.6 c-5.763 3.58-11.699 10.979-14.606 20.288c-1.472 4.7 0.4 9 3.2 9.209c9.235 0.5 15.62-11.669 19.235-17.412 l0.094-0.207l0.386 0.007c1.888 0 4.372-0.299 5.167-0.895c-2.584 3.779-3.677 5.768-4.597 9.6 c-1.142 4.8 2.3 9.8 7.3 8.858c5.972-1.071 10.077-5.239 14.349-9.716c-0.994 3.382-2.319 8 1.7 9.3 c4.377 1.4 8.01-2.775 11.049-5.723c-0.965 2.69-0.506 6.6 2.7 5.965c5.911-1.181 13.203-8.449 17.255-15.449h-1.59 C136.331 149 132 154.5 129.5 154.521z M74.882 154.706c-1.146 0.684-4.023 1.441-5.067 0.3 c-2.135-2.09 2.375-9.673 4.063-12.458c0.619-1.019 1.714-2.66 2.484-3.68c0.993 1.9 3.4 4.5 7 4.9 C81.463 147.2 78.9 152.3 74.9 154.706z M84.183 142.157c-1.888 0.099-3.975-1.393-5.018-2.597 c-1.378-1.59-0.694-4.029 0.98-5.528c1.504-1.349 3.981-1.848 4.928-0.512C87.156 136 84.9 141.6 84.2 142.157z M116.25 155.098c-1.938-0.699 0.298-6.117 1.093-7.709c0.794-1.591 6.334-10.807 10.333-13.476 c2.384-1.591 2.976-1.284 3.676-0.896c0.447 0.2 1 1 0.6 1.742l-8.496 14.5 C122.211 151.4 118.8 156 116.2 155.098z" class="style1"/><path d="M240.537 170.154c-1.491 0.102-1.02-1.508-0.795-1.883 L252.658 146h-6.954l-1.093 1.634c-4.026-4.56-10.253-0.922-13.693 2.286c-4.055 3.781-7.454 9.039-10.701 13.4 c-1.874 2.514-4.182 5.891-6.931 7.169c-1.082 0.503-2.882 0.502-2.984-1.058c-0.288-4.361 1.693-8.726 3.06-12.332 c10.183-6.803 19.772-15.121 26.083-25.549l-1.641 0.083c-0.894 1.69-7.689 9.403-9.339 11.2 c-3.014 2.684-5.943 5.704-9.259 8.089c-1.445 1.042-2.866 1.914-4.255 2.95c6.009-13.319 13.999-25.673 25.139-35.693 c1.411-1.27 3.874-2.896 4.722-1.818c1.205 1.533-0.018 4.404-1.642 6.083c0.794 0.1 1.291-0.099 1.987-0.199 c2.384-2.586 2.459-7.616 0.547-8.155c-3.006-0.952-9.513 2.676-13.474 5.81c-12.274 9.71-20.436 24.333-26.718 37.4 c-0.758 0.667-2.484 0.695-3.677 0.596c1.922-3.715 3.577-9.35-0.45-11.853c-2.518-1.565-6.171 0.352-8.192 1.6 c-5.765 3.58-11.7 10.978-14.607 20.29c-1.473 4.7 0.4 9 3.2 9.205c9.235 0.5 15.619-11.666 19.234-17.411 c0.847 0.1 3.1 0.1 3.976-0.248c-1.718 5.09-5.663 13.088-0.142 16.264c5.662 3.3 10.056-3.976 13.654-7.909l0.349-0.646 c-0.994 3.381-2.319 8 1.7 9.303c4.377 1.4 8.01-2.776 11.05-5.724c-0.966 2.691-0.508 7 2.7 6.3 c5.912-1.182 13.202-10.084 17.256-15.084h-1.591C247.441 165 243.2 170.2 240.5 170.154z M190.834 170.1 c-1.146 0.686-4.023 1.443-5.068 0.35c-2.134-2.089 2.376-9.675 4.064-12.459c0.618-1.02 1.714-2.661 2.483-3.681 c0.994 1.9 3.4 4.5 7 4.923C197.414 162.6 194.8 167.7 190.8 170.078z M200.134 157.5 c-1.889 0.099-3.974-1.395-5.019-2.6c-1.377-1.589-0.693-4.027 0.981-5.527c1.504-1.348 3.98-1.848 4.928-0.512 C203.106 151.4 200.8 156.9 200.1 157.531z M227.324 170.271c-2.484-0.991 0.05-5.668 0.844-7.259 c0.796-1.59 6.583-11.257 10.583-13.925c2.385-1.59 2.98-1.292 3.676-0.894s0.993 1.1 0.6 1.84l-8.444 14.4 C233.286 166.6 229.8 171.3 227.3 170.271z" class="style1"/></g></g></svg>