<svg xmlns="http://www.w3.org/2000/svg" version="1.1" x="0" y="0" width="300" height="300" viewBox="0 0 300 300" xml:space="preserve"><style>.s0{fill:#666;}</style><path d="M152.2 120.3c3.5 0 7.1 0 10.6 0 1.2 0 1.8 0.2 1.6 1.6 -0.7 7.6-3.1 14.3-9.8 18.8 -1.7 1.2-3.1 1.3-4.9 0.1 -6.9-4.5-9.2-11.4-10-19.1 -0.1-1.5 0.9-1.4 1.8-1.4 3.5 0 7.1 0 10.6 0C152.2 120.3 152.2 120.3 152.2 120.3zM170.6 111.7c-2.2 1.3-4 2.4-6.5 3.8 0-4.9-0.1-9.3 0-13.7 0.1-2.1 1.5-0.8 2.2-0.5 8.2 3.2 14.6 8.7 19.1 16.2 3.3 5.4 5.1 11.3 5.4 17.6 0.1 1.3 0 2.3-1.8 1.6 -3.9-1.4-7.9-2.8-12.2-4.2 1.8-1.6 3.5-3.1 5.6-5 -2.7-0.3-4.9-0.6-7.4-0.8 2.7-3.9 5.2-7.5 8.1-11.6 -5 0.7-9.1 2.5-13.5 3.8C169.3 116.4 170.7 114.4 170.6 111.7zM151.9 161.4c1.7-3.9 3.5-7.7 4.9-11.6 0.8-2.3 2.4-2 4.1-1.9 2 0.1 1.2 1.7 1.3 2.6 0.5 5.6 0.9 11.2 1.4 16.8 0.1 1.3 0 2.1-1.5 1.9 -1.3-0.2-2.9 0.7-3-1.8 0-3.5-0.4-7-1.1-10.7 -1.5 3.5-3 7-4.6 10.5 -0.4 0.9-0.5 2.1-2 2 -1.3-0.1-1.4-1.2-1.8-2 -1.6-3.5-3.1-7-5.2-10.4 -0.2 3.5-0.6 6.9-0.7 10.4 0 2.1-1.2 1.9-2.6 2 -1.8 0.1-1.7-0.9-1.6-2.1 0.4-5.7 0.8-11.4 1.3-17.1 0.1-0.9-0.3-2.2 1.2-2.1 1.4 0.1 3.1-0.9 4 1.2 1.4 3.3 2.9 6.5 4.3 9.7C150.7 159.7 150.9 160.6 151.9 161.4zM217.7 169.1c-3 0.7-5.5 0.4-7-2.8 -0.7-1.5-1.9-2.8-2.9-4.3 -0.5-0.7-1.2-1-2-0.8 -1 0.2-0.6 1-0.6 1.6 -0.1 1.2-0.1 2.5 0 3.7 0.1 1.6 0.3 2.9-2.2 2.9 -2.2 0-2.4-0.9-2.4-2.7 0.1-5.4 0.1-10.9 0-16.3 0-1.8 0.3-2.6 2.3-2.5 2.4 0.2 4.8-0.1 7.2 0.2 2.8 0.3 5.1 1.6 6 4.5 0.8 2.8 0 5.2-2.9 7.1 -1.1 0.8-1.1 1.2-0.4 2.1 1.7 2.3 3.3 4.6 4.9 7C217.8 168.8 217.7 168.9 217.7 169.1zM205.2 154.5c0 3.2 0 3.2 2 3.2 2.9 0 4.6-1.1 4.6-3.1 0-2.1-1.6-3-4.5-3.2C204.4 151.1 205.3 153.1 205.2 154.5zM129.7 169c-3.7 0.9-6.2 0.1-7.7-3.1 -0.6-1.3-1.6-2.3-2.4-3.6 -0.6-0.9-1.2-1.5-2.3-1.2 -1 0.4-0.5 1.3-0.5 2 -0.1 1.2-0.1 2.5 0 3.7 0.2 1.8-0.3 2.4-2.3 2.5 -2 0-2.3-0.8-2.3-2.5 0.1-5.5 0.1-11.1 0-16.6 0-1.9 0.6-2.5 2.4-2.4 2.3 0.2 4.6 0 6.9 0.1 3.3 0.2 5.6 2 6.2 4.6 0.7 3-0.2 5.6-3 7.1 -1.4 0.8-0.8 1.3-0.2 2.1C126.1 164.1 127.8 166.4 129.7 169zM116.7 154.6c0.1 1.4-0.8 3.4 2.1 3.2 2.9-0.2 4.7-1.2 4.5-3.3 -0.2-2.6-2.1-2.9-4.3-3.1C116 151 116.8 153 116.7 154.6zM81.5 169.5c2.8-7.1 5.5-13.6 8-20.2 0.4-1.1 1.1-1.5 2.1-1.3 1.1 0.1 2.4-0.6 3 0.9 2.7 6.7 5.4 13.4 8 20.2 -2.9 0.5-5.3 0.8-5.9-2.7 -0.2-1-0.8-1.4-1.8-1.3 -1.4 0.1-2.9 0.1-4.3 0 -2.1-0.2-3.4 0.3-3.9 2.6C86.1 170.5 83.7 168.8 81.5 169.5zM92 153.3c-1.2 3.2-2.1 5.6-3 8.1 2.2 0 4 0 6.1 0C94.1 158.8 93.2 156.4 92 153.3zM241.1 152.6c-2.1-0.8-3.9-1.6-6-1.5 -1.3 0.1-2.6 0.2-2.9 1.8 -0.3 1.5 0.8 2.2 2 2.7 1.5 0.6 3.1 1.1 4.5 1.8 2.5 1.1 4.3 2.8 4.2 5.6 -0.1 2.9-1.8 5-4.6 6 -3.5 1.3-7 0.6-10.3-1 -1.1-0.5-1.4-1.2-0.6-2.2 0.6-0.7 0.7-2.5 2.4-1.3 1.6 1.1 3.5 1.5 5.5 1.3 1.3-0.1 2.5-0.6 2.8-2 0.3-1.5-0.7-2.2-2-2.7 -1.6-0.6-3.2-1.2-4.8-1.9 -2.5-1.1-3.9-3.1-3.7-5.9 0.2-2.8 1.9-4.5 4.5-5.3 2.6-0.8 5.1-0.5 7.6 0.2C241.4 148.7 241.4 148.8 241.1 152.6zM175.1 158.4c0-2.9 0.1-5.7 0-8.6 -0.1-1.5 0.4-2 1.9-1.9 3.3 0.1 6.7 0 10 0.1 0.7 0 2.2-0.7 2 1 -0.1 1.1-0.1 2.6-2 2.6 -1.7-0.1-3.5 0.1-5.2 0 -1.9-0.2-2.4 0.5-2.4 2.4 0 2 0.5 2.8 2.6 2.6 1.4-0.2 2.9 0 4.3 0 1.5-0.1 2 0.4 2 1.9 0 1.5-0.8 1.7-2 1.7 -1.3-0.1-2.7 0.1-4 0 -2.2-0.3-2.9 0.5-2.9 2.8 0 2.4 0.6 3.3 3.1 3 1.6-0.2 3.3 0 4.9-0.1 1.3-0.1 1.8 0.3 1.8 1.7 0 1.5-0.5 2-2 1.9 -3.4-0.1-6.9-0.1-10.3 0 -1.6 0.1-1.9-0.6-1.8-2C175.2 164.3 175.1 161.4 175.1 158.4zM121.3 114.7c1.9 4.4 5.3 7.8 7.9 12.1 -2.4 0.2-4.6 0.4-7.1 0.7 1.4 2.2 3.5 3.2 5.2 5.2 -4.8 1.5-9.6 2.6-14.2 5 0.4-8.8 2.4-16.5 7.8-23.2C121.1 114.5 121.2 114.6 121.3 114.7zM140.1 100.5c8.2-2.6 16-2.6 23.9 0 -3 4-5.8 7.8-8.9 11.8 -1-2.2-1.9-4.2-3.1-6.8 -1.1 2.5-2 4.5-3 6.8C146.1 108.4 143.2 104.5 140.1 100.5zM121 114.5c4.3-6.6 10.5-10.7 17.7-13.5 0.6-0.2 1.7-0.8 1.5 0.7 -0.4 4.4-0.3 8.9-0.3 13.6 -2.2-1.1-4-2.1-5.8-3.1 -0.1-0.1-0.4-0.3-0.4-0.3 -0.3 0.2-0.2 0.4 0 0.7 0.4 2 0.8 4.1 1.2 6.4 -4.7-1.5-9.1-2.8-13.5-4.2C121.2 114.6 121.1 114.5 121 114.5zM76.3 147.9c0 2.9-1.2 4-3.9 3.6 -1-0.2-2.1 0.1-3.1-0.1 -2.7-0.4-3.4 0.6-3.3 3.2 0.1 1.8 0.5 2.6 2.4 2.4 1.4-0.2 2.9 0 4.3 0 1.3 0 2.2 0 2.1 1.7 0 1.6-0.7 1.8-2.1 1.9 -2.2 0-5.1-1-6.3 0.5 -1.1 1.4-0.5 4.2-0.4 6.4 0.1 2-1 1.8-2.3 1.9 -1.4 0.1-2.3-0.1-2.2-1.9 0.1-5.9 0.1-11.9 0-17.8 0-1.2 0.2-1.7 1.6-1.7C67.5 147.9 71.9 147.9 76.3 147.9zM181.4 187.6c0-1.7 0-3.4 0-5 0-0.8 0.1-1.5 1.2-1.5 1.1 0 1.2 0.7 1.2 1.5 0 3 0 5.9 0 8.9 0 0.7 0.1 1.4-0.9 1.5 -0.7 0.1-1.3-0.1-1.7-0.8 -1.5-2.1-3-4.2-5.1-6.2 0 1.8 0 3.6 0 5.4 0 0.8 0 1.6-1.1 1.6 -1.1 0-1.2-0.6-1.2-1.5 0-2.9 0-5.7 0-8.6 0-0.7-0.3-1.6 0.9-1.8 0.8-0.1 1.5 0.1 2 0.8 1.4 2 2.8 3.9 4.2 5.9C181 187.7 181.2 187.7 181.4 187.6zM107.7 187.8c0-1.8 0-3.6 0-5.3 0-1 0.4-1.4 1.3-1.4 0.9 0 1 0.7 1 1.4 0 3 0 5.9 0 8.9 0 0.6 0.2 1.4-0.7 1.6 -0.8 0.2-1.4-0.2-1.9-0.9 -1.5-2.2-3-4.3-5-7.1 0 2.5 0.1 4.2 0 5.9 0 0.8 0.6 2.1-1 2.2 -1.6 0.1-1.2-1.1-1.2-2 0-2.7 0-5.3 0-8 0-0.7-0.4-1.6 0.7-1.9 0.9-0.2 1.6 0.2 2.2 1 1.3 2 2.7 3.9 4.1 5.8C107.3 187.8 107.5 187.8 107.7 187.8zM147.6 188.2c-0.7 1.2-0.3 2.3-0.4 3.3 -0.1 0.8 0 1.5-1.1 1.6 -1.1 0-1.3-0.5-1.3-1.4 0-3.1 0-6.1 0-9.2 0-0.4 0.1-0.8 0.3-1.1 0.7-0.8 6-0.3 6.9 0.7 1.5 1.6 1.7 3.5 0 5.1 -1 0.9-0.9 1.4-0.2 2.3 0.8 1 1.4 2 2.2 3.1C152.4 192.9 152.4 192.9 147.6 188.2zM148.3 182.9c-0.9-0.2-1.3 0.4-1.1 1.5 0.1 0.8-0.5 2.1 1.1 2.1 1.1 0 2.2-0.3 2.3-1.6C150.7 183.5 149.8 183 148.3 182.9zM138.7 185.5c0 1.1 0.1 2.3 0 3.4 -0.3 2.7-2.1 4.3-4.8 4.3 -2.7 0-4.5-1.7-4.7-4.4 -0.1-2.1 0-4.2 0-6.3 0-0.8 0.1-1.5 1.2-1.5 1.1 0 1.2 0.6 1.2 1.5 0 1.9 0 3.8 0 5.7 0 1.6 0.7 2.6 2.3 2.6 1.6 0 2.4-0.9 2.4-2.5 0-1.8 0-3.6 0-5.4 0-0.8-0.2-1.8 1.1-1.9 1.5-0.1 1.4 0.9 1.4 1.9 0 0.9 0 1.7 0 2.6C138.8 185.5 138.8 185.5 138.7 185.5zM120.4 180.8c0.4 0.1 1.2 0.2 2.1 0.5 0.7 0.2 0.7 0.8 0.7 1.4 -0.1 0.9-0.6 0.7-1.2 0.5 -0.4-0.1-0.9-0.2-1.4-0.3 -0.9 0-2.1-0.3-2.3 1 -0.2 1.1 0.8 1.4 1.6 1.7 0.4 0.1 0.7 0.3 1.1 0.4 1.7 0.6 3.2 1.4 3.2 3.5 -0.1 1.9-1.3 2.9-2.9 3.5 -2 0.7-3.7 0-5.4-1 -0.4-0.2-0.3-0.6-0.2-1 0.2-0.5 0.5-0.9 1-0.8 0.5 0.1 0.9 0.4 1.3 0.5 1.3 0.4 2.9 0.8 3.5-0.7 0.6-1.7-1.3-1.8-2.3-2.2 -1.7-0.7-3.2-1.3-3.4-3.4C115.5 182.4 117.4 180.8 120.4 180.8zM204.5 187c0-0.2 0-0.4 0-0.6 0-5.8 0.6-6.3 6.5-5.4 0.5 0.1 1.2 0 1.2 0.8 0 0.6-0.4 1.1-1.1 1.1 -0.9 0-1.7 0-2.6 0 -1 0-1.6 0.1-1.6 1.4 0 1.2 0.5 1.4 1.6 1.5 1.2 0.2 3.3-0.9 3.3 0.9 0 1.7-2.1 0.8-3.3 0.9 -1.4 0.1-1.5 0.7-1.5 1.8 0 1 0.3 1.6 1.4 1.6 1-0.1 2.1 0 3.1 0 0.5 0 0.9 0.2 0.9 0.8 0 0.6-0.2 1.2-0.9 1.2 -2 0-4 0-6 0 -1 0-1-0.7-1-1.4C204.5 190 204.5 188.5 204.5 187zM159 193c-1 0-1.1-0.5-0.7-1.3 1.3-3.2 2.5-6.4 3.7-9.6 0.3-0.8 0.8-1 1.5-1 0.7 0 1.2 0.3 1.5 1 1.2 3.2 2.5 6.4 3.7 9.6 0.2 0.6 0.4 1.2-0.4 1.3 -0.8 0.1-1.4 0-1.9-0.8 -1.7-2.5-4-2.4-5.9 0.1C159.9 192.9 159.6 193 159 193zM163.4 184.5c-0.6 1.3-1.9 2.4-1 3.8 0.3 0.5 1.8 0.5 2.1 0C165.2 186.9 163.8 185.8 163.4 184.5zM189.1 186.9c0-4.4 3.9-7.1 8.1-5.9 0.9 0.3 1.6 0.7 1.4 1.7 -0.3 1.4-1.2 0.4-1.8 0.3 -3.4-0.6-5.5 1.1-5.3 4.1 0.2 2.7 2.1 4 5.1 3.3 0.8-0.2 1.7-0.8 2.1 0.5 0.4 1.3-0.8 1.4-1.5 1.7C193.2 194.5 189 191.5 189.1 186.9zM94.2 187.2c0 1.5 0 3.1 0 4.6 0 0.9-0.4 1.2-1.2 1.2 -0.8 0-1.3-0.2-1.3-1.1 0-3.3 0-6.5 0-9.8 0-0.9 0.6-1.1 1.4-1 0.8 0 1.2 0.4 1.2 1.3C94.1 183.9 94.2 185.6 94.2 187.2z" fill="#666"/></svg>