<svg xmlns="http://www.w3.org/2000/svg" version="1.1" x="0" y="0" width="300" height="300" viewBox="0 0 300 300" xml:space="preserve"><path d="M155.6 96.2c0.09-0.25 0.28-0.02 0.45 0.27 0.18 0.3 0.3 0.53 0.31 0.89 0.04 0.8-0.4 1.78-1.23 2.03 -0.35 0.11-0.77 0-1.1 0.19 -0.31 0.18-0.38 0.53-0.66 0.74 -0.37 0.28-0.8-0.03-1.2 0.08 -0.47 0.13-0.69 0.47-1.23 0.16 0.55 0.07 0.82-0.4 1.31-0.49 0.7-0.12 0.93-0.07 1.27-0.75 0.1-0.19 0.24-0.34 0.42-0.44 0.31-0.19 0.67-0.22 0.99-0.37 0.4-0.19 0.57-0.4 0.64-0.84 0.06-0.4-0.05-0.84-0.02-1.24C155.57 96.33 155.58 96.25 155.6 96.2L155.6 96.2zM164.29 80.32c-0.7 0.36-1.22 1-1.35 1.73 0.02-0.56 0.18-1.24 0.28-1.84 0.01-0.05 0.01-0.11 0.02-0.16 0.62-0.77 0.86-2.06 0.87-2.39 0.03-1.2 0.37-3.23-1.83-4.34l-1.02 0.1c2.55 0.68 2.28 2.46 2.38 4.11 0.04 0.68-0.33 1.83-0.86 2.41 -0.05 0.06-0.72 0.53-0.77 0.52 0.12 0.01 0.34 0.16 0.65 0.06 -0.15 1.09-0.12 2.03 0.61 2.62 -0.22-0.18-0.3-0.49-0.31-0.86 0.33-0.89 1.14-1.37 2.06-1.52C164.89 80.7 164.38 80.45 164.29 80.32L164.29 80.32zM155.66 104.36c-0.1-0.16-0.2-0.33-0.3-0.5 -1.31-2.45-0.37-5.15 1.29-6.27 0 0-0.81-1-0.81-1 0.02 0.02-0.18 0.67-0.18 0.79 0.01 0.32 0.04 0.59-0.17 0.86 -0.42 0.53-1.22 0.64-1.44 1.35 -0.18 0.54-0.27 1.13-0.29 1.7 -0.02 0.63 0.06 1.26 0.24 1.87 0.06 0.2 0.69 1.9 0.91 1.84C155.04 104.96 155.35 104.83 155.66 104.36L155.66 104.36zM158.71 107.71c0.19 0.18 0.38 0.36 0.57 0.53 0.95 0.91 1.92 1.8 2.9 2.69 0.57 0.52 1.64 1.12 1.49 2.04 -0.08 0.47-0.46 0.79-0.73 1.14 -0.3 0.38-0.57 0.78-0.84 1.19 -1.05 1.65-1.83 3.46-2.48 5.3 -0.56 1.58-1.03 3.2-1.38 4.84 -0.02 0.11-0.02 0.27-0.11 0.35 -0.07 0.06-0.55 0.57-0.72 0.78 -0.32 0.39-0.65 0.79-0.92 1.23 -0.01 0.01-0.02 0.03-0.02 0.04 -0.4 0.7 0.42 1.14 0.44 1.95 0.01 0.47 0.05 0.93 0.1 1.39 0.06 0.64 0.13 1.28 0.22 1.92 0.04 0.32 0.09 0.63 0.14 0.95 0.02 0.15 0.05 0.29 0.07 0.44 0.02 0.07 0.03 0.14 0.04 0.21 0.01 0.03 0.01 0.16 0.05 0.18 0.07 0.03 0.09-0.21 0.1-0.26 0.02-0.11 0.05-0.22 0.07-0.33 0.07-0.28 0.14-0.56 0.21-0.85 0.18-0.71 0.36-1.42 0.52-2.14 0.06-0.29 0.13-0.58 0.18-0.88 0.36-1.9 0.81-4.12 1.14-4.78 0.16-0.32 0.32-0.64 0.48-0.95 1.14-2.21 2.38-4.37 3.74-6.45 0.69-1.05 1.41-2.09 2.18-3.08 0.6-0.78 1.95-1.82 1.63-2.94 -0.06-0.2-0.19-0.41-0.29-0.6 -0.26-0.52-0.54-1.04-0.83-1.55 -0.94-1.67-1.97-3.3-3.08-4.86 -0.4-0.56-0.92-1.12-1.39-1.69 -0.01-0.01 0.72-0.42 0.75-0.38 1.17 1.59 2.29 3.21 3.36 4.86 0.61 0.93 1.2 1.87 1.76 2.83 0.59 1 1.13 2.09 0.37 3.15 -0.4 0.56-0.84 1.1-1.26 1.66 -1.13 1.5-2.25 3.01-3.35 4.54 -1.48 2.08-3.11 4.21-4.15 6.56 -0.09 0.21-0.51 3.56-0.74 4.25 -0.12 0.36-0.25 0.72-0.37 1.08 -0.2 0.56-0.4 1.12-0.58 1.68 -0.09 0.25-0.17 0.51-0.25 0.76 -0.03 0.1-0.06 0.21-0.1 0.31 -0.01 0.04-0.03 0.18-0.07 0.2 -0.02 0.01-0.03 0-0.06-0.03 -0.02-0.04-0.04-0.09-0.06-0.13 -0.04-0.1-0.09-0.2-0.14-0.29 -0.07-0.15-0.16-0.31-0.18-0.48 -0.06-0.53-0.45-2.97-0.58-3.49 -0.19-0.79-1.17-1.85-1-2.67 0.12-0.59 2.15-1.6 2.37-2.15 0.23-0.57 0.24-1.25 0.33-1.85 0.19-1.19 0.26-1.58 0.55-2.75 0.59-2.36 1.39-4.79 2.85-6.76 0.41-0.56 0.93-1.04 1.39-1.54 0.56-0.6-0.31-0.92-0.77-1.28 -0.56-0.44-1.13-0.89-1.69-1.34 -0.8-0.65-1.58-1.31-2.35-1.98L158.71 107.71 158.71 107.71zM182.87 105.92c-0.37-1.5-0.19-2.62-0.25-2.58 -0.14 0.11-0.2-0.54-0.28-0.36 -0.23 0.55-0.42 1.42-0.26 2.62 0.23 1.8 0.82 3.24 1.59 4.83 2.62 5.39 0.69 10.02-1.64 10.97 1.22 3.69 3.35 7.22 3.71 11.25 0.35 3.85 1.01 6.32 1.9 9.44 -0.7-1.4-1.75-3.04-2.41-4.58 -1.76-4.16-2.91-8.23-3.85-9.9 -0.66-1.17-1.52-2.87-2.39-3.86 0.18 0.91-0.06 1.68-0.28 1.97 2.05 2.2 2.9 5.29 4.24 7.98 -0.05 2.39 4.79 10.4 5.83 12.17 0.86 1.45 1.41 4.33 1.41 4.33s3.83 0.01 3.88 0.01c-0.08-0.25-0.85-1.41-1.17-1.77 -0.49-0.56-2.24-2.14-2.56-2.63 -0.67-1-1.25-2.06-1.73-3.17 -1.06-2.46-1.71-5.29-1.61-7.98 0.14-3.92-1.68-7.17-2.5-10.86 -0.12-0.54-0.4-1.6-0.4-1.6 1.27-1.64 4.12-5.65 0.57-10.99C183.77 109.83 183.3 107.68 182.87 105.92L182.87 105.92zM195.16 91.41c0.26-0.28 1.64-1.66 1.52-1.96 -0.13-0.3-1.29 0.23-2.49 0.82 -0.36-0.47-0.75-0.95-0.95-1.16 -0.03-0.03-0.05-0.05-0.08-0.08 1.02-0.61 1.92-1.19 1.89-1.36 -0.09-0.57-2.03-0.61-3.97-0.36 -10.02-6.39-23.76-0.08-26.71 10.94 -0.09 0.34 0.12 1.66 0.07 2.02 -0.13 1.38-1.4 2.52-1.4 2.52 0.08 0.06 0.75 0.13 0.75 0.16 0.01 0.61 0.02 0.34 0.09 0.97 0.06 0.1 0.71 0.97 0.71 0.94 0-0.38 0.01-0.76 0.03-1.14 0.69-11.74 12.54-20.62 22.87-15.6 1.73 0.84 3.04 2.01 4.04 3.3 -0.07-0.09 0.2 2.38 0.12 2.3 0.27 0.96 0.11 0.81 0 1.88 -0.04 0.41-0.61 0.66-1.04 2.17 -0.39 1.39-0.56 10.42-0.44 10.92 0.18 0.77-0.25 0.82-0.65 1.33 -0.32 0.42-0.68 0.81-1.22 0.92 -0.78 0.15-0.43-0.74-2.66-1 -0.33-0.04-0.98-3.61-1.02-4.26 -0.31-4.19-3.99-8.57-4.16-9.2 0 0-0.18 1.61-0.14 1.68 0.27 0.48 2.82 4.78 3.14 5.52 0.41 0.94 0.69 1.92 0.91 2.92 0.12 0.55 0.41 3.62 0.73 3.92 0.51 0.46 1.07 0.67 1.7 0.71 0.44 0.03 0.86 1.03 1.61 0.98 1.11-0.09 1.21-0.94 1.55-1.2 1.45-1.11 0.89-3.51 0.92-4.27 0.1-2.49 0.57-7.12 0.68-7.77 0.32-1.94 0.54-0.89 0.98-1.67 0.25-0.45-0.26-3.31 0-3.55C192.78 92.9 194.55 92.08 195.16 91.41L195.16 91.41zM145.52 85.85c0.05-0.45 0.64-0.5 0.94-0.66 0.48-0.25 0.42-0.65 0.42-1.15 -0.01-1.22-0.47-2.71 0.34-3.79 0.79-1.05 1.84-1.94 3.06-2.45 1.71-0.71 3.44-1.37 5.11-2.16 0.34-0.16 0.61-0.36 0.97-0.47 0.41-0.12 0.82-0.24 1.23-0.36 0.82-0.25 1.63-0.52 2.41-0.87 0.35-0.16 0.66-0.31 0.96-0.56 0.21-0.17 0.52-0.37 0.8-0.27 0.15-0.22 0.2-0.7-0.08-0.85 -0.56-0.29-0.88 0.4-1.18 0.72 -0.42 0.44-1.05 0.68-1.61 0.92 -0.59 0.25-1.12 0.48-1.71 0.74 -0.66 0.3-1.37 0.45-2.04 0.72 -2.04 0.83-4.29 1.41-6.2 2.53 -0.82 0.48-1.85 1.14-2.33 1.99 -0.52 0.94-0.35 1.78-0.27 2.8 0.06 0.7 0.1 1.16-0.31 1.72C145.62 84.94 145.51 85.15 145.52 85.85L145.52 85.85zM151.69 99.46c-0.03 0.09-0.11 0.16-0.17 0.24 -0.48 0.52-1.19 0.18-1.77 0.06 -0.31-0.06-0.72-0.08-0.98 0.1 0.4-0.28 0.38-0.41 0.86-0.49 0.36-0.06 0.88 0.07 1.2-0.17 0.35-0.27 0.37-0.78 0.72-1.07 0.31-0.26 0.76-0.32 1.13-0.41 1.23-0.28 0.84-1.16 1.28-1.97 0.17-0.31 0.51-0.57 0.79-0.77 -0.36 0.26-0.37 1.19-0.44 1.58 -0.1 0.51-0.31 1.13-0.79 1.4C152.6 98.47 152.09 98.15 151.69 99.46L151.69 99.46zM156.98 73.04c-0.92 0.65-1.82 1.2-2.86 1.62 -2.04 0.83-4.29 1.41-6.2 2.53 -1.85 1.08-3.48 2.79-3.74 5 -0.1 0.86 0.65 2.17 0.36 2.83 -0.36 0.83-2.01 0.83-2.54 0.98 -1.58 0.45-2.75 1.43-2.51 2.59 0.23 1.16 0.3 1.49 0.13 2.22 -0.22 1-1.34 0.98-2.05 1.46 -1.06 0.72-1.05 1.31-1.17 2.5 -0.11 1.12-0.9 1.16-1.56 1.89 -0.67 0.74-0.43 1.24-0.64 2.12 -0.13 0.57-0.35 0.88-0.82 1.08 -0.04 0.02-0.03 0.06 0.01 0.06 1.05 0.14 1.06-1.18 1.21-1.7 0.27-0.92 0.42-1.31 1.41-1.77 0.43-0.2 1.12-0.25 1.33-0.74 0.45-1.05-0.32-1.88 0.56-2.75 0.67-0.66 1.85-0.55 2.5-1.26 0.81-0.88 0.13-2.04 0.09-2.46 -0.08-0.82 0.09-1.94 1.01-2.53 0.38-0.24 1.31-0.32 2.06-0.33 0.38 0 0.77-0.02 1.11-0.2 0.19-0.1 0.3-0.24 0.41-0.36 0.56-0.67 0.2-1.37 0.12-2.3 -0.24-2.76 1.51-5.37 4.07-6.43 1.71-0.71 3.44-1.37 5.11-2.17 1.1-0.52 2.07-1.28 3.15-1.84 0.86-0.44 2.27-1.13 3.19-0.47C160.75 70.66 157.47 72.7 156.98 73.04L156.98 73.04zM145.45 92.98c0.31 0 0.51-0.09 0.77-0.24 0.84-0.49 1.22-1.37 1.37-2.24 0.42-2.36 3.39-4.66 5.99-5.75 1.44-0.6 4.04-3.15 4.77-4.8 -3.01 1.3-6.86 2.96-9.17 6.21 0 0-0.36 0.24-0.37 0.24 0.43-0.28 0.9-1.6 1.31-2.05 0.77-0.84 1.69-1.55 2.63-2.18 1.12-0.74 2.3-1.39 3.52-1.96 0.88-0.41 2.27-0.48 2.57-1.59 1.21 1.96-3.15 6.12-4.73 6.8 -3.15 1.37-5.37 2.38-6.23 5.38 -0.27 0.94-0.78 1.96-1.69 2.44 -0.1 0.06-0.77 0.23-1.14 0.07 -0.52-0.22-1.51-0.63-1.69-0.41 0.19-0.24 0.47-0.36 0.91-0.26C144.31 92.65 145.02 92.97 145.45 92.98L145.45 92.98zM142.84 89.3c0.01-0.16 0.02-0.33 0.07-0.51 0.22-0.75 0.76-1.15 1.52-1.22 0.75-0.08 1.4 0.51 2.05 0.43 0.36-0.04 0.7-0.27 0.95-0.52 0.51-0.5 0.81-1.22 0.94-1.91 0.42-2.36 3.25-4.95 5.92-5.84 3.14-1.05 4.84-3.6 4.77-4.8 -3.01 1.29-6.86 2.96-9.17 6.21l-0.36 0.24c0.43-0.28 0.9-1.6 1.31-2.05 0.76-0.84 1.69-1.55 2.63-2.18 1.12-0.74 2.3-1.39 3.52-1.96 0.88-0.41 2.27-0.48 2.57-1.59 1.21 1.96-1.17 5.28-4.73 6.8 -3.15 1.35-5.37 2.38-6.24 5.38 -0.3 1.03-0.86 2.32-1.99 2.63 -0.83 0.23-1.46-0.62-2.32-0.26 -0.66 0.28-0.8 0.92-0.9 1.58 -0.2 1.28-1.4 0.95-1.87 1.81 -0.05-0.67 0.62-0.73 0.99-1.1C142.86 90.09 142.82 89.71 142.84 89.3L142.84 89.3zM144.24 93.61c-0.1-0.02-0.2-0.02-0.32-0.02 0.01 0.17 0.42 0.28 0.55 0.38 0.29 0.2 0.5 0.49 0.79 0.69 0.29 0.2 0.61 0.36 0.95 0.45 0.74 0.21 1.54 0.13 2.21-0.25 0.13-0.07 0.25-0.15 0.36-0.24 5.21-4.06 5.17-8.36 8.24-11.77 -0.49 0.23-1 0.43-1 0.43 -1.1 0.98-2.83 7.58-7.3 10.68 -0.62 0.43-1.37 0.65-2.12 0.61 -0.31-0.02-0.62-0.08-0.91-0.19 -0.29-0.12-0.5-0.31-0.76-0.47 -0.11-0.06-0.23-0.13-0.34-0.18C144.46 93.67 144.35 93.64 144.24 93.61L144.24 93.61zM138.88 99.55c0.41-1.3 1.75-0.58 2.72-0.61 1.45-0.04 1.62-1.12 2.02-2.21 0.44-1.21 2.96-0.57 4.13-0.52 1.64 0.07 2.08 0.23 3.42-0.83 1.5-1.19 0.69-3.88 1.6-5.31 -0.46 0.73-1.13 0.85-1.35 1.84 -0.15 0.71-0.31 2.38-0.81 2.99 -1.04 1.28-1.56 1.02-3.1 0.98 -0.99-0.03-3.36-0.76-3.99 0.06 -0.74 0.97-0.51 2.26-1.91 2.47 -0.98 0.15-2.31-0.95-2.94 1.12C138.63 99.67 138.85 99.66 138.88 99.55L138.88 99.55zM143.26 99.51c-0.53 0.13-1.06 0.07-1.56-0.13 -0.25-0.09-0.48-0.21-0.72-0.32 -0.23-0.11-0.48-0.17-0.7-0.27 0.05-0.1 0.35-0.01 0.44 0.02 0.16 0.05 0.31 0.08 0.47 0.12 0.48 0.1 1.04 0.35 1.53 0.23 1.48-0.34 0.99-2.17 2.22-2.67 0.91-0.37 2.08 0.05 2.96 0.34 5.94 1.94 8.39-3.49 6.06-6.61 -0.18-0.25-0.51-1.44-0.21-2.14l0.9-1.5c-0.82 1.97-0.42 3.22-0.18 3.63 2.71 4.62-2.14 9.25-6.53 7.01 -0.89-0.45-2.25-0.87-3.08-0.07C144.03 97.92 144.67 99.16 143.26 99.51L143.26 99.51zM145.69 105.7c0.27 0.71 1.16 0.12 1.67 0.21 0.31 0.05 0.49 0.36 0.77 0.37 0.4 0.01 0.73-0.43 1.13-0.47 0.68-0.07 1.09 0.59 1.71 0.71 0.78 0.14 1.06-0.72 1.48-1.2 1.04-1.2 1.91-0.32 3.06-1.01 0.83-0.5 0.74-1.83 0.95-2.66 0.24-0.94 0.81-1.63 1.77-1.84 0.89-0.19 1.82-0.06 2.73-0.13 0.45-0.04 1.03-0.12 1.41-0.36 0.69-0.44 0.78-1.28 0.84-2.2 0.09 0.35 0.26 1.21-0.23 2.03 -0.51 0.87-1.55 1.25-2.51 1.35 -1.41 0.16-2.56-0.22-3.42 1.21 -0.5 0.83-0.1 2.03-0.7 2.79 -0.67 0.85-1.75 0.38-2.62 0.83 -0.57 0.3-0.74 0.74-1.08 1.26 -0.41 0.64-1.03 1.07-1.8 0.6 -0.52-0.32-0.92-0.62-1.55-0.66 -0.48-0.02-0.94 0.37-1.41 0.24 -0.2-0.06-0.37-0.22-0.57-0.27 -0.37-0.1-1.01-0.02-1.4-0.18C145.56 106.16 145.8 106 145.69 105.7L145.69 105.7zM161.78 73.23c-0.06 0.07-0.13 0.14-0.19 0.21 -0.2-0.18-0.07-0.49 0.06-0.66 0.75-1 2.02-0.46 3.02-0.36 0.86 0.09 0.56-0.62 0.88-1.02 0.25-0.31 0.78-0.15 0.98 0.14 0.27 0.39-0.23 1.26 0.08 1.3 0.07 0.34-0.34 0.41-0.53 0.18 -0.26-0.32 0.16-0.41 0.23-0.64 0.07-0.25-0.01-0.68-0.29-0.69 -0.38-0.01-0.3 0.45-0.47 0.65 -0.21 0.26-0.59 0.37-0.91 0.38 -0.51 0.02-0.94-0.28-1.44-0.3C162.6 72.41 162.16 72.82 161.78 73.23L161.78 73.23zM161.45 72.04c0.17-0.43 0.51-0.83 0.85-1.02 0.56-0.31 1.35-0.23 1.9 0.06 0.22 0.12 1.1 0.86 0.93 1.19 -0.52 0.1-0.55-0.56-0.87-0.79 -0.41-0.29-1.16-0.11-1.58 0.12 -0.28 0.16-0.51 0.38-0.71 0.63 -0.04 0.05-0.47 0.84-0.42 0.84 -0.02 0-0.06 0-0.08 0C161.29 72.78 161.31 72.4 161.45 72.04L161.45 72.04zM155.37 72.74c0.73-0.18 1.06-0.62 1.46-1.21 0.22-0.32 0.54-0.55 0.87-0.75 0.2-0.12 0.48-0.23 0.71-0.11 0.18 0.09 0.3 0.35 0.51 0.38 0.6 0.09 0.97-0.73 1.61-0.45 0.6 0.26 0.54 1.02 0.74 1.54 0.07 0.19 0.22 0.35 0.31 0.52 0.18-0.75 0.17-1.5-0.3-2.12 -0.45-0.6-1.09-0.7-1.71-0.34 -0.64 0.36-1.41-0.14-2.02 0.21 -0.42 0.24-0.78 0.83-1.08 1.19 -0.42 0.51-0.82 0.68-1.47 0.51 -0.68-0.18-1.25 0.4-1.37 1.03 -0.09 0.5-0.08 1.39-0.65 1.63 0.59 0.28 0.82-0.37 0.97-0.8C154.19 73.26 154.62 72.92 155.37 72.74L155.37 72.74zM138.31 97.03c1.06-0.01 1.13-1.19 2.32-1.4 1.26-0.22 0.52-2.11 3.19-2.08 0.24 0 0.43 0.1 0.66 0.16 0.19 0.05 0.35 0.11 0.48 0.28 0.05 0.07 0.13 0.14 0.17 0.21 0.06 0.11 0.03 0.12 0.03 0.23 -0.67-0.35-1.54-0.62-2.26-0.27 -0.58 0.28-0.96 0.76-1.13 1.37 -0.31 1.12-0.86 0.71-1.44 0.98C139.59 96.87 139.19 97.56 138.31 97.03L138.31 97.03zM129.89 101.94c-0.29-0.01-0.57-0.01-0.85-0.01 -4.67-0.27-6.13-1.8-9.66-0.12 -0.1 0.05-0.19 0.1-0.28 0.14 -3.45 1.84-2.25 4.94-4.51 6.86 -2.03 1.73-5.77 2.69-7.5 4.06 -1.09 0.87-1.51 2.19-1.64 2.77 -0.31 1.43-0.11 3.29 0.96 5.05 0.84 1.37-0.56 2.2-0.24 3.57 0.29-1.03 1-1.6 1.2-2.53 0.16-0.78-0.15-1.55-0.59-2.23 -0.54-0.82-0.83-2.58-0.66-3.57 0.21-1.29 1.68-2.11 2.96-2.62 3.43-1.34 6.82-3.51 7.65-6.9 1.28-5.2 6.35-5.06 9.83-4.46 -2.33 0.1-4.44 0.49-6.35 1.72 -2.03 1.32-2.74 4.33-3.51 5.18 -4.06 4.47-9.16 4.78-8.89 13.11 0.02 0.43-0.61 1.73-0.82 2.34 -0.2 0.58-0.41 1.15-0.38 1.77 0.02 0.25 0.11 1.11 0.77 1.4 -0.2-0.36-0.45-0.85-0.45-1.25 0-0.54 0.19-0.86 0.37-1.37 0.24-0.66 0.51-1.31 0.71-2 0.32-1.09 0.48-2.23 0.58-3.36 0.43-4.96 3.76-6.22 8.13-8.94 1.1-0.68 1.54-1.63 1.85-2.56 0.17-0.51 0.31-1.03 0.36-1.56 0.06-0.62 0.19-1.27 0.67-1.77 0.11-0.11 0.87-0.7 1-0.79 1.27-0.89 2.89-1.15 4.45-1.44 1.27-0.24 2.34-0.15 3.51-0.1 0.1 0.02 0.2 0.04 0.29 0.07 -1.8 0.11-3.73 0.42-5.63 1.2 -0.29 0.12-0.67 0.26-0.93 0.42 -0.25 0.15-0.49 0.29-0.75 0.45 -1.24 0.72-1.73 1.87-1.92 3.09 -0.23 1.49-0.56 2.91-2.05 3.6 -9.85 4.61-7.27 8.31-8.64 11.38 -0.8 1.79-1.44 3.25-0.93 5.15 0.32 1.16 2.54 4.02 7.57 4.67 -2.39-1.15-7.99-2.28-7.09-7.04 0.31-1.63 1.66-4.26 1.85-6.3 0.06-0.67 0.51-1.3 0.97-1.96 1.8-2.33 5.26-2.96 7.22-5.03 1.23-1.13 1.9-2.56 2.17-4.07 0.12-0.67 0.32-2.53 1.92-3.5 0.84-0.5 1.9-0.85 2.89-1.07 0.86-0.2 1.82-0.28 2.81-0.4 -0.21 0.05-0.46 0.14-0.59 0.17 -0.36 0.09-0.71 0.2-1.06 0.32 -0.71 0.24-1.4 0.53-2.07 0.83 -1.4 0.63-2.64 1.6-2.82 2.67 -1 6.04-5.92 7.29-9.35 11.2 -0.41 0.49-0.69 1-0.86 1.52 -0.19 0.53-0.26 1.06-0.7 1.78 -2.24 3.63-1.87 9.93 4.69 9.18 -2.94-0.42-5.79-2.53-5.59-5.25 0.37-1.83 1.61-3.51 2.25-4.93 0.65-1.42 0.87-2.21 1.93-2.94 4.14-2.86 7.8-5.13 7.86-9.21 0.03-1.61 1.31-2.91 2.38-3.45 1.18-0.61 2.29-1.01 3.56-1.35 -0.27 0.13-2.4 1.23-4.04 2.44 -0.8 0.6-1.67 2.64-1.76 4.1 -0.26 4.53-3.02 6.02-7.26 8.67 -2.07 1.3-3.36 4.14-3.58 6.25 -0.12 1.18 0.09 2.44 1.13 3.31 0.55 0.46 1.24 0.71 1.97 0.89 1.26 0.33 1.57 0.43 2.33 1.4 0.68 0.87 1.14 1.05 2.31 1.46 -1.03-0.99-0.94-2.26-1.9-3.17 -0.78-0.74-2.1-0.6-3.02-1.14 -0.92-0.55-1.28-1.46-1.39-2.37 -0.3-2.34 0.99-4.7 2.98-6.27 0.22-0.19 0.62-0.29 0.9-0.4 1.71-0.71 3.31-1.62 4.49-2.91 0.81-0.89 1.37-1.93 1.68-3.02 0.18-0.66 0.27-1.34 0.29-2.02 0.02-0.83 0.08-1.52 0.29-2.38 0.45-1.8 1.9-2.72 2.76-3.34 0.58-0.42 1.28-0.67 1.98-0.9 0.32-0.1 1.51-0.49 1.51-0.49s1.14-1.27 1.24-1.45C130.91 102.02 130.07 101.9 129.89 101.94L129.89 101.94zM158.22 125.14c0.01-0.01 0.14-1.22 0.13-1.22 -3.35-0.23-8.19-1.2-10.36-1.9 -0.1-0.03-0.13-2.77-2.27-4.25 -0.28-0.19 0.19 0.79 0.33 1.86 0.19 1.44 0.11 3.16 0.11 3.32 0 3.76-1.78 10.72-1.74 10.94 0.2 1.19 0.3 2.2 2.28 3.52 2.98 1.99 8.46 7.55 8.56 8 -6.05-4.62-10.39-7.25-13.3-8.02 -0.88-0.23-1.81-10.91-6.75-14.68 -2.43-1.86-5.12-3.45-6.19-5.55 -3.06-6-1.18-13.38 6.7-16.48 6.23-2.45 15.24 0.33 18.4 1.44 0.09 0.03 0.09-0.66-0.06-0.72 -2.52-1.06-12.19-4.12-19.73-1.43 -8.46 3.02-10.76 11.2-6.28 18.52 2.92 4.77 9.73 5.37 10.54 13.9 0.17 1.8 0.32 3.04 0.35 3.88 0.05 1.55 1.15 2.03 2.01 2.17 2.49 0.41 15.18 7.03 16.09 10.69 0.08 0.3-0.04 0.77-0.18 1.04l4.41 0.03c0.01-0.38-0.96-1.8-1.4-2.48 -1.05-1.62-8.52-7.16-9.21-7.81 -4.46-4.2-4.81-7.36-4.79-7.88 0.01-0.26 1.22-8.08 1.34-8.83 0.01-0.05 0.01-0.07 0-0.05 0.12 0.05-0.12-2.06 0-2.02 0.09 0.03 0.55 2.21 0.65 2.25C150.38 124.22 156.31 125.09 158.22 125.14L158.22 125.14zM160.06 125.3l0.81-1.23c0 0 4.34 0.12 6.43-0.56 0 0 4.28 4.92 5.94 6.39 1.12 0.99 4.21 3.9 4.72 4.27 0.54 0.39 1.09 0.93 1.16 1.64 0.06 0.59-0.38 1.07-0.64 1.56 -0.3 0.55-1.54 3.18-1.87 3.94 0.4 0 4.53-5.16 3.83-6.41 -0.97-1.73-1.94-3.45-2.99-5.13 -0.69-1.11-1.41-2.21-2.19-3.26 -0.19-0.25 0.81-0.88 1.52-1.87 0.73-1.02 1.18-2.41 1.26-2.3 0.03 0.04 0.53 1.81 0.13 2.83 -0.18 0.45-1 1.38-0.95 1.47 1.38 2.25 2.9 5.64 3.41 6.61 0.37 0.7 1.13 1.39 1.18 2.32 0.07 1.24-3.04 4.84-3.84 5.68 -1.13 1.19-1.81 2.58-2.84 3.56 -0.53 0.5-4.03 2.5-4.03 2.5 0.1-0.35-0.16-3.8-0.06-4.3 0.01-0.05 3.38-0.42 3.64-0.66 1.07-0.97 1.77-2.77 2.48-4 0.38-0.66 0.97-1.4 1.05-2.19 0.09-0.88-0.88-1.52-1.51-1.92 -1.65-1.04-4.84-4.06-5.8-4.81 -0.98-0.77-3.69-3.44-3.99-4.12C164.57 125.48 160.06 125.3 160.06 125.3L160.06 125.3zM124.26 126.23C124.35 126.21 124.18 126.21 124.26 126.23L124.26 126.23zM137.24 126.58c-1.39-1.58-7.61-6.49-7.61-6.49 -0.19 0.42-0.46 1.08-0.8 1.52 -1.89 2.52-4.52 4.06-4.78 4.02 -0.53 0.1-1.13 0.42-1.46 0.89 -0.44 0.62-0.47 1.46-0.2 2.11 0.78 1.9 1.24 5.94 1.17 7.67 -0.06 1.77 0.13 3.29-0.53 4.92 -0.79 1.94-4.35 1.88-4.63 1.94 0 0 1.88 3.97 1.88 3.97 0.29-0.21 2.09-1.49 2.39-2.16 0.71-1.61 0.75-1.6 1.21-2.82 0.3-0.78 1.74-4.28 1.97-5.46 0.36-1.85 0.49-3.67 0.48-3.99 0-0.03 0.13-1.64 0.25-1.83 0.17-0.28 0.44-0.6 0.74-0.73 0.39-0.17 2.07-0.31 2.56-0.28 0.31 0.03 4.45 0.34 6.66-1.6C136.53 128.26 137.73 127.13 137.24 126.58L137.24 126.58 137.24 126.58zM127.41 127.91c-1.25-0.1-1.63 1.39-1.76 1.6 -0.06 0.1-0.19 3.21-0.37 5.47 -0.09 1.02-0.37 2.18-0.72 3.29 0.52-3.61-0.43-7.91-0.89-9.51 -0.29-1.02 0.32-2.11 0.71-2.18 0.79 0.06 4.18-2.72 6.29-5.29 0 0 2.9 1.01 3.85 2.05 0.95 1.05 2.4 2.74 2.4 2.74C134.34 128.63 132.17 128.28 127.41 127.91L127.41 127.91zM185.66 148.16h0.23c0.27 0 0.49-0.1 0.49-0.34 0-0.18-0.13-0.35-0.49-0.35 -0.1 0-0.18 0.01-0.23 0.02V148.16L185.66 148.16 185.66 148.16zM185.66 149.27h-0.32v-2.01c0.17-0.02 0.33-0.05 0.57-0.05 0.31 0 0.5 0.07 0.63 0.16 0.12 0.09 0.18 0.22 0.18 0.42 0 0.27-0.18 0.42-0.39 0.49v0.01c0.18 0.03 0.3 0.2 0.34 0.49 0.05 0.31 0.1 0.43 0.13 0.5h-0.34c-0.05-0.06-0.09-0.25-0.13-0.51 -0.05-0.26-0.18-0.35-0.44-0.35h-0.22V149.27L185.66 149.27 185.66 149.27zM186 146.7c-0.79 0-1.44 0.68-1.44 1.52 0 0.86 0.65 1.53 1.45 1.53 0.8 0.01 1.44-0.67 1.44-1.52 0-0.85-0.64-1.53-1.44-1.53H186L186 146.7 186 146.7zM186 146.41c0.99 0 1.77 0.8 1.77 1.81 0 1.02-0.78 1.82-1.78 1.82 -0.99 0-1.79-0.8-1.79-1.81 0-1 0.8-1.8 1.79-1.8H186L186 146.41zM163.56 87.54c-0.36 0.15-1.39 1-1.44 1.1 -0.17 0.33-0.28 0.69-0.35 1.07 -0.16 0.9-0.13 1.22-0.62 1.7 -0.21 0.21-2.18 1.5-3.08 1.97 0.1-0.24 0.18-0.53 0.25-0.74l0.17-0.59c0.14-0.7 0.03-1.43-0.34-1.93 -0.15-0.21-0.17-0.56-0.21-0.8 0.04-0.28 0.07-0.55 0.09-0.81 0.02-0.48-0.22-0.95-0.22-1.39 0 0.29-0.27 0.6-0.28 0.93 -0.02 0.68-0.62 4.69 0 6.34 0.13 0.34 3.04-2.05 3.78-2.66 0.94-0.77 0.75-1.58 1.08-2.63 0.09-0.28 1-1.17 1.31-1.38 0.41-0.28 1.19-0.49 1.35-0.6C164.81 87.04 163.85 87.42 163.56 87.54L163.56 87.54 163.56 87.54zM157.98 91.94l-0.16 0.55c-0.01 0.02-0.01 0.03-0.01 0.05 -0.01-0.61-0.01-1.22 0.01-1.83C157.96 91.12 158.06 91.53 157.98 91.94L157.98 91.94zM163.34 75.09c-0.31 0.12-0.89 0.61-0.92 0.78 -0.04 0.26 0.06 0.63 0.16 0.83 0.17 0.33 0.19 0.28 0.41 0.65 0.06-0.16-0.17-0.47-0.19-0.57 -0.06-0.25-0.09-0.26-0.1-0.41 -0.02-0.57 0.58-0.33 0.52-1.03L163.34 75.09 163.34 75.09zM163.41 89.99c-0.3 0.66-0.11 1.09-0.59 1.71 -1.24 1.6-5.83 5.57-6.06 5.33 -1.1-1.14-1.49-4.63-1.49-7.15 0-1.85 0.14-3.77 0.51-4.85 0.41-1.22 1.04-1.92 1.92-2.16 0.2-0.05 0.43-0.08 0.68-0.07 0.76 0.01 2.45 0.52 2.76 1.37 -0.21-0.59-0.68-1.08-1.24-1.41 0.08-0.57-0.09-2.63-0.42-3.94 0 0-0.01 0.1-0.3 0.05 -0.29-0.05-0.4-0.46-0.4-0.46 0.15 0.54 0.72 3.51 0.73 4.15 -0.63-0.27-1.33-0.36-1.94-0.19 -1.05 0.28-1.82 1.12-2.28 2.5 -0.43 1.28-0.58 3.59-0.56 5.65 0.02 2.27 0.38 6.1 1.72 7.44 0.65 0.65 6.32-5.38 6.79-6.5 0.19-0.45 0.34-1.11 0.77-1.9 0.38-0.7 0.67-1.77 1.04-2.45C164.69 87.37 163.79 89.15 163.41 89.99L163.41 89.99zM164.75 100.67c-0.62 2.18-0.53 1.82-1.84 2.64 -1.53 0.95-1.45 1.61-1.21 2.93 0.22 1.21-0.51 1.52-1.56 1.3 -1.24-0.25-1.52 1.38-2.65 1.24 -0.57-0.07-1 0.35-1.55 0.63 -0.27 0.14-0.91 0.38-1.17-0.01 0.68 0.1 0.84-0.52 1.3-0.83 0.51-0.35 1.16-0.21 1.72-0.49 0.42-0.21 0.56-0.73 1-0.9 0.51-0.2 1.08 0.21 1.58 0.04 0.76-0.25 0.6-1.38 0.44-1.97 -0.4-1.51 1.47-2.09 1.97-2.51 0.5-0.43 1.06-1.02 1.34-1.97 0.53-1.82-0.05-2.94 0.03-4.16 0.04-0.56 0.04-0.89 0.35-1.37 0.33-0.51 0.95-0.77 1.39-1.18 0.35-0.33 0.98-0.75 1.36-0.96 -0.49 0.6-1.47 1.21-1.93 1.69 -0.58 0.59-0.89 1.23-0.77 2.12C164.7 98.09 165.09 99.49 164.75 100.67L164.75 100.67zM172.65 84.36c-0.55-0.43-1.17-0.57-0.84-1.49 0.17-0.46 0.46-0.9 0.32-1.5 -0.09-0.41-0.3-0.78-0.66-1.02 -0.38-0.24-0.85-0.32-1.28-0.36 -0.49-0.04-0.99-0.05-1.48-0.11 -0.23-0.03-0.54-0.08-0.77-0.15 -0.11-0.04-0.37-0.14-0.52-0.43 -0.23-0.45 0.37-0.59 0.65-0.79 0.21-0.16 0.39-0.37 0.51-0.61 0.31-0.62 0.17-1.4-0.51-1.69 -0.28-0.12-0.28-0.36-0.11-0.55 0.5-0.57 0.42-2.11-1.05-2.06 -0.76 0.03-0.93 0.5-1.8 0.41 -0.47-0.05-0.75-0.23-0.92-0.89 -0.15-0.6-0.75-0.9-1.31-0.57 -0.29 0.17-0.41 0.43-0.53 0.73 -0.04 0.09-0.23 0.35-0.04 0.38 0.18 0.03 0.15-0.22 0.22-0.31 0.05-0.06 0.13-0.12 0.21-0.16 0.3-0.16 0.71-0.09 0.79 0.29 0.28 1.46 0.61 1.99 0.98 2.57 0.21 0.32 0.47 0.74 0.18 1.04 -0.21 0.21-0.57 0.23-0.6 0.64 -0.02 0.38 0.23 0.76 0.66 0.7 0.51-0.07 0.46-0.84-0.07-0.74 0.18 0.01 0.29 0.27 0.14 0.37 -0.29 0.2-0.53-0.16-0.36-0.4 0.12-0.17 0.42-0.31 0.57-0.43 0.6-0.48 0.22-1.07-0.16-1.58 -0.51-0.69-0.95-1.35-0.98-1.99 0.65 1.35 2.2 0.41 3.06 0.25 0.95-0.17 1.19 1 0.44 1.5 -0.73 0.49-0.35 0.91 0.48 1.17 0.13 0.04 0.26 0.1 0.35 0.21 0.22 0.25 0.14 0.6-0.01 0.86 -0.1 0.17-0.23 0.31-0.37 0.44 -0.36 0.3-0.9 0.69-0.67 1.24 0.17 0.4 0.68 0.58 1.05 0.71 0.18 0.06 0.37 0.11 0.55 0.15 0.63 0.15 1.32 0.23 1.89 0.54 0.64 0.34 1.05 0.74 0.86 1.89 -0.1 0.61-0.67 0.9-0.28 1.5 0.27 0.4 1.1 0.48 1.34 0.99 0.44 0.94-0.24 1.23-0.82 1.62 -0.41 0.28-0.74 0.48-0.85 0.97 -0.15 0.69 0.52 1.2 0.1 1.93 -0.26 0.45-0.81 0.66-1.28 0.82 -0.63 0.22-0.68 0.57-1.23 0.95 -0.61 0.43-1.17 1.06-1.7 1.57 -1.14 1.1-2.95 0.41-3.53 1.57 -0.68 1.36 0.49 3.6 0.22 5 -0.29 1.54-2.11 1.7-3.36 1.8 -1.52 0.13-2.57 0.75-2.09 2.36 0.34 1.13 0.46 1.17 0.46 1.92 0 1.15-1.46 0.72-2.18 1 -0.93 0.37-1.32 1.64-3.02 1.67 -0.69 0.01-1.21-0.16-1.91 0.1 -0.74 0.27-1.41 0.78-2.23 0.17 -0.26-0.19-0.27-0.63-0.61-0.74 -0.29-0.09-0.59 0.09-0.88 0.01 -0.23-0.06-0.36-0.31-0.59-0.36 -0.2-0.04-0.59 0.1-0.62-0.2 -0.01 0.18 0.17 0.37 0.34 0.4 0.15 0.03 0.3-0.04 0.4 0.11 0.11 0.16 0.2 0.38 0.42 0.42 0.23 0.04 0.49-0.04 0.72 0.06 0.48 0.2 0.84 0.85 1.31 1.06 0.67 0.31 1.45-0.01 2.11-0.17 0.73-0.18 1.12-0.04 1.81 0.03 1.13 0.11 1.77-0.6 2.4-1.38 0.89-1.09 2.3-0.5 3.01-1.27 0.81-0.89-0.02-2.06-0.14-2.46 -0.41-1.4 0.11-2.36 2.79-2.57 1.24-0.1 1.88-0.73 1.98-0.86 1.08-1.28-0.1-3.61-0.02-4.97 0.07-1.25 1.41-1 2.3-1.62 0.85-0.59 1.31-1.29 2.01-2.03 0.07-0.08 0.15-0.15 0.22-0.22 0.68-0.62 1.43-0.9 2.26-1.38 0.53-0.31 1.05-0.75 1.11-1.39 0.07-0.67-0.2-1.28 0.44-1.76 0.51-0.37 1.26-0.69 1.45-1.4C173.56 85.16 173.21 84.8 172.65 84.36L172.65 84.36zM163.91 74.3c0.68 1.47 2.04 1.17 2.58 0.78 1.37-0.99 1.5-0.28 1.14 0.11l0.34-0.06c0.17-0.72-0.19-1.08-1.34-0.5 -0.8 0.4-1.99 0.17-2.75-1.3L163.91 74.3 163.91 74.3zM163.81 78.15c-0.29 1.55 0.63 2.44 2.31 2.91 0.63 0.18 2.18 0.4 2.64 0.87 0.73 0.73-0.33 1.44 0.04 2.3 0.24 0.55 0.86 0.65 1.04 1.24 0.27 0.91-0.26 1.26-0.59 1.97 -0.31 0.66-0.06 1.18 0.26 1.71 0.31 0.51 0.28 1.69-0.41 1.99 0.45-0.79-0.02-1.32-0.36-2.01 -0.45-0.9-0.2-1.47 0.33-2.29 0.36-0.56 0.36-1.1-0.01-1.67 -0.28-0.43-0.74-0.53-0.82-1.06 -0.08-0.56 0.28-0.72 0.41-1.17 0.27-0.96-2.34-1.41-2.99-1.56 1.41 0.74 0.74 2.9 0.28 3.74 -0.29 0.52-0.44 0.66-0.79 1.16 -0.22 0.32-0.47 0.73-0.66 1.01l-0.51 0.2c0.26-0.69 0.77-1.3 1.17-1.94 0.55-0.88 0.96-2.34 0.68-3.37 -0.22-0.78-1.09-0.96-1.6-1.48 -0.65-0.64-0.66-2.24-0.2-2.94L163.81 78.15 163.81 78.15zM163.99 89.16c0.21 0.38 0.5 0.71 0.49 1.22 -0.01 0.68-0.58 1.24-0.55 1.9 0.02 0.54 0.37 1.11 0.04 1.61 -0.22 0.33-0.59 0.37-0.59 0.82 0.25-0.36 0.94-0.28 1.26-0.65 0.54-0.61 0.03-1.07-0.12-1.66 -0.18-0.76 0.38-1.25 0.49-1.97 0.11-0.74-0.54-1.06-0.78-1.63L163.99 89.16 163.99 89.16zM166.93 88.49c-0.01-0.06-0.02-0.12-0.04-0.18 -0.08-0.23-0.3-0.42-0.46-0.59 -0.44-0.44-0.68-0.87-0.59-1.52 0.07-0.5 0.37-0.93 0.59-1.37 0.25-0.51 0.42-1.14 0.25-1.7 -0.1-0.37-0.32-0.67-0.54-0.97 -0.24-0.31-0.55-0.44-0.39-0.85 0.31 0.18 0.91 0.66 1.1 0.96 0.46 0.71 0.46 1.58 0.13 2.38 -0.26 0.65-0.7 1.22-0.5 1.96 0.14 0.53 0.6 0.83 0.89 1.26 0.19 0.28 0.28 0.58 0.15 0.89 -0.23 0.6-0.63 0.89-0.21 1.5 0.45 0.64 0.94 0.68 0.76 1.55 -0.06 0.26-0.07 0.54-0.28 0.73 -0.11 0.1-0.67 0.18-0.67 0.19 0.44-0.73 0.57-1.21-0.02-1.82 -0.33-0.34-0.58-0.73-0.52-1.22C166.62 89.25 166.99 88.96 166.93 88.49L166.93 88.49zM108.68 189.48c3.95 0 11.66-2.5 11.66-14.73 0.01-9.45-5.97-15.87-12.89-15.87 -7.31 0-12.36 4.86-12.37 14.11C95.08 182.5 100.8 189.48 108.68 189.48L108.68 189.48 108.68 189.48zM107.76 157.1c9.86 0 17.6 6.22 17.6 16.43 0 9.81-7.3 17.92-17.86 17.92 -12 0-17.29-9.34-17.29-17.22C90.21 167.13 95.67 157.1 107.76 157.1L107.76 157.1zM141.12 175.13c0 4.64 0.05 8.68 0.09 9.5 0.04 1.1 0.3 2.56 0.65 3.04 0.57 0.84 1.69 1.75 6.85 1.75 4.08 0 7.32-1.19 9.9-3.78 2.28-2.23 3.51-6.44 3.51-10.47 0-5.56-2.41-9.16-4.2-11.04 -4.13-4.34-8.6-4.66-13.81-4.66 -0.87 0-2.07 0.14-2.42 0.31 -0.39 0.18-0.52 0.41-0.52 0.87 -0.05 1.49-0.05 5.67-0.05 9.04V175.13L141.12 175.13 141.12 175.13zM136.37 187.61c0.22-1.85 0.22-5.3 0.22-9.51v-7.7c0-6.84 0.04-8.06-0.09-9.47l-0.02-3.11c0.53 0 5.66-0.13 8.29-0.13 4.34 0 12.73-0.4 17.93 4.99 2.19 2.28 4.25 5.92 4.25 11.13 0 5.52-2.27 9.77-4.73 12.35 -1.88 1.97-6.2 5.04-13.65 5.04 -3.76 0-11.86-0.53-12.3-0.53L136.37 187.61 136.37 187.61zM177.98 187.6c0.22-1.85 0.22-5.3 0.22-9.51v-7.7c0-6.84-0.01-8.06-0.09-9.47l-0.27-3.24c0.61 0 1.72 0.13 2.63 0.13 0.66 0.01 1.9-0.17 2.42-0.13l-0.08 3.24c-0.08 1.4-0.08 2.63-0.08 9.47v7.71c0 4.21-0.01 7.66 0.22 9.51l0.27 3.19c-0.95-0.03-1.48-0.14-2.75-0.13 -1.15 0.01-1.85 0.19-2.64 0.13L177.98 187.6 177.98 187.6zM74.96 179.63c0-3.55-0.01-5.26-0.01-5.26 0.74 0 1.44 0.12 2.27 0.13 0.69 0.01 1.6-0.13 2.34-0.13l0.02 3.24c-0.09 1.4-0.09 2.72-0.09 4.56v4.91c0 1.97-0.04 2.06-0.57 2.37 -2.81 1.49-7.17 1.96-9.72 1.97 -4.17 0.03-10.61-0.72-15-4.91 -2.56-2.44-5.21-6.9-5.22-12.26 -0.01-7.01 3.46-11.97 7.36-14.41 3.94-2.46 8.83-2.77 12.2-2.77 2.76 0 6.08 0.57 6.91 0.75 0.92 0.22 2.45 0.39 3.55 0.42 0.44 0.05 0.52 0.23 0.52 0.4 0 0.62-0.26 0.31-0.31 4.71 0 0.48-0.45 0.29-1.02-0.25 0 0-0.58-0.44-1-0.82 -1.48-1.33-4.46-3.38-10.11-3.38 -2.76 0-5.73 0.26-8.84 2.68 -2.56 1.99-4.42 6-4.42 11.13 0 6.17 3.11 10.64 4.64 12.14 3.46 3.37 6.94 4.4 11.04 4.52 1.58 0.04 3.54-0.19 4.57-0.75 0.57-0.32 0.88-0.79 0.88-1.54L74.96 179.63 74.96 179.63zM219.86 157.68c0.29 0.04 1.37 0.13 1.9 0.13 0.26 0 0.32-0.04 1.6-0.04l-2.08 5.17c-0.49 1.23-2.75 6.45-5.12 11.87 -2.79 6.35-4.72 11.13-5.73 13.29 -1.23 2.62-1.5 3.32-1.94 3.32 -0.53 0.01-0.83-0.61-1.66-2.71l-10.88-26.85 -1.68-4.16c0.81-0.04 2.26 0.13 2.78 0.13 0.44 0 2.22-0.13 2.76-0.13 0 0 1.13 3.64 1.79 5.34l8.04 21.14c2.55-5.87 8.12-19.86 9.08-23.02C218.93 160.48 219.86 157.68 219.86 157.68L219.86 157.68zM242.67 176.72c0.21 0 0.21-0.13 0.18-0.31l-4.07-11.79c-0.17-0.34-0.3-0.34-0.49 0l-3.93 11.79c-0.09 0.22 0 0.31 0.13 0.31H242.67L242.67 176.72 242.67 176.72zM247.54 188.93l-3.81-9.98c-0.1-0.18-0.19-0.26-0.4-0.26h-9.42c-0.22 0-0.35 0.13-0.43 0.35l-2.57 6.95c-0.39 1.1-1.7 4.82-1.7 4.82s-0.88-0.04-1.37-0.04c-0.48 0-1.29 0.09-1.79 0.04l1.9-4.82 10.32-27.15c0.53-1.44 0.9-1.71 1.17-1.71 0.26 0 0.67 0.31 1.19 1.68 0.66 1.67 7.6 19.59 10.24 26.27l2.16 5.73c-0.65 0-1.81 0-4.84-0.09L247.54 188.93 247.54 188.93zM185.2 199.38c0.18 0.15 0.28 0.41 0.28 0.78 0 0.34-0.11 0.64-0.33 0.9 -0.22 0.26-0.49 0.39-0.81 0.39 -0.35 0-0.61-0.08-0.79-0.24 -0.19-0.15-0.28-0.42-0.28-0.77s0.11-0.65 0.33-0.91c0.22-0.25 0.48-0.38 0.79-0.38C184.75 199.15 185.01 199.23 185.2 199.38L185.2 199.38zM116.47 204.23c-0.03-0.56-0.1-1.1-0.2-1.65 -0.1-0.56-0.27-1.05-0.51-1.49 -0.24-0.44-0.57-0.79-0.98-1.06 -0.4-0.28-0.93-0.41-1.57-0.41 -0.71 0-1.38 0.17-2.01 0.5 -0.62 0.33-1.19 0.77-1.71 1.32 -0.52 0.54-0.98 1.17-1.38 1.88 -0.4 0.71-0.74 1.44-1.01 2.19 -0.27 0.75-0.48 1.49-0.63 2.23 -0.16 0.73-0.22 1.42-0.22 2.02 0 0.6 0.07 1.16 0.2 1.68 0.13 0.52 0.34 0.99 0.63 1.4 0.28 0.39 0.65 0.7 1.12 0.93 0.46 0.23 1.02 0.35 1.69 0.35 0.69 0 1.33-0.14 1.93-0.4 0.6-0.26 1.15-0.61 1.66-1.04 0.51-0.43 0.98-0.9 1.4-1.43 0.42-0.53 0.81-1.05 1.16-1.59l0.3 0.21c-0.33 0.65-0.76 1.28-1.29 1.93 -0.54 0.63-1.12 1.21-1.78 1.71 -0.65 0.51-1.35 0.93-2.1 1.25 -0.75 0.33-1.49 0.49-2.25 0.49 -0.74 0-1.41-0.12-2.01-0.38 -0.6-0.25-1.12-0.6-1.55-1.06 -0.42-0.45-0.74-0.99-0.97-1.61 -0.23-0.62-0.34-1.29-0.34-2.01 0-1.4 0.28-2.77 0.85-4.11 0.56-1.34 1.34-2.54 2.31-3.58 0.97-1.05 2.11-1.89 3.4-2.53 1.29-0.63 2.67-0.95 4.13-0.95 0.5 0 1.01 0.06 1.53 0.19 0.52 0.13 1 0.29 1.44 0.51 -0.19 0.76-0.36 1.51-0.52 2.26 -0.15 0.75-0.31 1.51-0.45 2.27h-0.24V204.23zM133.58 206.78c-0.32 0.26-0.61 0.59-0.88 1.02 -0.27 0.41-0.5 0.87-0.7 1.39 -0.21 0.51-0.38 1.01-0.53 1.52 -0.15 0.51-0.27 0.98-0.34 1.4 -0.07 0.44-0.12 0.79-0.12 1.06 0 0.89 0.44 1.33 1.32 1.33 0.36 0 0.7-0.12 1.02-0.38 0.32-0.26 0.61-0.61 0.88-1.02 0.27-0.42 0.5-0.88 0.7-1.4 0.2-0.51 0.39-1.01 0.53-1.52 0.15-0.5 0.26-0.97 0.34-1.4 0.07-0.44 0.11-0.79 0.11-1.06 0-0.89-0.44-1.34-1.32-1.34C134.25 206.39 133.91 206.52 133.58 206.78L133.58 206.78 133.58 206.78zM137.49 209.43c-0.18 0.56-0.44 1.13-0.75 1.67 -0.32 0.54-0.7 1.05-1.12 1.53 -0.42 0.48-0.88 0.9-1.37 1.27 -0.48 0.36-0.99 0.65-1.51 0.86 -0.52 0.21-1.04 0.32-1.54 0.32 -0.41 0-0.74-0.06-0.99-0.17 -0.26-0.11-0.47-0.26-0.62-0.45 -0.16-0.18-0.26-0.41-0.32-0.68 -0.05-0.26-0.08-0.56-0.08-0.87 0-0.52 0.11-1.06 0.32-1.63 0.22-0.56 0.49-1.12 0.85-1.66 0.35-0.54 0.75-1.06 1.21-1.53 0.46-0.48 0.93-0.91 1.41-1.26 0.49-0.36 0.97-0.65 1.46-0.87 0.49-0.21 0.93-0.31 1.32-0.31 0.4 0 0.74 0.05 1 0.16 0.26 0.11 0.47 0.26 0.62 0.45 0.16 0.2 0.27 0.42 0.32 0.69 0.06 0.26 0.08 0.55 0.08 0.87C137.76 208.31 137.68 208.86 137.49 209.43L137.49 209.43zM140.8 215.05c0.6 0 1.18-0.13 1.76-0.38 0 0 0.56-0.3 0.91-0.55 0.35-0.24 1.21-0.94 1.21-1.01 0.01-0.1-0.04-0.14-0.13-0.15 -0.02 0-1.3 1.05-2.1 1.05l-0.25 0.01c-0.59 0-1.03-0.16-1.28-0.5l-0.09-0.15c-0.18-0.29-0.26-0.67-0.26-1.12 0-0.23 0.03-0.54 0.1-0.93 0.08-0.38 0.17-0.79 0.29-1.23 0.12-0.43 0.28-0.87 0.46-1.31 0.18-0.44 0.37-0.84 0.6-1.19 0.22-0.36 0.45-0.65 0.72-0.87 0.26-0.23 0.53-0.34 0.81-0.34 0.27 0 0.51 0.06 0.72 0.17 0.21 0.11 0.35 0.3 0.43 0.56 -0.1 0.08-0.17 0.17-0.25 0.28 -0.06 0.09-0.1 0.21-0.1 0.34 0 0.27 0.08 0.47 0.24 0.6 0.16 0.14 0.36 0.2 0.61 0.2 0.41 0 0.7-0.15 0.85-0.45 0.16-0.3 0.24-0.63 0.24-0.97 0-0.4-0.13-0.76-0.38-1.05 -0.25-0.3-0.59-0.44-1.02-0.44 -0.7 0-1.43 0.22-2.17 0.69 -0.75 0.45-1.42 1.02-2.04 1.72 -0.6 0.69-1.12 1.43-1.51 2.23 -0.39 0.79-0.59 1.53-0.59 2.22 0 0.71 0.21 1.31 0.62 1.82 0.32 0.37 0.73 0.61 1.23 0.7C140.45 215 140.66 215.05 140.8 215.05L140.8 215.05zM150.83 206.78c-0.32 0.26-0.6 0.59-0.88 1.02 -0.27 0.41-0.5 0.87-0.71 1.39 -0.19 0.51-0.37 1.01-0.52 1.52 -0.15 0.51-0.25 0.98-0.34 1.4 -0.07 0.44-0.12 0.79-0.12 1.06 0 0.89 0.45 1.33 1.32 1.33 0.36 0 0.69-0.12 1.01-0.38 0.32-0.26 0.61-0.61 0.88-1.02 0.27-0.42 0.5-0.88 0.71-1.4 0.2-0.51 0.38-1.01 0.53-1.52 0.15-0.5 0.26-0.97 0.34-1.4 0.08-0.44 0.12-0.79 0.12-1.06 0-0.89-0.43-1.34-1.31-1.34C151.49 206.39 151.15 206.52 150.83 206.78L150.83 206.78 150.83 206.78zM154.74 209.43c-0.18 0.56-0.44 1.13-0.76 1.67 -0.33 0.54-0.69 1.05-1.11 1.53 -0.42 0.48-0.88 0.9-1.37 1.27 -0.49 0.36-0.99 0.65-1.51 0.86 -0.52 0.21-1.04 0.32-1.54 0.32 -0.41 0-0.74-0.06-1-0.17 -0.25-0.11-0.47-0.26-0.62-0.45 -0.16-0.18-0.26-0.41-0.32-0.68 -0.05-0.26-0.08-0.56-0.08-0.87 0-0.52 0.11-1.06 0.32-1.63 0.21-0.56 0.5-1.12 0.85-1.66 0.35-0.54 0.75-1.06 1.21-1.53 0.45-0.48 0.93-0.91 1.42-1.26 0.47-0.36 0.96-0.65 1.45-0.87 0.49-0.21 0.93-0.31 1.31-0.31 0.42 0 0.74 0.05 1.01 0.16 0.26 0.11 0.47 0.26 0.62 0.45 0.16 0.2 0.27 0.42 0.32 0.69 0.06 0.26 0.08 0.55 0.08 0.87C155.01 208.31 154.92 208.86 154.74 209.43L154.74 209.43zM195.04 205.92h1.75l-1.29 3.43 0.04 0.04c0.19-0.33 0.41-0.71 0.67-1.14 0.25-0.42 0.53-0.83 0.85-1.23 0.33-0.39 0.67-0.71 1.05-0.98 0.38-0.26 0.79-0.39 1.23-0.39 0.45 0 0.81 0.12 1.09 0.38 0.27 0.26 0.42 0.62 0.42 1.06 0 0.16-0.03 0.33-0.06 0.52 -0.04 0.19-0.11 0.36-0.2 0.51 -0.1 0.14-0.21 0.27-0.35 0.37 -0.14 0.1-0.31 0.15-0.52 0.15 -0.27 0-0.49-0.08-0.65-0.23 -0.16-0.16-0.24-0.36-0.24-0.62 0-0.14 0.03-0.28 0.08-0.4 0.05-0.12 0.11-0.24 0.19-0.37 -0.1-0.11-0.23-0.17-0.39-0.19 -0.16-0.02-0.31-0.04-0.45-0.04 -0.33 0-0.65 0.16-0.99 0.48 -0.33 0.32-0.65 0.73-0.95 1.23 -0.31 0.51-0.6 1.07-0.86 1.69 -0.26 0.62-0.51 1.23-0.74 1.81 -0.23 0.61-0.42 1.15-0.58 1.64 -0.16 0.5-0.27 0.88-0.34 1.14h-1.61L195.04 205.92 195.04 205.92zM128.29 212.94c-0.02 0-1.07 1.2-2.09 1.18 -0.52-0.01-0.66-0.27-0.66-0.83 0-0.2 0.09-0.6 0.27-1.2 0.18-0.59 0.93-3.04 0.96-3.16 0.15-0.49 0.42-1.95-0.23-2.67 -0.24-0.28-0.71-0.6-1.3-0.6 -0.53 0-1.04 0.14-1.53 0.42 -0.48 0.28-0.94 0.64-1.36 1.06 -0.43 0.43-0.81 0.88-1.15 1.35 -0.34 0.48-0.64 0.93-0.89 1.33l-0.05-0.05c0.72-1.93 3.7-9.89 4.4-11.76h-1.81l-5.91 16.76h1.6c0.11-0.47 0.79-2.35 1.19-3.3 0.25-0.6 0.58-1.16 0.92-1.72 0.34-0.55 0.7-1.05 1.08-1.48 0.39-0.43 0.79-0.77 1.23-1.05 0.91-0.55 1.78-0.47 2.02-0.11 0.13 0.2 0.23 0.46 0.2 0.77 -0.17 1.55-0.95 3.66-1.3 4.87 -0.22 0.72-0.13 1.62 0.26 1.96 0.29 0.26 0.66 0.35 1.07 0.35 0.33 0 0.57-0.1 0.99-0.28 0.41-0.18 0.67-0.35 1.02-0.62 0.33-0.25 1.23-1.03 1.23-1.1C128.43 212.99 128.39 212.94 128.29 212.94L128.29 212.94zM187.28 208.98c0.16-0.37 0.35-0.74 0.59-1.09 0.24-0.35 0.5-0.66 0.78-0.93 0.28-0.25 0.57-0.38 0.87-0.38 0.22 0 0.4 0.03 0.55 0.1 0.14 0.07 0.21 0.22 0.21 0.43 0 0.33-0.11 0.66-0.36 0.97 -0.25 0.31-0.54 0.59-0.89 0.85 -0.34 0.25-0.71 0.47-1.09 0.64 -0.38 0.18-0.72 0.28-1 0.33C187 209.67 187.12 209.36 187.28 208.98L187.28 208.98 187.28 208.98zM186.76 210.38c0.4-0.1 0.89-0.24 1.49-0.43 0.6-0.19 1.17-0.42 1.73-0.72 0.56-0.3 1.04-0.65 1.43-1.05 0.4-0.41 0.6-0.87 0.6-1.39 0-0.75-0.37-1.13-1.12-1.13 -0.42 0-0.87 0.11-1.35 0.33 -0.48 0.22-0.96 0.52-1.44 0.91 -0.48 0.38-0.94 0.82-1.38 1.31 -0.44 0.49-0.83 1.01-1.16 1.55 -0.34 0.55-0.6 1.1-0.81 1.66 -0.2 0.56-0.31 1.1-0.31 1.6 0 0.65 0.19 1.17 0.58 1.51 0.38 0.35 0.9 0.53 1.56 0.53 0.6 0 1.18-0.15 1.77-0.41 0 0 0.56-0.27 0.91-0.52 0.35-0.24 1.21-0.94 1.21-1.01 0.01-0.1-0.04-0.14-0.13-0.15 -0.02 0-1.3 1.03-2.09 1.03l-0.25 0.01c-0.59 0-1.02-0.14-1.28-0.48 -0.26-0.33-0.38-0.77-0.38-1.33 0-0.24 0.04-0.55 0.12-0.92C186.54 210.9 186.64 210.61 186.76 210.38L186.76 210.38zM172.42 212.76c-0.25 0.71-0.21 1.62 0.19 1.96 0.28 0.26 0.66 0.35 1.07 0.35 0.32 0 0.57-0.1 0.98-0.28 0.41-0.18 0.66-0.35 1.02-0.62 0.33-0.25 1.23-1.03 1.23-1.1 0-0.09-0.05-0.14-0.14-0.14 -0.01 0-1.07 1.2-2.09 1.18 -0.52-0.01-0.66-0.27-0.66-0.83 0-0.2 0.09-0.6 0.28-1.2l0.64-1.98c0.24-0.71 0.48-1.41 0.71-2.08 0.23-0.68 0.41-1.19 0.5-1.56h3.04l0.15-0.56h-3l1.31-3.79 -1.82 0.45c-0.25 0.75-0.51 1.55-0.79 2.38 -0.27 0.83-0.55 1.65-0.82 2.46 -0.27 0.8-0.53 1.59-0.77 2.33 -0.24 0.75-0.46 1.4-0.66 1.98L172.42 212.76 172.42 212.76zM167.9 210.16c-0.14 0.28-0.23 0.49-0.27 0.61 -0.13 0.29-0.31 0.62-0.54 0.98 -0.23 0.37-0.51 0.72-0.81 1.04 -0.31 0.32-0.63 0.59-0.98 0.81 -0.33 0.22-0.69 0.33-1.05 0.33 -0.28 0-0.53-0.08-0.73-0.27 -0.2-0.18-0.3-0.42-0.3-0.71 0-0.47 0.08-0.96 0.24-1.45 0.16-0.49 0.36-0.98 0.6-1.47 0.24-0.49 0.52-0.94 0.8-1.39 0.28-0.44 0.41-0.67 0.66-1.06 0.13-0.16 0.24-0.3 0.33-0.4 0.11-0.12 0.21-0.23 0.31-0.3 0.09-0.06 0.34-0.24 0.49-0.28 0.14-0.06 0.31-0.08 0.47-0.09 0.13-0.01 0.5 0.02 0.69 0.08 0.19 0.06 0.36 0.11 0.55 0.3 0.15 0.13 0.25 0.26 0.34 0.43 0.08 0.17 0.1 0.42 0.1 0.61 0 0.07-0.05 0.25-0.15 0.51 -0.09 0.27-0.21 0.56-0.34 0.87C168.15 209.58 168.02 209.87 167.9 210.16L167.9 210.16 167.9 210.16zM171.31 212.94c-0.01 0-1.07 1.2-2.09 1.18 -0.51-0.01-0.65-0.27-0.65-0.83 0-0.2 0.09-0.6 0.27-1.2l0.19-0.58c0.17-0.5 0.36-1.02 0.56-1.6 0.21-0.57 0.41-1.13 0.61-1.68 0.2-0.54 0.39-1.04 0.56-1.48 0.18-0.43 0.32-0.76 0.43-0.97l-1.55 0.01c-0.08 0.23-0.2 0.48-0.33 0.74 -0.08-0.25-0.22-0.46-0.41-0.63 -0.19-0.17-0.43-0.25-0.69-0.25 -0.31 0-0.7 0.1-1.16 0.32 -0.46 0.21-0.94 0.5-1.45 0.86 -0.49 0.36-1 0.78-1.52 1.27 -0.51 0.49-0.97 1.01-1.37 1.56 -0.39 0.55-0.72 1.13-0.97 1.73 -0.25 0.59-0.37 1.18-0.37 1.77 0 0.21 0.02 0.44 0.07 0.67 0.05 0.22 0.13 0.43 0.24 0.61 0.11 0.17 0.25 0.32 0.43 0.44 0.18 0.12 0.41 0.18 0.67 0.18 0.44 0 0.9-0.13 1.38-0.37 0.48-0.24 0.94-0.57 1.38-0.94 0.44-0.38 0.85-0.78 1.21-1.22 0.37-0.43 0.67-0.82 0.89-1.16l0.04 0.05c-0.06 0.14-0.15 0.33-0.28 0.57 -0.12 0.25-0.22 0.46-0.34 0.8 -0.27 0.77-0.18 1.62 0.22 1.96 0.29 0.26 0.53 0.35 0.94 0.35 0.33 0 0.57-0.1 0.98-0.28 0.41-0.18 0.67-0.35 1.02-0.62 0.34-0.25 1.23-1.03 1.23-1.1C171.45 212.99 171.41 212.94 171.31 212.94L171.31 212.94zM179.05 212.76c-0.21 0.72-0.13 1.62 0.26 1.96 0.28 0.26 0.66 0.35 1.07 0.35 0.33 0 0.58-0.1 0.99-0.28 0.4-0.18 0.67-0.35 1.02-0.62 0.33-0.25 1.23-1.03 1.23-1.1 0-0.09-0.05-0.14-0.14-0.14 -0.02 0-1.07 1.2-2.09 1.18 -0.52-0.01-0.65-0.27-0.65-0.83 0-0.2 0.09-0.6 0.27-1.2l0.13-0.44c0.23-0.67 0.48-1.37 0.79-2.12 0.3-0.74 0.62-1.45 0.89-2.18 0.29-0.75 0.48-1.24 0.65-1.71h-1.82c-0.39 1.17-0.77 2.21-1.11 3.15 -0.34 0.94-0.94 2.48-1.19 3.16L179.05 212.76 179.05 212.76zM156.18 211.96l-0.22 0.8c-0.22 0.72-0.17 1.62 0.22 1.96 0.28 0.26 0.61 0.35 1.02 0.35 0.33 0 0.57-0.1 0.98-0.28 0.41-0.18 0.67-0.35 1.02-0.62 0.34-0.25 1.24-1.03 1.24-1.1 0-0.09-0.05-0.14-0.14-0.14 -0.02 0-1.07 1.2-2.09 1.18 -0.51-0.01-0.68-0.21-0.68-0.77 0-0.2 0.12-0.66 0.3-1.26l0.13-0.44 0.27-0.95c0.21-0.65 0.46-1.38 0.74-2.18 0.28-0.8 0.58-1.63 0.88-2.49 0.3-0.85 0.6-1.7 0.89-2.54 0.3-0.84 0.58-1.62 0.83-2.35 0.26-0.73 0.49-1.37 0.68-1.91 0.19-0.55 0.33-0.96 0.42-1.22h-1.76c-0.39 1.25-0.79 2.5-1.2 3.74 -0.41 1.24-0.81 2.42-1.2 3.55 -0.38 1.13-0.74 2.18-1.09 3.17 -0.34 0.98-0.65 1.81-0.9 2.55L156.18 211.96 156.18 211.96z" fill="#666"/></svg>