<svg xmlns="http://www.w3.org/2000/svg" version="1.1" x="0" y="0" width="300" height="300" viewBox="0 0 300 300" xml:space="preserve"><style>.s0{fill:#666;}</style><path d="M154.9 88.1c2 0.6 4.1 0.4 6.1 0.9 1.9 0.4 3.8 0.6 5.6 1 2.8 0.6 3.3 2.2 1.5 4.4 -6.6 8.5-13.5 17-19.5 26 -2.3 3.4-4.4 7-6.5 10.6 -0.4 0.8-0.8 1.7-0.8 2.7 0.1 1.6 1.1 2.5 2.8 2.6 0.3 0 0.5 0 0.8 0 14.3 0 28.6 0 42.9 0 1.1 0 1.7-0.4 2.2-1.3 2.8-4.9 2.8-10.2 2-15.6 -1.6-10.1-7.8-16.8-16.3-21.8 -1.6-0.9-3.2-1.8-4.9-2.6 0-0.1 0-0.2 0-0.3 2.6-3.7 1.2-3.3 5.2-1.6 10.1 4.2 17.9 11 21.8 21.5 3.8 9.9 2.2 19.2-3.3 28 -0.9 1.4-2.2 2.2-4 2.2 -17.1 0-34.2 0-51.3 0 -2.4 0-4.8-0.2-7.2-0.9 -5.9-2-8.4-6.5-6.6-12.5 0.8-2.7 2.2-5.1 3.8-7.4 6.8-9.8 13.8-19.5 21.1-28.9 0.4-0.6 1.3-1.2 0.8-2.1 -0.4-0.9-1.3-0.8-2.2-0.7 -9.2 0.3-18.1 2-26.1 6.7 -8.3 4.8-14.4 11.7-16.3 21.2 -2.2 10.8 1.4 19.9 9.3 27.3 5.7 5.2 12.5 8 20 9.3 11.8 2.1 23.4 1.6 34.7-2.3 4.3-1.5 8.3-3.7 11.7-6.6 0.4-0.3 0.6-0.6 1.2-0.6 2.3 0 4.7 0 7.4 0 -3.6 3.9-7.5 6.6-11.9 8.8 -6.8 3.5-14.2 5.2-21.7 5.9 -9.8 0.9-19.5 0.4-28.9-2.2 -9.6-2.6-18.1-7.2-24-15.4 -10-13.9-7.5-32.2 5.6-43.7 7-6.1 15.3-9.4 24.3-11.1 2.3-0.4 4.7-0.6 7-1 0.3 0 0.5 0 0.6-0.4 0.6 0 1.3 0 1.9 0 1.2 0.3 2.3 0.3 3.5 0C149.9 88.1 152.4 88.1 154.9 88.1z" fill="#666"/><path d="M147.4 88.1c-1.2 0.4-2.3 0.6-3.5 0C145 88.1 146.2 88.1 147.4 88.1z" fill="#3F3F3F"/><path d="M245.9 193.3c-0.7-3.3-3.9-5.7-7.7-5.7 -6.8 0-13.6-0.1-20.4 0 -1.5 0-1.6-0.4-1-1.6 1.1-2.2 2.7-3.4 5.2-3.4 6 0 12.1 0 18.1 0 3.7 0 3.6 0 3.4-3.7 -0.1-0.8-0.4-1.1-1.1-1.1 -7.5 0-14.9-0.1-22.5 0.1 -7.5 0.2-13.1 5.6-13.7 12.8 -0.1 1.2 0.2 1.6 1.4 1.6 1.3-0.1 2.5 0 3.8 0 7.3 0 14.6 0 21.9 0 1.6 0 2.9 1.1 3 2.5 0.1 1.4-1.1 2.5-2.8 2.7 -0.3 0-0.6 0-1 0 -9.1 0-18.2 0-27.3 0 -1.2 0-1.4-0.4-1.4-1.5 0.1-5.6 0-11.1 0.1-16.7 0-1.2-0.4-1.4-1.4-1.3 -1.8 0.1-3.7 0.1-5.5 0 -1.3-0.1-1.8 0.2-1.8 1.7 0.1 5.5 0 11 0.1 16.6 0 1.1-0.2 1.4-1.3 1.4 -4.8-0.1-9.4 0-14.2 0 -4.2 0-5.7-1.5-5.7-5.7 0-4.2 0-8.5 0-12.8 0-1-0.3-1.3-1.3-1.3 -4.1 0.1-8.2 0-12.3 0 -0.6 0-1.1 0.2-1.6 0.5 -3.5 2.6-7.4 4.8-11 7.1 -0.8 0.5-1.3 0.5-2.2-0.1 -3-2.2-6-4.4-9-6.6 -0.7-0.5-1.5-0.8-2.4-0.8 -10.5 0-21 0-31.5 0 -1.8 0-3.6 0.1-5.3 0.5 -5.4 1.3-9 4.7-11.1 9.7 -0.8 1.9-0.7 1.9 1.3 1.9 1.3 0 2.4 0 4 0 -2.2 1.8-3.9 3.8-4.8 6.2 -0.4 0.8-0.8 1.1-1.6 1.1 -4.2 0-8.4 0-12.7 0 -2.2 0-4.3 0.2-6.5-0.1 -3.1-0.4-4.8-2.4-4.8-5.5 0-4.2 0-8.4 0-12.7 0-1.1-0.3-1.3-1.3-1.3 -2.4 0.1-4.6 0.1-7.3 0.1 0 5.6 0 11.1 0 16.7 0 3.2 2.4 4.8 5.1 6.1 2.6 1.3 5.5 1.1 8.3 1.1 21.4 0 42.7 0 64 0 0.8 0 1.5 0.1 2.2-0.4 3.1-2.2 6.6-4 9.9-6.1 1.1-0.7 1.9-0.5 2.9 0.3 2.5 2 5.2 3.8 7.8 5.7 1.1 0.8 2.2 1.2 3.5 1.2 3-0.1 6 0 9 0 0.6 0 1.7 0.4 1.9-0.3 0.4-0.9-0.7-1.3-1.3-1.7 -4.4-3.3-8.8-6.7-13.2-10.1 -1.1-0.9-1.1-1 0-1.8 3.4-2.2 6.6-4.6 10.2-6.6 0.4-0.3 0.9-0.8 1.4-0.5 0.6 0.3 0.4 1 0.4 1.5 0 4 0 7.9 0 11.9 0 3.1 1.3 5 4.2 6.4 2.1 1 4.3 0.6 6.5 0.6 4 0 8.2 0 12.2 0 5.7 0 11.6 0 17.3 0 1.3 0 2.7 0.3 4 0.3 4.3-0.1 8.6 0.3 12.9 0 5.5 0 11 0.1 16.4 0C243.5 201.9 246.9 197.9 245.9 193.3zM130 196.7c-0.5 0.4-1.2 0.4-1.8 0.4 -9.7 0-19.5 0-29.2 0 -1.5 0-1.4-0.6-0.9-1.5 1.1-2.1 2.7-3.4 5.2-3.4 6 0 11.9 0 18 0 1.2 0 1.5-0.3 1.4-1.4 -0.1-3.6 0-3.6-3.6-3.6 -6.8 0-13.6 0-20.4 0 -1.5 0-1.7-0.3-0.9-1.5 1.2-1.8 2.6-2.9 4.9-2.9 6.4 0.1 12.8 0 19.2 0 2.5 0 2.5 0 2.8-2.6 4.8 3.5 9.6 7 14.5 10.6C136.1 192.8 133.1 194.7 130 196.7z" fill="#666"/></svg>