<svg xmlns="http://www.w3.org/2000/svg" version="1.1" x="0" y="0" width="300" height="300" viewBox="0 0 300 300" xml:space="preserve"><style>.s0{fill:#666;}</style><path d="M176.3 100.4c10 0 18.1 42.1 18.1 94H208.9c0-55.9-14.5-101.3-32.6-101.3 -10.2 0-19.4 13.6-25.3 34.9 -6-21.3-15.1-34.9-25.3-34.9 -17.9 0-32.6 45.4-32.6 101.3h14.5c0-51.9 8.1-94 18.1-94 10 0 18.1 38.9 18.1 86.8h14.5C158.2 139.3 166.4 100.4 176.3 100.4zM216.1 187.3c2 0 3.6 1.6 3.6 3.6 0 2.1-1.7 3.7-3.6 3.7 -2 0-3.7-1.6-3.7-3.7C212.5 188.8 214.1 187.3 216.1 187.3zM216.1 193.9c1.7 0 3-1.3 3-3.1s-1.3-3.1-3-3.1c-1.7 0-3 1.3-3 3.1S214.5 193.9 216.1 193.9zM214.7 188.8h1.7c1 0 1.5 0.4 1.5 1.2 0 0.7-0.5 1.1-1.1 1.2l1.2 1.8h-0.7l-1.2-1.8h-0.7v1.8h-0.7v-4.2H214.7zM215.4 190.6h0.7c0.6 0 1.1 0 1.1-0.7 0-0.6-0.5-0.7-0.9-0.7h-0.8V190.6L215.4 190.6z" fill="#666"/></svg>