<svg xmlns="http://www.w3.org/2000/svg" version="1.1" x="0" y="0" width="300" height="300" viewBox="0 0 300 300" xml:space="preserve"><style>.s0{fill:#666;}</style><path d="M130.9 153.2h-22.1c0 4.3 2.2 6.6 6.6 6.6 2.2 0 3.9-0.7 5-2.7H130.5c-1.7 7-8.3 10.1-15 10.1 -9.8 0-17.1-5.5-17.1-15.7 0-9.8 6.7-15.8 16.4-15.8 10.3 0 16.2 6.3 16.2 16.4V153.2zM121.2 147.1c-0.5-2.8-3.1-4.7-5.9-4.7 -3.1 0-5.6 1.6-6.2 4.7H121.2zM149.4 166.7h-10.5v-20.9h-5.2v-8.6h5.2v-8.9h10.5v8.9h5.2v8.6h-5.2V166.7zM197.4 166.7H186.9v-31.6h10.5V166.7zM218.4 166.5h-10.5v-19.9h-5.2v-8.6h5.2v-1.5c0-4.1 0.1-7.1 3-10.4 2.6-3.1 6.3-4.7 10.3-4.7 1.6 0 3.1 0.3 4.5 1v9c-1.2-0.5-2.3-1-3.7-1 -2.7 0-3.6 1.6-3.6 5v2.6h6.3v8.6h-6.3V166.5zM259.5 153.2h-22.1c0 4.3 2.2 6.6 6.6 6.6 2.2 0 3.9-0.7 5-2.7h10.1c-1.7 7-8.3 10.1-15 10.1 -9.8 0-17.1-5.5-17.1-15.7 0-9.8 6.7-15.8 16.4-15.8 10.3 0 16.2 6.3 16.2 16.4V153.2zM249.8 147.2c-0.5-2.8-3.1-4.7-5.9-4.7 -3.1 0-5.6 1.6-6.2 4.7H249.8z" fill="#666"/><circle cx="192.1" cy="124.6" r="6.5" fill="#666"/><path d="M51 125.3h10.6l8.4 22.1 8.9-22.1h10.7l6.3 41.4H85.1l-3-23.8h-0.1l-9.9 23.8h-4.3l-9.5-23.8h-0.1l-3.5 23.8H44L51 125.3z" fill="#666"/><path d="M169.9 157.4H183v9.3h-24.1v-42.1h10.9V157.4z" fill="#666"/></svg>