<svg xmlns="http://www.w3.org/2000/svg" version="1.1" x="0" y="0" width="300" height="300" viewBox="0 0 300 300" xml:space="preserve"><path d="M91.5 79.5v133.8h5.4v-48.5h10.3c3.4 0 8.2 0.4 10.6 4 2 3 2.4 6.6 2.4 10.5 0 5.3-0.9 11-4.9 13.4 -3 1.9-6.5 1.4-9.8 1.5v19h23.9c-3.8-2.2-5.2-7.9-5.2-14.5v-19.7c0-10.4 3.7-15.3 11.6-15.3 7.4 0 11.7 4.1 11.7 13.9v3.6h-8.7v-2.7c0-4.1-0.4-6.2-2.7-6.2 -2.7-0.1-3.4 1.8-3.4 5v23.8c0 2.7 0.9 4.3 3.2 4.3 3 0 3-3 3-6.2v-3.7h-3.1v-8.7h11.7v14.4l36.5-120.1v132.2h4.8v-48.5h19.8v9.7h-11.2v8.8h10.8v9.7h-10.8v10.4h11.7v10h1.7V79.5H91.5L91.5 79.5zM110.5 184.4c-1.4 1.4-3.3 1.1-4.9 1.2v-12.1h0.9c1.4 0 2.6 0 3.4 0.4 1.4 0.9 1.6 3.7 1.6 5.6C111.5 181.2 111.4 183.1 110.5 184.4L110.5 184.4zM172.9 190.2v4.8c0 0-5.3-6.9-6.2-8.4 -0.9-1.4-1.4-2.5-1.4-3.8s1-2.9 2.5-2.9c1.5 0 2.7 1.1 2.4 4.5h6.9c0 0 0.8-11.5-9.1-11.5s-10.4 8.7-10.4 8.7 -0.6 4.5 3.1 8.9c0 0-6.9 3.7-6.9 12.3 0 8.7 8.1 10.7 10.8 10.7s14.9 0 14.9 0v-23.2h-6.6V190.2zM161.6 202.2c0-4.3 3.2-5.6 3.2-5.6l6.9 9.1C167.9 209.7 161.6 206.5 161.6 202.2z" fill="#676767"/></svg>