<svg xmlns="http://www.w3.org/2000/svg" version="1.1" x="0" y="0" width="300" height="300" viewBox="0 0 300 300" xml:space="preserve"><style>.s0{fill:#666;}</style><path d="M127.7 133.4v2h-11v10.4h10.4v2h-10.4v11.4h11v2h-16.3V133.4H127.7zM145 133.4c4 0 7.2 1.4 9.6 4.2 2.4 2.8 3.8 5.9 4.1 9.3 0 0.2 0 0.4 0 0.7 0 0.2 0 0.5 0 0.7 0 3.3-1.1 6.2-3.4 8.8 -2.2 2.6-5.8 3.9-10.7 3.9h-9.7V133.4H145zM144 159.1c3.2 0 5.5-1.2 7.1-3.5s2.3-4.9 2.3-7.8c0-0.1 0-0.3 0-0.5 0-0.2 0-0.3 0-0.5 -0.1-2.9-1.1-5.5-2.7-7.9 -1.7-2.4-4-3.6-7-3.6h-3.7v23.7H144zM169.9 133.4v27.7h-5.3v-27.7H169.9zM179.5 155.8c0.3 0.9 0.9 1.7 1.9 2.4 1 0.7 2 1.1 3.1 1.3 0.2 0 0.3 0.1 0.5 0.1 0.2 0 0.3 0 0.5 0 1.1 0 2.2-0.3 3.1-1 1-0.7 1.5-1.8 1.6-3.3v-0.7c0-1.5-0.6-2.6-1.6-3.3 -1.1-0.7-2.4-1.4-3.8-2.1 -0.2-0.1-0.4-0.1-0.6-0.2 -0.2-0.1-0.4-0.2-0.6-0.3 -1.7-0.7-3.2-1.6-4.6-2.7 -1.4-1.1-2.1-2.8-2.1-5.1 0-2.7 0.9-4.8 2.7-6.1 1.8-1.3 3.9-2 6.1-2 0.2 0 0.5 0 0.7 0 0.2 0 0.4 0 0.6 0.1 1.5 0.2 2.9 0.7 4.3 1.4 1.4 0.8 2.4 1.8 3.1 3.2l-2 1.7c-0.3-1.1-0.9-2-1.8-2.7 -0.9-0.7-1.8-1.1-2.9-1.3 -0.2 0-0.3-0.1-0.5-0.1 -0.2 0-0.3 0-0.5 0 0 0-0.1 0-0.1 0 0 0 0 0-0.1 0 -1.1 0-2.1 0.4-3 1.1 -0.9 0.7-1.4 1.8-1.6 3.3l-0.1 0.3c0 1.1 0.5 2 1.4 2.6 0.9 0.7 2 1.3 3.3 1.8 0.3 0.1 0.7 0.3 1 0.4 0.4 0.1 0.7 0.3 1.1 0.4 1.7 0.7 3.2 1.7 4.6 2.9 1.4 1.2 2.1 2.9 2.1 5.3v0.3c0 2.3-1 4.2-3 5.8 -2 1.6-4.2 2.4-6.6 2.5 -0.1 0-0.2 0-0.2 0 -0.1 0-0.1 0-0.2 0 -0.1 0-0.1 0-0.2 0s-0.1 0-0.2 0c-1.4-0.1-2.8-0.4-4.2-1.1 -1.4-0.7-2.5-1.8-3.4-3.2L179.5 155.8zM222.4 135.9c1.9 1.9 3.2 3.9 4 6.1 0.4 1 0.6 2.1 0.7 3 0.1 1 0.2 1.9 0.2 2.7v1c-0.2 3.4-1.1 6.1-2.8 8 -1.7 1.9-3.5 3.2-5.4 4 -0.9 0.3-1.8 0.6-2.7 0.7 -0.9 0.2-1.7 0.2-2.4 0.2l-0.7 0c-3.7 0-6.9-1.4-9.5-4 -2.6-2.6-4-6.1-4.2-10.3 0-0.1 0-0.1 0-0.2 0 0 0-0.1 0-0.2 0 0 0-0.1 0-0.1 0-0.1 0-0.1 0-0.1 0-3.6 1.2-6.8 3.7-9.7 2.5-2.9 5.8-4.3 10-4.3h0.7C217.7 133 220.5 134 222.4 135.9zM207.9 137.4c-1.5 1.8-2.3 5.1-2.3 10 0 0.1 0 0.3 0 0.5s0 0.3 0 0.5c0.1 2.9 0.8 5.5 2 7.9 1.2 2.4 3.1 3.6 5.6 3.6 0.1 0 0.1 0 0.2 0 0.1 0 0.2 0 0.2 0 0.1 0 0.1 0 0.2 0 0.1 0 0.1 0 0.2 0 2.8-0.1 4.8-1.5 5.9-4 1.1-2.5 1.7-5.3 1.8-8.3 0-0.6-0.1-1.5-0.2-2.5 -0.1-1.1-0.3-2.2-0.7-3.3 -0.5-1.6-1.3-3.1-2.3-4.4 -1.1-1.4-2.6-2.1-4.5-2.3C211.5 134.7 209.5 135.6 207.9 137.4zM237.9 133.4l14.4 18.7v-18.7h2.3v27.7h-2.3l-16.7-21.7v21.7h-2.3v-27.7H237.9z" fill="#666"/><path d="M112.6 125.7c0.1 0.3 0.3 0.6 0.6 0.8 0.3 0.2 0.7 0.4 1 0.4 0.1 0 0.1 0 0.2 0 0.1 0 0.1 0 0.2 0 0.4 0 0.7-0.1 1-0.3 0.3-0.2 0.5-0.6 0.5-1.1v-0.2c0-0.5-0.2-0.8-0.5-1.1 -0.4-0.2-0.8-0.5-1.3-0.7 -0.1 0-0.1 0-0.2-0.1 -0.1 0-0.1-0.1-0.2-0.1 -0.6-0.2-1.1-0.5-1.5-0.9 -0.5-0.3-0.7-0.9-0.7-1.6 0-0.9 0.3-1.5 0.9-2 0.6-0.4 1.3-0.6 2-0.6 0.1 0 0.2 0 0.2 0 0.1 0 0.1 0 0.2 0 0.5 0.1 1 0.2 1.4 0.5 0.5 0.3 0.8 0.6 1 1l-0.6 0.5c-0.1-0.3-0.3-0.6-0.6-0.9 -0.3-0.2-0.6-0.4-0.9-0.4 -0.1 0-0.1 0-0.2 0 -0.1 0-0.1 0-0.2 0 0 0 0 0 0 0s0 0 0 0c-0.4 0-0.7 0.1-1 0.4 -0.3 0.2-0.5 0.6-0.5 1.1l0 0.1c0 0.4 0.1 0.6 0.4 0.9 0.3 0.2 0.7 0.4 1.1 0.6 0.1 0 0.2 0.1 0.3 0.1s0.2 0.1 0.4 0.1c0.6 0.2 1.1 0.6 1.5 0.9 0.5 0.4 0.7 1 0.7 1.7v0.1c0 0.7-0.3 1.4-1 1.9 -0.7 0.5-1.4 0.8-2.2 0.8 0 0-0.1 0-0.1 0s0 0-0.1 0c0 0 0 0-0.1 0 0 0 0 0-0.1 0 -0.5 0-0.9-0.1-1.4-0.4s-0.8-0.6-1.1-1L112.6 125.7zM126.2 119.2c0.6 0.6 1.1 1.3 1.3 2 0.1 0.3 0.2 0.7 0.2 1 0 0.3 0.1 0.6 0.1 0.9v0.3c-0.1 1.1-0.4 2-0.9 2.6 -0.5 0.6-1.1 1-1.8 1.3 -0.3 0.1-0.6 0.2-0.9 0.2 -0.3 0.1-0.6 0.1-0.8 0.1l-0.2 0c-1.2 0-2.3-0.4-3.1-1.3 -0.9-0.9-1.3-2-1.4-3.3 0 0 0 0 0 0 0 0 0 0 0-0.1 0 0 0 0 0 0 0 0 0 0 0 0 0-1.2 0.4-2.2 1.2-3.1 0.8-0.9 1.9-1.4 3.3-1.4h0.2C124.7 118.3 125.6 118.6 126.2 119.2zM121.4 119.7c-0.5 0.6-0.8 1.7-0.8 3.2 0 0 0 0.1 0 0.2 0 0.1 0 0.1 0 0.2 0 0.9 0.3 1.8 0.6 2.5s1 1.2 1.8 1.2c0 0 0 0 0.1 0 0 0 0.1 0 0.1 0 0 0 0 0 0.1 0 0 0 0 0 0.1 0 0.9 0 1.6-0.5 1.9-1.3s0.6-1.7 0.6-2.7c0-0.2 0-0.5-0.1-0.8s-0.1-0.7-0.2-1.1c-0.2-0.5-0.4-1-0.8-1.4 -0.3-0.4-0.8-0.7-1.5-0.8C122.6 118.9 122 119.2 121.4 119.7zM130.8 124.5c0 0.6 0.2 1.2 0.6 1.6 0.4 0.4 0.8 0.6 1.3 0.7 0 0 0.1 0 0.1 0 0 0 0.1 0 0.1 0 0 0 0 0 0 0 0 0 0 0 0 0 0.5 0 1-0.2 1.4-0.6 0.4-0.4 0.6-1 0.6-1.7v-5.9h0.7v6.5c0 0.9-0.3 1.6-1 2.1 -0.7 0.5-1.4 0.7-2.2 0.7 0 0 0 0-0.1 0s0 0-0.1 0c-0.8 0-1.6-0.3-2.3-0.8 -0.7-0.5-1-1.3-1-2.2v-6.2h1.7V124.5zM142.5 118.4v0.7h-1.9v8.3h-1.8v-8.3h-1.9v-0.6H142.5zM145.6 118.4v4h3.6v-4h1.8v9h-1.8v-4.2h-3.6v4.2h-1.8v-9H145.6zM158.6 118.4v0.7h-3.6v3.4h3.4v0.6h-3.4v3.7h3.6v0.6h-5.4v-9H158.6zM163.9 118.4c0.9 0 1.6 0.2 2.1 0.7 0.5 0.5 0.7 1 0.8 1.6 0 0 0 0.1 0 0.1s0 0.1 0 0.1c0 0 0 0 0 0.1 0 0 0 0 0 0 0 0.5-0.2 1-0.6 1.5s-1 0.7-1.7 0.7l2.4 4.1h-2l-2.4-4.6c0 0 0.1 0 0.1 0 0 0 0 0 0.1 0 0 0 0 0 0 0 0 0 0 0 0 0 0 0 0.1 0 0.1 0 0 0 0.1 0 0.1 0 0.7 0 1.2-0.2 1.6-0.6 0.4-0.4 0.6-0.8 0.6-1.2 0 0 0 0 0 0 0 0 0 0 0 0 0 0 0 0 0-0.1 0 0 0 0 0-0.1 0-0.5-0.2-0.9-0.6-1.2s-0.9-0.6-1.7-0.6h-0.8v8.4h-1.6v-9H163.9zM169.8 118.4l4.7 6.1v-6.1h0.8v9h-0.8l-5.5-7v7h-0.8v-9H169.8zM189.2 120c-0.1-0.1-0.3-0.3-0.4-0.4 -0.3-0.2-0.6-0.4-0.9-0.5 -0.3-0.1-0.6-0.2-0.9-0.2h-0.2c-1 0-1.8 0.4-2.3 1.2 -0.5 0.8-0.8 1.7-0.8 2.7 0 0 0 0 0 0.1 0 0 0 0 0 0 0 0 0 0.1 0 0.1 0 0 0 0.1 0 0.1 0 0.7 0.2 1.4 0.6 2.1 0.3 0.7 0.8 1.1 1.4 1.4 0.1 0.1 0.2 0.1 0.4 0.2 0.1 0 0.3 0.1 0.4 0.1 0.1 0 0.2 0 0.3 0 0.1 0 0.2 0 0.3 0 0.1 0 0.1 0 0.2 0 0.1 0 0.1 0 0.2 0 0.5-0.1 1-0.3 1.5-0.6 0.5-0.3 0.9-0.8 1.2-1.3l0.7 0.3c-0.1 0.1-0.1 0.2-0.2 0.3 -0.1 0.1-0.1 0.2-0.2 0.3 -0.3 0.4-0.8 0.8-1.3 1.2s-1.3 0.5-2.2 0.5c-0.2 0-0.3 0-0.5 0 -0.2 0-0.3 0-0.5 0 -1.2-0.2-2.2-0.7-2.9-1.7 -0.7-0.9-1-1.9-1-3 0-0.1 0-0.3 0-0.4 0-0.1 0-0.3 0.1-0.4 0-0.2 0.1-0.3 0.1-0.4s0.1-0.3 0.1-0.4c0-0.1 0-0.1 0.1-0.2 0-0.1 0.1-0.1 0.1-0.2 0.3-0.6 0.9-1.2 1.7-1.7 0.8-0.5 1.6-0.8 2.6-0.8 0.3 0 0.6 0 0.9 0.1 0.3 0.1 0.6 0.2 1 0.3 0.3 0.1 0.6 0.3 0.9 0.6 0.3 0.2 0.6 0.5 0.9 0.8l-0.6 0.4C189.5 120.3 189.4 120.1 189.2 120zM194.6 118l4 9.4h-1.9l-1-2.3h-3.1l-0.9 2.3h-0.9L194.6 118zM195.5 124.4l-1.4-3.1 -1.2 3.1H195.5zM201.5 118.4v8.2h3.7v0.8h-5.4v-9H201.5zM208 118.4v9h-1.8v-9H208zM215.6 118.4v0.7h-3.4v3.4h3.1v0.6h-3.1v4.3h-1.8v-9H215.6zM223.5 119.2c0.6 0.6 1.1 1.3 1.3 2 0.1 0.3 0.2 0.7 0.2 1s0.1 0.6 0.1 0.9v0.3c-0.1 1.1-0.4 2-0.9 2.6 -0.6 0.6-1.2 1-1.8 1.3 -0.3 0.1-0.6 0.2-0.9 0.2 -0.3 0.1-0.6 0.1-0.8 0.1l-0.2 0c-1.2 0-2.3-0.4-3.2-1.3 -0.9-0.9-1.3-2-1.4-3.3 0 0 0 0 0 0 0 0 0 0 0-0.1 0 0 0 0 0 0 0 0 0 0 0 0 0-1.2 0.4-2.2 1.2-3.1 0.8-0.9 1.9-1.4 3.3-1.4h0.2C221.9 118.3 222.9 118.6 223.5 119.2zM218.7 119.7c-0.5 0.6-0.8 1.7-0.8 3.2 0 0 0 0.1 0 0.2 0 0.1 0 0.1 0 0.2 0 0.9 0.3 1.8 0.7 2.5 0.4 0.8 1 1.2 1.9 1.2 0 0 0 0 0.1 0 0 0 0.1 0 0.1 0 0 0 0 0 0.1 0 0 0 0 0 0.1 0 0.9 0 1.6-0.5 1.9-1.3 0.4-0.8 0.6-1.7 0.6-2.7 0-0.2 0-0.5-0.1-0.8 0-0.3-0.1-0.7-0.2-1.1 -0.2-0.5-0.4-1-0.8-1.4s-0.8-0.7-1.5-0.8C219.9 118.9 219.2 119.2 218.7 119.7zM230 118.4c0.9 0 1.6 0.2 2.1 0.7 0.5 0.5 0.7 1 0.8 1.6 0 0 0 0.1 0 0.1s0 0.1 0 0.1c0 0 0 0 0 0.1 0 0 0 0 0 0 0 0.5-0.2 1-0.6 1.5 -0.4 0.4-1 0.7-1.7 0.7l2.5 4.1h-2l-2.5-4.6c0 0 0.1 0 0.1 0 0 0 0 0 0.1 0s0 0 0 0c0 0 0 0 0 0 0 0 0.1 0 0.1 0 0 0 0.1 0 0.1 0 0.7 0 1.2-0.2 1.6-0.6 0.4-0.4 0.6-0.8 0.6-1.2 0 0 0 0 0 0 0 0 0 0 0 0 0 0 0 0 0-0.1 0 0 0 0 0-0.1 0-0.5-0.2-0.9-0.6-1.2 -0.4-0.4-0.9-0.6-1.7-0.6h-0.8v8.4h-1.7v-9H230zM236 118.4l4.8 6.1v-6.1h0.8v9h-0.8l-5.6-7v7h-0.8v-9H236zM245.5 118.4v9h-1.8v-9H245.5zM250.6 118l4 9.4h-1.9l-1-2.3h-3.1l-0.9 2.3h-0.9L250.6 118zM251.4 124.4l-1.4-3.1 -1.2 3.1H251.4z" fill="#666"/><polygon points="88.4 108.5 88.4 160.9 36 160.9 36 170 97.5 170 97.5 108.5 " fill="#666"/><polygon points="36 108.5 36 160.9 36.4 160.9 61.3 155.3 36.9 146.4 61.5 148.2 43 134.3 64.4 142.3 44.3 116.7 69.9 136.5 62.4 115.9 75.2 133.7 74.3 109.1 82.3 133.5 88.3 108.9 88.4 108.8 88.4 108.5 " fill="#666"/><path d="M36.2 187.1c0.1 0 0.3 0 0.4-0.1 0.1 0 0.2-0.1 0.3-0.2 0.1-0.1 0.1-0.2 0.2-0.4 0.1-0.1 0.1-0.3 0.2-0.5l2.8-6.7c0-0.1 0.1-0.1 0.1-0.1 0 0 0.1 0 0.1 0.1l2.8 7c0.1 0.2 0.1 0.3 0.2 0.5 0.1 0.1 0.1 0.2 0.2 0.3 0.1 0.1 0.1 0.1 0.2 0.2 0.1 0 0.2 0 0.3 0v0.3c-0.2 0-0.4 0-0.7 0 -0.2 0-0.4 0-0.7 0 -0.2 0-0.4 0-0.7 0 -0.2 0-0.4 0-0.7 0v-0.3c0.1 0 0.1 0 0.2 0 0.1 0 0.1 0 0.2 0 0.1 0 0.1 0 0.2-0.1 0 0 0.1-0.1 0.1-0.2 0-0.1 0-0.2-0.1-0.3 0-0.1-0.1-0.2-0.1-0.3l-0.6-1.5h-2.9l-0.6 1.6c-0.1 0.2-0.1 0.4-0.1 0.5 0 0.1 0 0.2 0.1 0.2 0 0.1 0.1 0.1 0.2 0.1 0.1 0 0.1 0 0.2 0 0.1 0 0.2 0 0.2 0v0.3c-0.2 0-0.4 0-0.6 0 -0.2 0-0.4 0-0.6 0 -0.2 0-0.3 0-0.5 0 -0.2 0-0.3 0-0.5 0V187.1zM39.9 180.9l-1.3 3.3h2.6L39.9 180.9zM44.4 187.1h0.2c0.2 0 0.3 0 0.4-0.1 0.1-0.1 0.1-0.3 0.1-0.6v-3c0-0.3 0-0.5-0.1-0.6 -0.1-0.1-0.3-0.2-0.5-0.2H44.3v-0.3c0.3 0 0.5-0.1 0.8-0.2 0.3-0.1 0.5-0.2 0.7-0.3h0.3v1.1h0c0.1-0.1 0.2-0.2 0.3-0.3 0.1-0.1 0.3-0.2 0.4-0.3 0.2-0.1 0.3-0.2 0.5-0.3s0.4-0.1 0.6-0.1c0.5 0 0.9 0.2 1.1 0.5 0.3 0.3 0.4 0.8 0.4 1.5v2.6c0 0.3 0 0.5 0.1 0.6 0.1 0.1 0.2 0.1 0.4 0.1h0.2v0.3c-0.2 0-0.4 0-0.6 0 -0.2 0-0.4 0-0.6 0s-0.4 0-0.6 0c-0.2 0-0.4 0-0.6 0v-0.3h0.2c0.2 0 0.3 0 0.4-0.1 0.1-0.1 0.1-0.3 0.1-0.6v-2.6c0-0.3-0.1-0.6-0.2-0.8 -0.2-0.2-0.4-0.3-0.8-0.3 -0.3 0-0.5 0.1-0.8 0.2 -0.2 0.1-0.5 0.2-0.7 0.4v3.2c0 0.3 0 0.5 0.1 0.6 0.1 0.1 0.2 0.1 0.4 0.1h0.2v0.3c-0.2 0-0.4 0-0.6 0 -0.2 0-0.4 0-0.6 0s-0.4 0-0.6 0c-0.2 0-0.4 0-0.6 0V187.1z" fill="#666"/><path d="M214.4 182c0-0.3-0.1-0.6-0.3-0.9s-0.3-0.6-0.5-0.8c-0.2-0.2-0.4-0.4-0.7-0.6 -0.3-0.1-0.5-0.2-0.9-0.2 -0.4 0-0.7 0.1-1.1 0.2s-0.6 0.3-0.9 0.6c-0.3 0.3-0.5 0.6-0.6 1.1 -0.2 0.4-0.2 1-0.2 1.6 0 0.6 0.1 1.1 0.3 1.6s0.4 0.9 0.7 1.2 0.6 0.6 1 0.7c0.4 0.2 0.7 0.3 1.1 0.3 0.3 0 0.5 0 0.8-0.1 0.3-0.1 0.5-0.2 0.7-0.3 0.2-0.1 0.4-0.3 0.6-0.4 0.2-0.2 0.3-0.3 0.4-0.5l0.3 0.1c-0.2 0.3-0.4 0.5-0.6 0.8 -0.2 0.2-0.5 0.4-0.7 0.6s-0.6 0.3-0.9 0.4c-0.3 0.1-0.7 0.1-1 0.1 -0.5 0-1-0.1-1.5-0.3 -0.5-0.2-0.9-0.5-1.2-0.8 -0.3-0.3-0.6-0.7-0.8-1.2s-0.3-1-0.3-1.5c0-0.7 0.1-1.3 0.3-1.9 0.2-0.6 0.5-1 0.8-1.4s0.7-0.7 1.2-0.9c0.5-0.2 1-0.3 1.5-0.3 0.2 0 0.4 0 0.6 0 0.2 0 0.3 0.1 0.5 0.1 0.3 0.1 0.5 0.1 0.7 0.2 0.2 0.1 0.4 0.1 0.5 0.1 0.2 0 0.4 0 0.6-0.1 0 0.1 0 0.1 0 0.2 0 0.1 0 0.1 0 0.2 0 0.1 0 0.2 0 0.4 0 0.2 0 0.4 0 0.6 0 0.2 0 0.4 0 0.6 0 0.2 0 0.4 0.1 0.6H214.4zM218.4 187.5c-0.3 0-0.6-0.1-0.9-0.2 -0.3-0.1-0.6-0.3-0.9-0.5 -0.3-0.2-0.5-0.5-0.7-0.9 -0.2-0.4-0.3-0.8-0.3-1.3 0-0.4 0.1-0.8 0.2-1.2s0.3-0.7 0.6-0.9c0.2-0.2 0.5-0.4 0.9-0.6 0.3-0.1 0.7-0.2 1-0.2 0.3 0 0.6 0.1 1 0.2 0.3 0.1 0.6 0.3 0.9 0.5 0.3 0.2 0.5 0.5 0.6 0.9 0.2 0.4 0.2 0.8 0.2 1.3 0 0.4-0.1 0.8-0.2 1.2 -0.2 0.4-0.4 0.7-0.6 0.9 -0.3 0.2-0.5 0.4-0.9 0.6C219 187.4 218.7 187.5 218.4 187.5zM216.6 184.2c0 0.3 0 0.6 0.1 0.9 0.1 0.3 0.2 0.6 0.4 0.9 0.2 0.3 0.4 0.5 0.6 0.7 0.3 0.2 0.5 0.3 0.9 0.3 0.1 0 0.3 0 0.5-0.1 0.2 0 0.3-0.1 0.5-0.3 0.1-0.1 0.3-0.3 0.4-0.6 0.1-0.3 0.2-0.6 0.2-1.1 0-0.3 0-0.7-0.1-1 -0.1-0.3-0.2-0.6-0.3-0.9 -0.1-0.3-0.3-0.5-0.6-0.6 -0.2-0.2-0.5-0.2-0.8-0.2 -0.1 0-0.3 0-0.4 0.1 -0.2 0-0.4 0.1-0.6 0.3 -0.2 0.1-0.3 0.3-0.5 0.6C216.7 183.4 216.6 183.8 216.6 184.2zM221.7 187.1h0.2c0.2 0 0.3 0 0.4-0.1s0.1-0.3 0.1-0.6v-3c0-0.3 0-0.5-0.1-0.6 -0.1-0.1-0.3-0.2-0.6-0.2h-0.2v-0.3c0.3 0 0.6-0.1 0.8-0.2 0.3-0.1 0.5-0.2 0.7-0.3h0.3v1h0c0.3-0.3 0.6-0.5 0.8-0.7 0.3-0.2 0.6-0.3 0.9-0.3 0.4 0 0.7 0.1 1 0.3 0.3 0.2 0.4 0.4 0.5 0.7 0.3-0.3 0.6-0.5 0.9-0.7 0.3-0.2 0.6-0.3 0.9-0.3 0.3 0 0.5 0 0.7 0.1 0.2 0.1 0.3 0.2 0.5 0.4 0.1 0.1 0.2 0.3 0.2 0.5 0 0.2 0.1 0.4 0.1 0.5v3c0 0.3 0 0.5 0.1 0.6 0.1 0.1 0.2 0.1 0.4 0.1h0.2v0.3c-0.2 0-0.4 0-0.6 0 -0.2 0-0.4 0-0.6 0s-0.4 0-0.6 0c-0.2 0-0.4 0-0.6 0v-0.3h0.2c0.2 0 0.3 0 0.4-0.1s0.1-0.3 0.1-0.6v-2.8c0-0.1 0-0.2 0-0.3 0-0.1-0.1-0.2-0.1-0.4 -0.1-0.1-0.2-0.2-0.3-0.3 -0.1-0.1-0.3-0.1-0.6-0.1 -0.1 0-0.3 0-0.4 0.1 -0.1 0.1-0.3 0.1-0.4 0.2 -0.1 0.1-0.2 0.1-0.3 0.2 -0.1 0.1-0.2 0.1-0.2 0.2v3.2c0 0.3 0 0.5 0.1 0.6 0.1 0.1 0.2 0.1 0.4 0.1h0.2v0.3c-0.2 0-0.4 0-0.6 0 -0.2 0-0.4 0-0.6 0s-0.4 0-0.6 0c-0.2 0-0.4 0-0.6 0v-0.3h0.2c0.2 0 0.3 0 0.4-0.1 0.1-0.1 0.1-0.3 0.1-0.6v-2.8c0-0.1 0-0.2 0-0.3s-0.1-0.2-0.1-0.4c-0.1-0.1-0.2-0.2-0.3-0.3 -0.1-0.1-0.3-0.1-0.6-0.1 -0.1 0-0.3 0-0.4 0.1 -0.1 0.1-0.3 0.1-0.4 0.2 -0.1 0.1-0.2 0.1-0.3 0.2s-0.2 0.1-0.2 0.2v3.2c0 0.3 0 0.5 0.1 0.6s0.2 0.1 0.4 0.1h0.2v0.3c-0.2 0-0.4 0-0.6 0 -0.2 0-0.4 0-0.6 0s-0.4 0-0.6 0c-0.2 0-0.4 0-0.6 0V187.1zM231.2 189.5h0.2c0.3 0 0.5-0.1 0.6-0.3 0.1-0.2 0.1-0.4 0.1-0.7v-5.2c0-0.3 0-0.5-0.1-0.6 -0.1-0.1-0.3-0.2-0.6-0.2h-0.2v-0.3c0.3 0 0.6-0.1 0.8-0.2s0.5-0.2 0.7-0.3h0.3v1.1h0c0.2-0.3 0.4-0.6 0.7-0.8s0.6-0.3 1-0.3c0.3 0 0.6 0.1 0.9 0.2s0.5 0.3 0.7 0.6c0.2 0.2 0.3 0.5 0.4 0.8 0.1 0.3 0.1 0.5 0.1 0.8 0 0.5-0.1 0.9-0.2 1.3 -0.1 0.4-0.3 0.7-0.5 1 -0.2 0.3-0.5 0.5-0.8 0.7 -0.3 0.2-0.6 0.2-1 0.2 -0.3 0-0.6-0.1-0.8-0.2 -0.2-0.1-0.4-0.3-0.5-0.4h0v1.9c0 0.3 0 0.5 0.1 0.7 0.1 0.2 0.3 0.3 0.6 0.3h0.2v0.3c-0.2 0-0.4 0-0.7 0 -0.2 0-0.5 0-0.7 0s-0.5 0-0.7 0c-0.2 0-0.5 0-0.7 0V189.5zM233.1 186.1c0.2 0.2 0.4 0.4 0.6 0.5 0.2 0.1 0.4 0.2 0.7 0.2 0.3 0 0.5-0.1 0.7-0.2 0.2-0.1 0.4-0.3 0.5-0.5 0.1-0.2 0.2-0.4 0.3-0.6 0.1-0.2 0.1-0.5 0.1-0.7 0-0.3 0-0.6-0.1-0.9 -0.1-0.3-0.2-0.5-0.3-0.7 -0.1-0.2-0.3-0.4-0.5-0.5s-0.5-0.2-0.8-0.2c-0.2 0-0.5 0.1-0.7 0.2 -0.2 0.1-0.4 0.3-0.6 0.5V186.1zM241 183.2c0-0.4-0.1-0.6-0.2-0.8 -0.1-0.1-0.4-0.2-0.7-0.2 -0.3 0-0.5 0.1-0.7 0.2 -0.2 0.1-0.3 0.3-0.3 0.7 0 0.1 0 0.2 0 0.3 0 0.1 0 0.2-0.1 0.2 0 0.1-0.1 0.1-0.1 0.1 -0.1 0-0.2 0-0.3 0 -0.2 0-0.4 0-0.4-0.1 -0.1-0.1-0.1-0.2-0.1-0.3 0-0.2 0.1-0.5 0.2-0.6 0.1-0.2 0.2-0.3 0.4-0.4 0.2-0.1 0.4-0.2 0.6-0.3 0.2-0.1 0.5-0.1 0.7-0.1 0.3 0 0.6 0 0.9 0.1 0.2 0.1 0.4 0.2 0.6 0.3 0.2 0.1 0.3 0.3 0.4 0.5 0.1 0.2 0.1 0.5 0.1 0.8v2.9c0 0.1 0 0.2 0 0.3 0 0.1 0.1 0.1 0.2 0.1 0.1 0 0.2 0 0.2-0.1 0.1 0 0.1-0.1 0.2-0.2l0.1 0.2c-0.1 0.1-0.3 0.3-0.5 0.4 -0.2 0.1-0.4 0.2-0.6 0.2 -0.1 0-0.2 0-0.3-0.1 -0.1-0.1-0.1-0.1-0.2-0.2s-0.1-0.2-0.1-0.3 0-0.2 0-0.2l0-0.2c-0.1 0.1-0.3 0.3-0.4 0.4 -0.1 0.1-0.3 0.2-0.5 0.3s-0.3 0.2-0.5 0.2c-0.2 0.1-0.4 0.1-0.5 0.1s-0.4 0-0.5-0.1c-0.2-0.1-0.3-0.2-0.4-0.3 -0.1-0.1-0.2-0.3-0.3-0.4 -0.1-0.2-0.1-0.3-0.1-0.5 0-0.3 0.1-0.6 0.2-0.8 0.1-0.2 0.3-0.4 0.6-0.6 0.3-0.2 0.6-0.3 1-0.4 0.4-0.1 0.9-0.2 1.5-0.3V183.2zM241 184.2c-0.2 0-0.4 0.1-0.7 0.2s-0.5 0.2-0.7 0.3 -0.4 0.3-0.6 0.5c-0.2 0.2-0.2 0.4-0.2 0.6 0 0.2 0.1 0.5 0.2 0.6 0.2 0.2 0.4 0.3 0.6 0.3 0.3 0 0.5-0.1 0.7-0.2 0.2-0.1 0.4-0.2 0.6-0.4V184.2zM243.2 187.1h0.2c0.2 0 0.3 0 0.4-0.1s0.1-0.3 0.1-0.6v-3c0-0.3 0-0.5-0.1-0.6 -0.1-0.1-0.3-0.2-0.5-0.2h-0.2v-0.3c0.3 0 0.6-0.1 0.8-0.2s0.5-0.2 0.7-0.3h0.3v1.1h0c0.1-0.1 0.2-0.2 0.3-0.3 0.1-0.1 0.3-0.2 0.5-0.3s0.4-0.2 0.5-0.3c0.2-0.1 0.4-0.1 0.6-0.1 0.5 0 0.9 0.2 1.2 0.5 0.3 0.3 0.4 0.8 0.4 1.5v2.6c0 0.3 0 0.5 0.1 0.6 0.1 0.1 0.2 0.1 0.4 0.1h0.2v0.3c-0.2 0-0.4 0-0.6 0 -0.2 0-0.4 0-0.6 0 -0.2 0-0.4 0-0.6 0 -0.2 0-0.4 0-0.6 0v-0.3h0.2c0.2 0 0.3 0 0.4-0.1 0.1-0.1 0.1-0.3 0.1-0.6v-2.6c0-0.3-0.1-0.6-0.2-0.8 -0.2-0.2-0.4-0.3-0.8-0.3 -0.3 0-0.5 0.1-0.8 0.2 -0.2 0.1-0.5 0.2-0.7 0.4v3.2c0 0.3 0 0.5 0.1 0.6s0.2 0.1 0.4 0.1h0.2v0.3c-0.2 0-0.4 0-0.6 0 -0.2 0-0.4 0-0.6 0s-0.4 0-0.6 0c-0.2 0-0.4 0-0.6 0V187.1zM250.2 183.2c-0.1-0.2-0.2-0.4-0.2-0.5 -0.1-0.1-0.1-0.2-0.2-0.3 -0.1-0.1-0.1-0.1-0.2-0.1s-0.2 0-0.3 0v-0.3c0.2 0 0.4 0.1 0.6 0.1 0.2 0 0.4 0 0.6 0 0.2 0 0.4 0 0.6 0 0.2 0 0.4 0 0.6-0.1v0.3c-0.1 0-0.1 0-0.2 0 -0.1 0-0.1 0-0.2 0 -0.1 0-0.1 0-0.2 0.1 0 0-0.1 0.1-0.1 0.1 0 0.1 0 0.2 0.1 0.3s0.1 0.3 0.2 0.6l1.1 2.6h0l0.9-2.9c0.1-0.2 0.1-0.3 0.1-0.4 0-0.1 0-0.2 0-0.2 0-0.1 0-0.1-0.1-0.1 0 0-0.1-0.1-0.2-0.1 -0.1 0-0.1 0-0.2 0 -0.1 0-0.1 0-0.2 0v-0.3c0.2 0 0.3 0.1 0.4 0.1 0.1 0 0.3 0 0.4 0 0.1 0 0.2 0 0.4 0s0.2 0 0.4-0.1v0.3c-0.1 0-0.2 0-0.2 0 -0.1 0-0.1 0-0.2 0.1 0 0-0.1 0.1-0.1 0.2 0 0.1-0.1 0.2-0.1 0.4l-1.6 4.6c-0.2 0.5-0.3 0.9-0.5 1.1 -0.1 0.3-0.3 0.5-0.4 0.7 -0.1 0.2-0.3 0.3-0.5 0.3 -0.2 0.1-0.3 0.1-0.5 0.1 -0.3 0-0.5-0.1-0.6-0.2 -0.1-0.2-0.2-0.4-0.2-0.6 0-0.2 0-0.3 0.1-0.4 0.1-0.1 0.2-0.2 0.4-0.2 0.1 0 0.2 0 0.3 0.1 0.1 0 0.1 0.1 0.1 0.1 0 0.1 0 0.1 0.1 0.2 0 0.1 0 0.1 0 0.2 0 0.1 0 0.2 0.1 0.3 0.1 0 0.1 0.1 0.2 0.1 0.1 0 0.1 0 0.2 0 0.1 0 0.1-0.1 0.2-0.1 0.1-0.1 0.1-0.2 0.2-0.3 0.1-0.1 0.2-0.3 0.2-0.6l0.4-1L250.2 183.2z" fill="#666"/><path d="M57.6 183.1h1.3c0.2 0 0.4 0 0.5 0 0.1 0 0.3-0.1 0.4-0.1 0.1-0.1 0.2-0.1 0.2-0.2 0.1-0.1 0.1-0.2 0.2-0.3l0.2-0.3h0.3c-0.1 0.2-0.1 0.3-0.2 0.6s-0.1 0.4-0.2 0.6c-0.1 0.2-0.1 0.4-0.1 0.6s-0.1 0.4-0.1 0.6H59.8c0-0.2 0-0.4 0-0.6 0-0.1-0.1-0.2-0.2-0.3s-0.2-0.1-0.4-0.1 -0.4 0-0.6 0h-1.1l-0.7 2.9c0 0.2-0.1 0.3 0 0.4 0 0.1 0.1 0.2 0.3 0.2h1.4c0.3 0 0.5 0 0.8 0 0.2 0 0.4-0.1 0.7-0.2 0.2-0.1 0.4-0.3 0.6-0.5 0.2-0.2 0.4-0.5 0.6-0.8h0.3c0 0.1-0.1 0.2-0.2 0.4 -0.1 0.2-0.2 0.4-0.3 0.6 -0.1 0.2-0.2 0.4-0.3 0.6 -0.1 0.2-0.1 0.3-0.1 0.3 -0.4 0-0.8 0-1.2 0 -0.4 0-0.8 0-1.2 0 -0.5 0-1.1 0-1.7 0 -0.6 0-1.2 0-1.7 0l0.1-0.3h0.3c0.3 0 0.4 0 0.5-0.1s0.2-0.3 0.3-0.6l1.5-6.1c0.1-0.3 0.1-0.5 0-0.6 -0.1-0.1-0.2-0.1-0.5-0.1h-0.3l0.1-0.3c0.5 0 1 0 1.5 0 0.5 0 1 0 1.4 0 0.3 0 0.5 0 0.8 0 0.3 0 0.6 0 0.8 0 0.3 0 0.5 0 0.7 0 0.2 0 0.3 0 0.4 0 -0.1 0.3-0.1 0.6-0.2 0.9 0 0.3-0.1 0.6-0.1 0.9h-0.3c0-0.3 0-0.6-0.1-0.8 -0.1-0.2-0.2-0.3-0.4-0.4 -0.2-0.1-0.4-0.1-0.7-0.2 -0.3 0-0.6 0-0.9 0 -0.4 0-0.8 0-1.1 0L57.6 183.1zM61.7 187.1h0.3c0.3 0 0.4 0 0.5-0.1s0.2-0.3 0.3-0.6l1.5-6.1c0.1-0.3 0.1-0.5 0-0.6 -0.1-0.1-0.2-0.1-0.5-0.1h-0.3l0.1-0.3c0.2 0 0.3 0 0.5 0 0.1 0 0.3 0 0.4 0 0.1 0 0.3 0 0.4 0 0.1 0 0.3 0 0.4 0 0.3 0 0.7 0 1 0 0.3 0 0.6 0 0.9 0 0.6 0 1.2 0.1 1.7 0.3 0.5 0.2 0.9 0.4 1.2 0.8 0.3 0.3 0.5 0.7 0.6 1.2 0.1 0.5 0.1 1.1-0.1 1.7 -0.1 0.6-0.4 1.1-0.7 1.6 -0.3 0.5-0.7 0.9-1.2 1.3 -0.5 0.4-1 0.7-1.7 0.9 -0.6 0.2-1.3 0.3-2.1 0.3 -0.2 0-0.5 0-0.7 0 -0.2 0-0.5 0-0.7 0 -0.3 0-0.6 0-0.9 0 -0.3 0-0.6 0-0.9 0L61.7 187.1zM63.9 186.4c0 0.1 0 0.2 0 0.3s0.1 0.1 0.2 0.2c0.1 0 0.2 0.1 0.3 0.1s0.3 0 0.4 0c0.4 0 0.9 0 1.3-0.1 0.4-0.1 0.9-0.3 1.3-0.5 0.4-0.3 0.8-0.6 1.1-1.1 0.3-0.4 0.6-1 0.8-1.8 0.1-0.2 0.1-0.5 0.1-0.8 0-0.3 0-0.6 0-0.8 0-0.3-0.1-0.5-0.2-0.8 -0.1-0.3-0.3-0.5-0.5-0.7 -0.2-0.2-0.6-0.4-0.9-0.5 -0.4-0.1-0.9-0.2-1.4-0.2 -0.1 0-0.3 0-0.3 0 -0.1 0-0.2 0-0.2 0.1 -0.1 0-0.1 0.1-0.1 0.1 0 0 0 0.1-0.1 0.1L63.9 186.4zM73.2 180.3c0.1-0.3 0.1-0.5 0-0.6s-0.2-0.1-0.5-0.1h-0.3l0.1-0.3c0.3 0 0.5 0 0.8 0 0.3 0 0.5 0 0.7 0 0.2 0 0.4 0 0.7 0 0.3 0 0.5 0 0.8 0l-0.1 0.3h-0.3c-0.3 0-0.4 0-0.5 0.1 -0.1 0.1-0.2 0.3-0.3 0.6l-1.5 6.1c-0.1 0.3-0.1 0.5 0 0.6s0.2 0.1 0.5 0.1h0.3l-0.1 0.3c-0.2 0-0.5 0-0.7 0 -0.2 0-0.5 0-0.7 0 -0.2 0-0.5 0-0.7 0 -0.3 0-0.5 0-0.8 0l0.1-0.3h0.3c0.3 0 0.4 0 0.5-0.1 0.1-0.1 0.2-0.3 0.3-0.6L73.2 180.3zM75.6 184.7c0 0.3 0 0.6 0.1 0.8 0.1 0.3 0.2 0.5 0.3 0.7 0.2 0.2 0.3 0.4 0.6 0.5 0.2 0.1 0.5 0.2 0.8 0.2 0.2 0 0.4 0 0.6-0.1 0.2-0.1 0.4-0.1 0.6-0.3 0.2-0.1 0.4-0.3 0.5-0.4 0.1-0.2 0.3-0.4 0.3-0.6 0-0.2 0.1-0.4 0-0.5 0-0.1-0.1-0.3-0.2-0.4 -0.1-0.1-0.2-0.3-0.4-0.4 -0.2-0.1-0.4-0.3-0.7-0.5 -0.4-0.3-0.8-0.5-1.1-0.7 -0.3-0.2-0.5-0.4-0.6-0.6 -0.1-0.2-0.2-0.4-0.2-0.6 0-0.2 0-0.4 0.1-0.7 0.1-0.3 0.2-0.6 0.4-0.9 0.2-0.2 0.4-0.5 0.7-0.6 0.3-0.2 0.5-0.3 0.8-0.4 0.3-0.1 0.6-0.1 0.8-0.1 0.2 0 0.4 0 0.5 0.1 0.2 0 0.3 0.1 0.4 0.1 0.1 0 0.3 0.1 0.4 0.1s0.2 0.1 0.3 0.1c0.1 0 0.3 0 0.4-0.1s0.2-0.1 0.3-0.2c-0.1 0.3-0.2 0.7-0.3 1 -0.1 0.3-0.2 0.7-0.2 1h-0.3c0-0.2 0-0.5-0.1-0.7 -0.1-0.2-0.2-0.4-0.3-0.6s-0.3-0.3-0.5-0.4c-0.2-0.1-0.4-0.1-0.7-0.1 -0.2 0-0.4 0-0.6 0.1s-0.4 0.2-0.5 0.3c-0.2 0.1-0.3 0.2-0.4 0.4 -0.1 0.1-0.2 0.3-0.2 0.5 0 0.1 0 0.3 0 0.4 0 0.1 0.1 0.3 0.2 0.4 0.1 0.1 0.3 0.3 0.5 0.5 0.2 0.2 0.6 0.4 1 0.6 0.2 0.1 0.5 0.3 0.7 0.4 0.2 0.1 0.4 0.3 0.5 0.5 0.1 0.2 0.2 0.4 0.3 0.7 0 0.2 0 0.5-0.1 0.9 -0.1 0.3-0.2 0.6-0.4 0.9 -0.2 0.3-0.4 0.5-0.7 0.7 -0.3 0.2-0.6 0.4-0.9 0.5 -0.3 0.1-0.6 0.2-1 0.2 -0.2 0-0.4 0-0.6-0.1 -0.2 0-0.4-0.1-0.6-0.1 -0.2 0-0.3-0.1-0.5-0.1 -0.1 0-0.2-0.1-0.3-0.1 -0.1 0-0.2 0-0.4 0.1 -0.1 0.1-0.2 0.2-0.3 0.2 0.1-0.2 0.1-0.5 0.2-0.7 0.1-0.2 0.1-0.5 0.2-0.7 0.1-0.2 0.1-0.5 0.2-0.7s0.1-0.5 0.1-0.7H75.6zM84.9 187.5c-0.6 0-1.1-0.1-1.5-0.3 -0.4-0.2-0.8-0.5-1.1-0.9 -0.3-0.4-0.4-0.8-0.5-1.3 -0.1-0.5 0-1.1 0.1-1.7 0.1-0.6 0.4-1.1 0.7-1.6 0.3-0.5 0.7-0.9 1.2-1.3 0.5-0.4 0.9-0.7 1.5-0.9 0.5-0.2 1.1-0.3 1.7-0.3s1.1 0.1 1.5 0.3c0.4 0.2 0.8 0.5 1 0.9 0.3 0.4 0.4 0.8 0.5 1.3 0.1 0.5 0 1-0.1 1.6 -0.2 0.6-0.4 1.2-0.7 1.7 -0.3 0.5-0.7 0.9-1.1 1.3 -0.4 0.4-0.9 0.7-1.5 0.9C86.1 187.4 85.5 187.5 84.9 187.5zM85.4 186.9c0.3 0 0.6-0.1 1-0.2 0.3-0.1 0.6-0.3 0.9-0.6 0.3-0.3 0.6-0.7 0.8-1.1 0.3-0.5 0.5-1.1 0.6-1.8 0.1-0.4 0.1-0.8 0.1-1.2 0-0.4-0.1-0.8-0.2-1.2 -0.1-0.4-0.4-0.6-0.7-0.9 -0.3-0.2-0.7-0.4-1.3-0.4 -0.3 0-0.5 0.1-0.9 0.2 -0.3 0.1-0.7 0.3-1 0.6 -0.3 0.3-0.6 0.6-0.9 1.1 -0.3 0.4-0.5 1-0.6 1.6 -0.1 0.4-0.1 0.9-0.1 1.4s0.1 0.9 0.3 1.3c0.2 0.4 0.4 0.7 0.7 0.9C84.5 186.8 84.9 186.9 85.4 186.9zM92.5 180.2l-0.2-0.4c-0.1-0.1-0.1-0.1-0.2-0.2 0 0-0.1-0.1-0.2-0.1h-0.3l0.1-0.3c0.2 0 0.3 0 0.5 0 0.2 0 0.3 0 0.5 0 0.2 0 0.3 0 0.5 0 0.2 0 0.3 0 0.5 0l3.3 5.9h0l1.2-5c0.1-0.2 0.1-0.4 0-0.5 0-0.1-0.2-0.2-0.5-0.2h-0.3l0.1-0.3c0.2 0 0.4 0 0.6 0 0.2 0 0.4 0 0.6 0 0.2 0 0.4 0 0.6 0 0.2 0 0.4 0 0.6 0l-0.1 0.3h-0.3c-0.3 0-0.4 0.1-0.5 0.2 -0.1 0.1-0.2 0.3-0.2 0.5l-1.7 6.9c-0.1 0.2-0.1 0.3-0.1 0.3 0 0-0.1 0-0.1-0.1 0-0.1-0.1-0.2-0.3-0.4l-3.5-6.2h0l-1.4 5.7c-0.1 0.2-0.1 0.4 0 0.5 0 0.1 0.2 0.2 0.5 0.2h0.3l-0.1 0.3c-0.2 0-0.4 0-0.6 0 -0.2 0-0.4 0-0.6 0s-0.4 0-0.6 0c-0.2 0-0.4 0-0.6 0l0.1-0.3h0.3c0.3 0 0.4-0.1 0.5-0.2 0.1-0.1 0.2-0.3 0.2-0.5L92.5 180.2zM104.2 180.3c0.1-0.3 0.1-0.5 0-0.6 -0.1-0.1-0.2-0.1-0.5-0.1h-0.3l0.1-0.3c0.2 0 0.5 0 0.8 0 0.3 0 0.5 0 0.7 0 0.2 0 0.4 0 0.7 0 0.3 0 0.5 0 0.8 0l-0.1 0.3h-0.3c-0.3 0-0.4 0-0.5 0.1 -0.1 0.1-0.2 0.3-0.3 0.6l-1.5 6.1c-0.1 0.3-0.1 0.5 0 0.6 0.1 0.1 0.2 0.1 0.5 0.1h0.3l-0.1 0.3c-0.2 0-0.5 0-0.7 0 -0.2 0-0.5 0-0.7 0 -0.2 0-0.5 0-0.7 0 -0.3 0-0.5 0-0.8 0l0.1-0.3h0.3c0.3 0 0.4 0 0.5-0.1 0.1-0.1 0.2-0.3 0.3-0.6L104.2 180.3zM108 180.2l-0.2-0.4c-0.1-0.1-0.1-0.1-0.2-0.2 0 0-0.1-0.1-0.2-0.1h-0.3l0.1-0.3c0.2 0 0.3 0 0.5 0 0.2 0 0.3 0 0.5 0 0.2 0 0.3 0 0.5 0 0.2 0 0.3 0 0.5 0l3.3 5.9h0l1.2-5c0.1-0.2 0.1-0.4 0-0.5 0-0.1-0.2-0.2-0.5-0.2h-0.3l0.1-0.3c0.2 0 0.4 0 0.6 0 0.2 0 0.4 0 0.6 0 0.2 0 0.4 0 0.6 0 0.2 0 0.4 0 0.6 0l-0.1 0.3h-0.3c-0.3 0-0.4 0.1-0.5 0.2 -0.1 0.1-0.2 0.3-0.2 0.5l-1.7 6.9c-0.1 0.2-0.1 0.3-0.1 0.3 0 0-0.1 0-0.1-0.1s-0.1-0.2-0.3-0.4l-3.5-6.2h0l-1.4 5.7c-0.1 0.2-0.1 0.4 0 0.5 0 0.1 0.2 0.2 0.5 0.2h0.3l-0.1 0.3c-0.2 0-0.4 0-0.6 0 -0.2 0-0.4 0-0.6 0 -0.2 0-0.4 0-0.6 0 -0.2 0-0.4 0-0.6 0l0.1-0.3h0.3c0.3 0 0.4-0.1 0.5-0.2 0.1-0.1 0.2-0.3 0.2-0.5L108 180.2zM115.7 187.1h0.3c0.3 0 0.4 0 0.5-0.1 0.1-0.1 0.2-0.3 0.3-0.6l1.6-6.5h-0.9c-0.3 0-0.6 0-0.9 0.1 -0.2 0.1-0.5 0.2-0.6 0.4s-0.3 0.3-0.4 0.5 -0.2 0.4-0.2 0.6h-0.3c0.1-0.2 0.1-0.3 0.2-0.5 0.1-0.2 0.1-0.4 0.2-0.6 0.1-0.2 0.1-0.4 0.2-0.5 0.1-0.2 0.1-0.3 0.1-0.5 0.5 0 1 0.1 1.6 0.1 0.6 0 1.2 0 1.7 0 0.6 0 1.1 0 1.7 0 0.6 0 1.1 0 1.7-0.1 -0.1 0.3-0.2 0.7-0.3 0.9 -0.1 0.3-0.1 0.5-0.2 0.7 0 0.1 0 0.2-0.1 0.2 0 0.1 0 0.2 0 0.2h-0.3l0.1-0.2c0.1-0.5 0.1-0.9-0.1-1.1 -0.2-0.2-0.5-0.3-1-0.3h-1l-1.6 6.5c-0.1 0.3-0.1 0.5 0 0.6 0.1 0.1 0.2 0.1 0.5 0.1h0.3l-0.1 0.3c-0.2 0-0.5 0-0.7 0 -0.2 0-0.5 0-0.7 0 -0.2 0-0.5 0-0.7 0 -0.3 0-0.5 0-0.8 0L115.7 187.1zM123.9 183.1h1.3c0.2 0 0.4 0 0.5 0 0.1 0 0.3-0.1 0.4-0.1 0.1-0.1 0.2-0.1 0.3-0.2 0.1-0.1 0.1-0.2 0.2-0.3l0.2-0.3h0.3c-0.1 0.2-0.1 0.3-0.2 0.6s-0.1 0.4-0.2 0.6c-0.1 0.2-0.1 0.4-0.1 0.6s-0.1 0.4-0.1 0.6h-0.3c0-0.2 0-0.4 0-0.6 0-0.1-0.1-0.2-0.2-0.3 -0.1-0.1-0.2-0.1-0.4-0.1 -0.2 0-0.4 0-0.6 0h-1.1l-0.7 2.9c0 0.2-0.1 0.3 0 0.4 0 0.1 0.1 0.2 0.3 0.2h1.4c0.3 0 0.5 0 0.8 0 0.2 0 0.4-0.1 0.7-0.2 0.2-0.1 0.4-0.3 0.6-0.5 0.2-0.2 0.4-0.5 0.6-0.8h0.3c0 0.1-0.1 0.2-0.2 0.4 -0.1 0.2-0.2 0.4-0.3 0.6 -0.1 0.2-0.2 0.4-0.3 0.6 -0.1 0.2-0.1 0.3-0.2 0.3 -0.4 0-0.8 0-1.2 0 -0.4 0-0.8 0-1.2 0 -0.5 0-1.1 0-1.7 0 -0.6 0-1.2 0-1.7 0l0.1-0.3h0.3c0.3 0 0.4 0 0.5-0.1 0.1-0.1 0.2-0.3 0.3-0.6l1.5-6.1c0.1-0.3 0.1-0.5 0-0.6s-0.2-0.1-0.5-0.1h-0.3l0.1-0.3c0.5 0 1 0 1.5 0 0.5 0 1 0 1.4 0 0.3 0 0.5 0 0.8 0 0.3 0 0.6 0 0.8 0 0.3 0 0.5 0 0.7 0 0.2 0 0.3 0 0.4 0 -0.1 0.3-0.1 0.6-0.2 0.9 0 0.3-0.1 0.6-0.1 0.9h-0.3c0-0.3 0-0.6-0.1-0.8 -0.1-0.2-0.2-0.3-0.4-0.4 -0.2-0.1-0.4-0.1-0.7-0.2 -0.3 0-0.6 0-0.9 0 -0.4 0-0.8 0-1.1 0L123.9 183.1zM128 187.1h0.3c0.3 0 0.4 0 0.5-0.1 0.1-0.1 0.2-0.3 0.3-0.6l1.5-6.1c0.1-0.3 0.1-0.5 0-0.6s-0.2-0.1-0.5-0.1h-0.3l0.1-0.3c0.2 0 0.5 0 0.8 0 0.3 0 0.5 0 0.7 0 0.3 0 0.7 0 0.9 0 0.3 0 0.5 0 0.8 0 0.4 0 0.7 0 1 0.1 0.3 0.1 0.6 0.2 0.8 0.3 0.2 0.2 0.4 0.4 0.5 0.7 0.1 0.3 0.1 0.6 0 1.1 -0.1 0.5-0.4 1-0.8 1.4 -0.4 0.4-1 0.7-1.7 0.8 0.1 0.1 0.1 0.2 0.2 0.3 0.1 0.1 0.2 0.2 0.3 0.4l1.1 2.1c0.1 0.1 0.1 0.3 0.2 0.3 0.1 0.1 0.1 0.1 0.2 0.2s0.1 0.1 0.2 0.1c0.1 0 0.2 0 0.3 0l-0.1 0.3c-0.1 0-0.3 0-0.4 0 -0.1 0-0.3 0-0.5 0 -0.1 0-0.3 0-0.5 0 -0.2 0-0.3 0-0.5 0l-1.5-2.8c-0.1-0.1-0.1-0.2-0.2-0.3s-0.1-0.1-0.2-0.2c-0.1 0-0.2-0.1-0.3-0.1 -0.1 0-0.3 0-0.5 0l-0.6 2.5c-0.1 0.3-0.1 0.5 0 0.6 0.1 0.1 0.2 0.1 0.5 0.1h0.3l-0.1 0.3c-0.2 0-0.5 0-0.7 0 -0.2 0-0.5 0-0.7 0 -0.2 0-0.5 0-0.7 0 -0.3 0-0.5 0-0.8 0L128 187.1zM130.9 183.5c0.1 0 0.2 0 0.2 0 0.1 0 0.2 0 0.3 0 0.5 0 0.9-0.1 1.2-0.2 0.3-0.1 0.6-0.3 0.8-0.5 0.2-0.2 0.4-0.4 0.5-0.6 0.1-0.2 0.2-0.4 0.2-0.6 0.1-0.2 0.1-0.5 0.1-0.7 0-0.2 0-0.5-0.2-0.6 -0.1-0.2-0.3-0.3-0.6-0.5s-0.7-0.2-1.2-0.2c-0.2 0-0.3 0-0.3 0 -0.1 0-0.1 0.1-0.1 0.2L130.9 183.5zM138.4 180.2l-0.2-0.4c-0.1-0.1-0.1-0.1-0.2-0.2 0 0-0.1-0.1-0.2-0.1h-0.3l0.1-0.3c0.2 0 0.3 0 0.5 0 0.1 0 0.3 0 0.5 0 0.2 0 0.3 0 0.5 0 0.2 0 0.3 0 0.5 0l3.3 5.9h0l1.2-5c0.1-0.2 0.1-0.4 0-0.5 0-0.1-0.2-0.2-0.5-0.2h-0.3l0.1-0.3c0.2 0 0.4 0 0.6 0 0.2 0 0.4 0 0.6 0 0.2 0 0.4 0 0.6 0 0.2 0 0.4 0 0.6 0l-0.1 0.3h-0.3c-0.3 0-0.4 0.1-0.5 0.2 -0.1 0.1-0.2 0.3-0.2 0.5l-1.7 6.9c-0.1 0.2-0.1 0.3-0.1 0.3 0 0-0.1 0-0.1-0.1 0-0.1-0.1-0.2-0.3-0.4l-3.5-6.2h0l-1.4 5.7c-0.1 0.2-0.1 0.4 0 0.5 0 0.1 0.2 0.2 0.5 0.2h0.3l-0.1 0.3c-0.2 0-0.4 0-0.6 0 -0.2 0-0.4 0-0.6 0s-0.4 0-0.6 0c-0.2 0-0.4 0-0.6 0l0.1-0.3h0.3c0.3 0 0.4-0.1 0.5-0.2 0.1-0.1 0.2-0.3 0.2-0.5L138.4 180.2zM144 187.1c0.1 0 0.3 0 0.4-0.1 0.1 0 0.2-0.1 0.3-0.2 0.1-0.1 0.2-0.2 0.3-0.4 0.1-0.1 0.2-0.3 0.4-0.5l4.5-6.7c0.1-0.1 0.1-0.1 0.1-0.1s0.1 0 0.1 0.1l1.1 7c0 0.2 0.1 0.3 0.1 0.5s0.1 0.2 0.1 0.3c0.1 0.1 0.1 0.1 0.2 0.2 0.1 0 0.2 0 0.3 0l-0.1 0.3c-0.2 0-0.4 0-0.7 0 -0.2 0-0.4 0-0.7 0 -0.2 0-0.4 0-0.7 0 -0.2 0-0.4 0-0.7 0l0.1-0.3c0.1 0 0.1 0 0.2 0 0.1 0 0.1 0 0.2 0 0.1 0 0.1 0 0.2-0.1s0.1-0.1 0.1-0.2c0-0.1 0-0.2 0-0.3 0-0.1 0-0.2 0-0.3l-0.2-1.5h-2.9l-1 1.6c-0.1 0.2-0.2 0.4-0.2 0.5 0 0.1 0 0.2 0 0.2s0.1 0.1 0.1 0.1 0.1 0 0.2 0c0.1 0 0.2 0 0.2 0l-0.1 0.3c-0.2 0-0.4 0-0.5 0 -0.2 0-0.4 0-0.5 0 -0.2 0-0.3 0-0.5 0 -0.2 0-0.3 0-0.5 0L144 187.1zM149.2 181L147 184.3h2.6L149.2 181zM153.5 187.1h0.3c0.3 0 0.4 0 0.5-0.1 0.1-0.1 0.2-0.3 0.3-0.6l1.6-6.5h-0.9c-0.3 0-0.6 0-0.9 0.1 -0.2 0.1-0.5 0.2-0.6 0.4 -0.2 0.2-0.3 0.3-0.4 0.5s-0.2 0.4-0.2 0.6h-0.3c0.1-0.2 0.1-0.3 0.2-0.5 0.1-0.2 0.1-0.4 0.2-0.6 0.1-0.2 0.1-0.4 0.2-0.5 0.1-0.2 0.1-0.3 0.1-0.5 0.5 0 1 0.1 1.6 0.1 0.6 0 1.2 0 1.7 0 0.6 0 1.1 0 1.7 0 0.6 0 1.1 0 1.7-0.1 -0.1 0.3-0.2 0.7-0.3 0.9 -0.1 0.3-0.1 0.5-0.2 0.7 0 0.1 0 0.2-0.1 0.2 0 0.1 0 0.2 0 0.2h-0.3l0.1-0.2c0.1-0.5 0.1-0.9-0.1-1.1 -0.2-0.2-0.5-0.3-1-0.3h-1l-1.6 6.5c-0.1 0.3-0.1 0.5 0 0.6 0.1 0.1 0.2 0.1 0.5 0.1h0.3l-0.1 0.3c-0.2 0-0.5 0-0.7 0 -0.2 0-0.5 0-0.7 0 -0.2 0-0.5 0-0.7 0 -0.3 0-0.5 0-0.8 0L153.5 187.1zM161.5 180.3c0.1-0.3 0.1-0.5 0-0.6s-0.2-0.1-0.5-0.1h-0.3l0.1-0.3c0.2 0 0.5 0 0.8 0 0.3 0 0.5 0 0.7 0 0.2 0 0.4 0 0.7 0 0.3 0 0.5 0 0.8 0l-0.1 0.3h-0.3c-0.3 0-0.4 0-0.5 0.1 -0.1 0.1-0.2 0.3-0.3 0.6l-1.5 6.1c-0.1 0.3-0.1 0.5 0 0.6 0.1 0.1 0.2 0.1 0.5 0.1h0.3l-0.1 0.3c-0.2 0-0.5 0-0.7 0 -0.2 0-0.5 0-0.7 0 -0.2 0-0.5 0-0.7 0 -0.3 0-0.5 0-0.8 0l0.1-0.3h0.3c0.3 0 0.4 0 0.5-0.1s0.2-0.3 0.3-0.6L161.5 180.3zM166.8 187.5c-0.6 0-1.1-0.1-1.5-0.3 -0.4-0.2-0.8-0.5-1.1-0.9 -0.3-0.4-0.4-0.8-0.5-1.3 -0.1-0.5 0-1.1 0.1-1.7 0.1-0.6 0.4-1.1 0.7-1.6s0.7-0.9 1.2-1.3c0.4-0.4 0.9-0.7 1.5-0.9 0.5-0.2 1.1-0.3 1.7-0.3s1.1 0.1 1.5 0.3c0.4 0.2 0.8 0.5 1 0.9 0.3 0.4 0.4 0.8 0.5 1.3 0.1 0.5 0 1-0.1 1.6 -0.1 0.6-0.4 1.2-0.7 1.7 -0.3 0.5-0.7 0.9-1.1 1.3 -0.4 0.4-0.9 0.7-1.5 0.9C167.9 187.4 167.4 187.5 166.8 187.5zM167.2 186.9c0.3 0 0.6-0.1 1-0.2 0.3-0.1 0.6-0.3 0.9-0.6 0.3-0.3 0.6-0.7 0.8-1.1 0.3-0.5 0.5-1.1 0.6-1.8 0.1-0.4 0.1-0.8 0.1-1.2 0-0.4-0.1-0.8-0.2-1.2 -0.1-0.4-0.4-0.6-0.7-0.9 -0.3-0.2-0.7-0.4-1.3-0.4 -0.3 0-0.5 0.1-0.9 0.2 -0.3 0.1-0.7 0.3-1 0.6 -0.3 0.3-0.6 0.6-0.9 1.1s-0.5 1-0.6 1.6c-0.1 0.4-0.1 0.9-0.1 1.4 0 0.5 0.1 0.9 0.3 1.3 0.2 0.4 0.4 0.7 0.7 0.9C166.3 186.8 166.7 186.9 167.2 186.9zM174.4 180.2l-0.2-0.4c-0.1-0.1-0.1-0.1-0.2-0.2 0 0-0.1-0.1-0.2-0.1h-0.3l0.1-0.3c0.2 0 0.3 0 0.5 0 0.2 0 0.3 0 0.5 0s0.3 0 0.5 0c0.2 0 0.3 0 0.5 0l3.3 5.9h0l1.2-5c0.1-0.2 0.1-0.4 0-0.5 0-0.1-0.2-0.2-0.5-0.2h-0.3l0.1-0.3c0.2 0 0.4 0 0.6 0 0.2 0 0.4 0 0.6 0s0.4 0 0.6 0c0.2 0 0.4 0 0.6 0l-0.1 0.3h-0.3c-0.3 0-0.4 0.1-0.5 0.2 -0.1 0.1-0.2 0.3-0.2 0.5l-1.7 6.9c-0.1 0.2-0.1 0.3-0.1 0.3 0 0-0.1 0-0.1-0.1 0-0.1-0.1-0.2-0.3-0.4l-3.5-6.2h0l-1.4 5.7c-0.1 0.2-0.1 0.4 0 0.5 0 0.1 0.2 0.2 0.5 0.2h0.3l-0.1 0.3c-0.2 0-0.4 0-0.6 0 -0.2 0-0.4 0-0.6 0 -0.2 0-0.4 0-0.6 0 -0.2 0-0.4 0-0.6 0l0.1-0.3h0.3c0.3 0 0.4-0.1 0.5-0.2 0.1-0.1 0.2-0.3 0.2-0.5L174.4 180.2zM180 187.1c0.1 0 0.3 0 0.4-0.1 0.1 0 0.2-0.1 0.3-0.2 0.1-0.1 0.2-0.2 0.3-0.4 0.1-0.1 0.2-0.3 0.4-0.5l4.5-6.7c0.1-0.1 0.1-0.1 0.1-0.1 0 0 0.1 0 0.1 0.1l1.1 7c0 0.2 0.1 0.3 0.1 0.5s0.1 0.2 0.1 0.3c0.1 0.1 0.1 0.1 0.2 0.2 0.1 0 0.2 0 0.3 0l-0.1 0.3c-0.2 0-0.4 0-0.7 0 -0.2 0-0.4 0-0.7 0 -0.2 0-0.4 0-0.7 0 -0.2 0-0.4 0-0.7 0l0.1-0.3c0.1 0 0.1 0 0.2 0 0.1 0 0.1 0 0.2 0 0.1 0 0.1 0 0.2-0.1 0.1 0 0.1-0.1 0.1-0.2 0-0.1 0-0.2 0-0.3 0-0.1 0-0.2 0-0.3l-0.2-1.5h-2.9l-1 1.6c-0.1 0.2-0.2 0.4-0.2 0.5 0 0.1 0 0.2 0 0.2 0 0.1 0.1 0.1 0.1 0.1 0.1 0 0.1 0 0.2 0 0.1 0 0.2 0 0.2 0l-0.1 0.3c-0.2 0-0.4 0-0.5 0 -0.2 0-0.4 0-0.5 0 -0.2 0-0.3 0-0.5 0 -0.2 0-0.3 0-0.5 0L180 187.1zM185.1 181l-2.1 3.3h2.6L185.1 181zM188.4 187.1h0.3c0.3 0 0.4 0 0.5-0.1 0.1-0.1 0.2-0.3 0.3-0.6l1.5-6.1c0.1-0.3 0.1-0.5 0-0.6s-0.2-0.1-0.5-0.1h-0.3l0.1-0.3c0.2 0 0.5 0 0.8 0 0.3 0 0.5 0 0.7 0 0.2 0 0.4 0 0.7 0 0.3 0 0.5 0 0.8 0l-0.1 0.3h-0.3c-0.3 0-0.4 0-0.5 0.1s-0.2 0.3-0.3 0.6l-1.6 6.4c0 0.1 0 0.1 0 0.2 0 0 0.1 0 0.2 0h1.5c0.3 0 0.5 0 0.8 0 0.2 0 0.5-0.1 0.7-0.2 0.2-0.1 0.4-0.3 0.6-0.5 0.2-0.2 0.4-0.5 0.6-0.9h0.3c0 0.1-0.1 0.2-0.2 0.4 -0.1 0.2-0.2 0.4-0.3 0.7 -0.1 0.2-0.2 0.5-0.3 0.7 -0.1 0.2-0.1 0.3-0.2 0.4 -0.4 0-0.8 0-1.2 0 -0.4 0-0.8 0-1.2 0 -0.5 0-1.1 0-1.7 0 -0.6 0-1.2 0-1.7 0L188.4 187.1z" fill="#666"/><path d="M263.6 136.8c0 0.5-0.1 0.9-0.3 1.4 -0.2 0.4-0.4 0.8-0.7 1.1 -0.3 0.3-0.7 0.6-1.1 0.7s-0.9 0.3-1.4 0.3c-0.5 0-0.9-0.1-1.4-0.3 -0.4-0.2-0.8-0.4-1.1-0.7 -0.3-0.3-0.6-0.7-0.7-1.1 -0.2-0.4-0.3-0.9-0.3-1.4 0-0.5 0.1-0.9 0.3-1.4 0.2-0.4 0.4-0.8 0.7-1.1 0.3-0.3 0.7-0.6 1.1-0.7 0.4-0.2 0.9-0.3 1.4-0.3 0.5 0 0.9 0.1 1.4 0.3s0.8 0.4 1.1 0.8c0.3 0.3 0.6 0.7 0.7 1.1C263.6 135.8 263.6 136.3 263.6 136.8zM263.1 136.8c0-0.4-0.1-0.8-0.2-1.2 -0.1-0.4-0.4-0.7-0.6-1s-0.6-0.5-0.9-0.7c-0.4-0.2-0.7-0.2-1.2-0.2 -0.4 0-0.8 0.1-1.2 0.3s-0.7 0.4-0.9 0.7c-0.3 0.3-0.5 0.6-0.6 1 -0.1 0.4-0.2 0.8-0.2 1.2 0 0.4 0.1 0.8 0.2 1.2 0.2 0.4 0.4 0.7 0.6 1 0.3 0.3 0.6 0.5 0.9 0.7 0.4 0.2 0.7 0.2 1.2 0.2s0.8-0.1 1.2-0.2c0.4-0.2 0.7-0.4 0.9-0.7 0.3-0.3 0.5-0.6 0.6-1C263 137.6 263.1 137.2 263.1 136.8zM259.6 137.9c0 0.1 0 0.2 0 0.3 0 0.1 0 0.1 0.1 0.1 0 0 0.1 0.1 0.2 0.1 0.1 0 0.2 0 0.3 0v0.2h-1.7v-0.2c0.1 0 0.2 0 0.3 0 0.1 0 0.1 0 0.2-0.1 0 0 0.1-0.1 0.1-0.1 0-0.1 0-0.2 0-0.3v-2.4c0-0.1 0-0.2 0-0.3 0-0.1 0-0.1-0.1-0.1 0 0-0.1-0.1-0.2-0.1 -0.1 0-0.2 0-0.3 0v-0.2h1.8c0.2 0 0.3 0 0.5 0.1 0.1 0 0.3 0.1 0.4 0.2 0.1 0.1 0.2 0.2 0.3 0.3 0.1 0.1 0.1 0.3 0.1 0.4 0 0.3-0.1 0.5-0.2 0.7 -0.2 0.2-0.4 0.3-0.6 0.4l0.6 0.8c0.1 0.2 0.3 0.4 0.4 0.5 0.1 0.2 0.3 0.3 0.4 0.4v0.1h-0.6c-0.1 0-0.2 0-0.2-0.1 -0.1-0.1-0.2-0.2-0.3-0.3 -0.1-0.1-0.2-0.3-0.3-0.5s-0.3-0.4-0.4-0.7h-0.5V137.9zM259.6 136.7h0.5c0.3 0 0.4-0.1 0.6-0.2 0.1-0.2 0.2-0.4 0.2-0.6 0-0.1 0-0.3-0.1-0.4 0-0.1-0.1-0.2-0.2-0.2 -0.1-0.1-0.1-0.1-0.2-0.1 -0.1 0-0.2 0-0.3 0h-0.5V136.7z" fill="#666"/><path d="M203.4 181.9c0 0.4-0.1 0.9-0.3 1.3 -0.2 0.4-0.4 0.7-0.7 1s-0.6 0.5-1 0.7c-0.4 0.2-0.8 0.3-1.3 0.3s-0.9-0.1-1.3-0.3c-0.4-0.2-0.7-0.4-1-0.7s-0.5-0.6-0.7-1c-0.2-0.4-0.3-0.8-0.3-1.3 0-0.5 0.1-0.9 0.3-1.3s0.4-0.7 0.7-1c0.3-0.3 0.6-0.5 1-0.7 0.4-0.2 0.8-0.3 1.3-0.3s0.9 0.1 1.3 0.3c0.4 0.2 0.7 0.4 1 0.7 0.3 0.3 0.5 0.6 0.7 1S203.4 181.5 203.4 181.9zM202.9 181.9c0-0.4-0.1-0.7-0.2-1.1 -0.1-0.3-0.3-0.6-0.6-0.9s-0.5-0.5-0.9-0.6c-0.3-0.1-0.7-0.2-1.1-0.2 -0.4 0-0.7 0.1-1.1 0.2 -0.3 0.2-0.6 0.4-0.9 0.6 -0.2 0.3-0.4 0.6-0.6 0.9 -0.1 0.3-0.2 0.7-0.2 1.1 0 0.4 0.1 0.7 0.2 1.1 0.1 0.3 0.3 0.6 0.6 0.9 0.2 0.3 0.5 0.5 0.9 0.6 0.3 0.1 0.7 0.2 1.1 0.2s0.7-0.1 1.1-0.2c0.3-0.2 0.6-0.4 0.9-0.6 0.2-0.3 0.4-0.6 0.6-0.9C202.8 182.7 202.9 182.3 202.9 181.9zM199.7 183c0 0.1 0 0.2 0 0.2 0 0.1 0 0.1 0.1 0.1 0 0 0.1 0 0.1 0.1 0.1 0 0.1 0 0.3 0v0.2h-1.5v-0.2c0.1 0 0.2 0 0.3 0 0.1 0 0.1 0 0.1-0.1 0 0 0.1-0.1 0.1-0.1 0-0.1 0-0.1 0-0.2v-2.2c0-0.1 0-0.2 0-0.2 0-0.1 0-0.1-0.1-0.1 0 0-0.1 0-0.1-0.1 -0.1 0-0.2 0-0.3 0v-0.2h1.7c0.1 0 0.3 0 0.4 0.1 0.1 0 0.3 0.1 0.4 0.2 0.1 0.1 0.2 0.2 0.2 0.3s0.1 0.2 0.1 0.4c0 0.2-0.1 0.5-0.2 0.6 -0.1 0.2-0.3 0.3-0.5 0.4l0.5 0.7c0.1 0.2 0.3 0.3 0.4 0.5 0.1 0.2 0.2 0.3 0.3 0.3v0.1h-0.6c-0.1 0-0.2 0-0.2-0.1 -0.1-0.1-0.2-0.2-0.2-0.3 -0.1-0.1-0.2-0.3-0.3-0.5 -0.1-0.2-0.2-0.4-0.4-0.6h-0.5V183zM199.7 181.9h0.5c0.2 0 0.4-0.1 0.5-0.2 0.1-0.1 0.2-0.3 0.2-0.6 0-0.1 0-0.2-0.1-0.3s-0.1-0.2-0.1-0.2c-0.1-0.1-0.1-0.1-0.2-0.1 -0.1 0-0.2 0-0.3 0h-0.4V181.9z" fill="#666"/></svg>