<svg xmlns="http://www.w3.org/2000/svg" version="1.1" x="0" y="0" width="300" height="300" viewBox="0 0 300 300" xml:space="preserve"><style>.s0{fill:#666;}</style><path d="M21.7 162c0.5-0.4 1-0.7 1.4-1.1 0.2-0.2 0.3-0.2 0.5 0 0.9 1 1.9 1.8 3 2.5 1.5 1 3.2 1.7 5 2 1.6 0.3 3.1 0.4 4.7 0.1 1.7-0.2 3.3-0.9 4.7-1.9 2.2-1.6 3.7-3.9 4.8-6.3 0.6-1.4 1.2-2.8 1.7-4.3 0.6-1.8 1.3-3.5 1.9-5.3 0.9-2.6 1.8-5.1 2.7-7.7 1-2.6 2.5-5 4.4-7 1.5-1.6 3.3-2.9 5.3-3.9 1.4-0.7 2.9-1.2 4.4-1.5 0.8-0.2 1.6-0.2 2.5-0.4 1 0 2.1 0 3.1 0 0.6 0.1 1.2 0.2 1.8 0.3 1.7 0.3 3.4 0.8 4.9 1.6 0.2 0.1 0.4 0.2 0.1 0.5 -0.3 0.3-0.4 0.7-0.7 1.1 -0.2 0.4-0.3 0.4-0.7 0.2 -0.5-0.3-1-0.6-1.6-0.8 -1.2-0.5-2.4-0.6-3.7-0.7 -1.4-0.1-2.9-0.1-4.3 0.2 -1.6 0.4-3 1.1-4.3 2.2 -0.8 0.7-1.5 1.3-2.1 2.1 -1 1.3-1.9 2.8-2.6 4.3 -0.6 1.2-1.1 2.5-1.5 3.8 -0.5 1.8-1 3.5-1.5 5.3 -0.4 1.5-0.9 3-1.4 4.4 -0.4 1.3-0.9 2.6-1.4 3.9 -1.4 3-3.2 5.8-5.8 8 -0.9 0.8-1.9 1.4-2.9 1.9 -1.4 0.8-3 1.4-4.6 1.8 -0.9 0.2-1.7 0.4-2.6 0.5 -0.1 0-0.3 0-0.4 0.1 -1 0-2.1 0-3.1 0 -0.5-0.1-1-0.1-1.5-0.2 -1.1-0.2-2.2-0.5-3.2-0.9 -0.9-0.3-1.8-0.8-2.7-1.2 -1.2-0.7-2.2-1.5-3.2-2.4 -0.4-0.3-0.7-0.6-1.1-0.9 -0.1-0.1-0.3-0.2-0.3-0.4C21.7 162 21.7 162 21.7 162zM74.6 148.8c0-5.4 0-10.8 0-16.3 0-0.5 0-0.5 0.5-0.5 1.7 0 3.3 0 5 0 0.4 0 0.5 0.1 0.5 0.5 0 4.7 0 9.3 0 14 0 0.5 0 0.5 0.5 0.5 5.5 0 10.9 0 16.4 0 0.3 0 0.5-0.1 0.4-0.4 0-4.7 0-9.3 0-14 0-0.5 0-0.5 0.5-0.5 1.6 0 3.3 0 4.9 0 0.4 0 0.5 0.1 0.5 0.5 0 10.9 0 21.8 0 32.7 0 0.3-0.1 0.4-0.4 0.4 -1.7 0-3.4 0-5.1 0 -0.3 0-0.4-0.1-0.4-0.4 0-5 0-10 0-15 0-0.4-0.1-0.5-0.5-0.5 -5.5 0-11 0-16.5 0 -0.3 0-0.4 0.1-0.4 0.4 0 5 0 10 0 15.1 0 0.4-0.1 0.4-0.5 0.4 -1.7 0-3.4 0-5.1 0 -0.3 0-0.4-0.1-0.4-0.4C74.6 159.7 74.6 154.3 74.6 148.8 74.6 148.8 74.6 148.8 74.6 148.8zM160.8 148.8c0-5.4 0-10.8 0-16.3 0-0.5 0-0.5 0.5-0.5 6.7 0 13.4 0 20 0 1.7 0 3.3 0 5 0 0.3 0 0.4 0.1 0.4 0.4 0 0.7 0 1.4 0 2.1 0 0.3-0.1 0.3-0.3 0.3 -0.4 0-0.8 0-1.2 0 -6 0-12 0-18 0 -0.5 0-0.5 0-0.5 0.5 0 3.7 0 7.4 0 11 0 0.4 0.1 0.4 0.5 0.4 4.9 0 9.8 0 14.8 0 0.4 0 0.5 0.1 0.4 0.5 0 0.6 0 1.2 0 1.8 0 0.4-0.1 0.5-0.4 0.5 -2.4 0-4.9 0-7.3 0 -2.5 0-5 0-7.5 0 -0.3 0-0.4 0.1-0.4 0.4 0 4.1 0 8.2 0 12.3 0 0.4 0.1 0.5 0.5 0.5 6.5 0 12.9 0 19.4 0 0.5 0 0.5 0 0.5 0.5 0 0.6 0 1.2 0 1.8 0 0.5 0 0.5-0.5 0.5 -2.3 0-4.5 0-6.8 0 -3.3 0-6.7 0-10 0.1 -1.8 0-3.6 0-5.4 0 -1 0-2.1 0-3.1 0 -0.2 0-0.3-0.1-0.3-0.3 0-3.1 0-6.1 0-9.1 0-2.4 0-4.9 0-7.3C160.8 148.8 160.8 148.8 160.8 148.8zM157.2 134.6c-0.6-0.2-1.1-0.3-1.7-0.5 -1.2-0.3-2.5-0.5-3.7-0.3 -1.8 0.3-3.1 1.3-4.2 2.7 -1.3 1.6-2.1 3.4-2.9 5.3 -0.9 2.3-1.7 4.6-2.4 6.9 -0.9 2.9-2 5.8-3.3 8.5 -1.1 2.1-2.4 4-4 5.7 -1.5 1.5-3.2 2.7-5.3 3.3 -2.1 0.5-4.2 0.6-6.3 0.2 -2-0.4-3.7-1.4-5.3-2.5 -0.1-0.1-0.2-0.2-0.1-0.3 0.3-0.5 0.7-0.9 1-1.4 0.1-0.1 0.2-0.1 0.3 0 0.6 0.4 1.3 0.8 1.9 1.2 2.4 1.3 4.8 1.3 7.2 0.2 1-0.4 1.7-1.3 2.3-2.1 1.1-1.5 1.9-3.2 2.6-4.9 0.6-1.5 1.1-3.1 1.7-4.7 0.9-2.4 1.6-4.8 2.7-7.1 1.2-2.7 2.6-5.3 4.5-7.6 1.1-1.3 2.3-2.4 3.7-3.4 1.7-1.2 3.6-2.1 5.8-2.2 1.9-0.1 3.7 0.2 5.5 0.8 0.2 0.1 0.4 0.1 0.6 0.2 0.2 0.1 0.3 0.2 0.2 0.4 -0.2 0.5-0.3 1-0.5 1.5C157.4 134.6 157.3 134.6 157.2 134.6zM191.9 148.8c0-5.4 0-10.9 0-16.3 0-0.3 0-0.4 0.4-0.4 1.8 0 3.6 0 5.3 0 0.3 0 0.4 0.1 0.4 0.4 0 10.9 0 21.8 0 32.7 0 0.3-0.1 0.4-0.4 0.4 -1.8 0-3.5 0-5.3 0 -0.5 0-0.5 0-0.5-0.5 0-5.4 0-10.9 0-16.3C191.9 148.8 191.9 148.8 191.9 148.8zM115.8 165.6c-1.9 0-3.7 0-5.6 0 -0.4 0-0.2-0.4-0.2-0.6 0.1-0.1 0-0.3 0-0.4 0-10.6 0-21.1 0-31.7 0-0.1 0-0.2 0-0.3 0-0.5 0.1-0.6 0.6-0.6 1.4 0 2.7 0 4.1 0 0.3 0 0.7 0.1 1 0 0.2 0 0.3 0.1 0.3 0.3 0 0.1 0 0.2 0 0.3 0 10.6 0 21.3 0 31.9C116 164.9 116.1 165.3 115.8 165.6zM115.8 165.6c0.1-0.6 0.2-1.1 0.2-1.7 0-10.4 0-20.8 0-31.2 0-0.4-0.1-0.4-0.5-0.5 -1.6-0.2-3.3 0-4.9-0.1 -0.4 0-0.5 0.2-0.5 0.5 0 0.1 0 0.2 0 0.3 0 10.6 0 21.1 0 31.7 0 0.1 0.1 0.3-0.1 0.4 0-0.1 0-0.3 0-0.4 0-10.7 0-21.4 0-32.1 0-0.4 0.1-0.5 0.5-0.5 1.7 0 3.5 0 5.2 0 0.4 0 0.4 0.1 0.4 0.5 0 10.8 0 21.5 0 32.2 0 0.2 0 0.4 0 0.6C116.1 165.6 116 165.6 115.8 165.6zM243.8 159.6c0.2 0.1 0.4 0.2 0.5 0.5C244 160 243.8 159.9 243.8 159.6zM277.9 147.2c-0.2-1.9-0.7-3.8-1.5-5.6 -0.9-1.9-2.1-3.5-3.6-4.9 -2.3-2.1-5-3.3-8-4 -2.3-0.5-4.5-0.7-6.8-0.6 -2.5 0.1-4.9 0.5-7.2 1.4 -2.5 0.9-4.7 2.3-6.5 4.3 -1.2 1.3-2.2 2.8-2.9 4.5 -0.6 1.3-0.9 2.8-1.1 4.2 -0.3 2.5-0.2 4.9 0.4 7.3 0.6 2.2 1.7 4.2 3.2 5.9 0.1 0.2 0.3 0.3 0.5 0.5 1.5 1.4 3.1 2.7 4.9 3.5 1.2 0.5 2.4 0.9 3.7 1.2 1.3 0.3 2.7 0.4 4.1 0.6 1.8 0.2 3.5 0.1 5.2-0.1 1.5-0.2 3-0.5 4.5-1 1.2-0.4 2.4-0.9 3.5-1.5 2-1.1 3.6-2.7 5-4.5 1.3-1.8 2.1-3.7 2.5-5.9 0.1-0.6 0.3-1.2 0.3-1.9 0-1.1 0-2.1 0-3.2C278 147.4 277.9 147.3 277.9 147.2zM270.8 156.2c-1 2.4-2.5 4.3-4.8 5.5 -1.8 1-3.7 1.4-5.6 1.5 -2.4 0.1-4.7-0.1-6.9-1 -2.2-0.9-4.1-2.3-5.4-4.3 -1.3-2.1-1.9-4.5-2.1-7 -0.1-1.7-0.1-3.4 0.1-5 0.3-2.6 1.1-5 2.6-7.2 1.4-1.8 3.2-3.1 5.4-3.8 2.3-0.8 4.7-0.9 7.1-0.6 1.4 0.2 2.7 0.5 3.9 1.1 2 0.9 3.5 2.2 4.7 4 0.8 1.3 1.4 2.7 1.7 4.1 0.5 1.8 0.6 3.7 0.6 5.2C272 151.5 271.7 153.9 270.8 156.2zM236.3 145.4c-0.2-1.4-0.5-2.7-1-4 -0.9-2.3-2.3-4.3-4.1-6 -1.4-1.2-3.1-2.1-4.9-2.6 -1.9-0.5-3.8-0.7-5.8-0.7 -5.5-0.1-11 0-16.6 0 -0.4 0-0.5 0.2-0.5 0.5 0 5.4 0 10.6 0 16.4 0 0 0 0 0 0 0 4.9 0 10.8 0 16.3 0 0.4 0.1 0.4 0.4 0.4 5.2 0 10.4 0 15.5 0 3.1 0 6.1-0.7 8.9-2.3 2.3-1.3 4.1-3 5.5-5.2 1.5-2.5 2.3-5.2 2.6-8.1C236.6 148.5 236.5 146.9 236.3 145.4zM230.3 152c-0.2 1.5-0.4 3-1 4.4 -0.8 2.2-2.2 3.8-4.3 4.9 -2.1 1.1-4.3 1.4-6.6 1.6 -2.8 0.1-5.5 0-8.3 0.1 -0.3 0-0.3-0.1-0.3-0.4 0-3.8 0.1-7.6 0.1-11.5 0-0.7 0-1.4 0-2.1l0 0c0-4.7 0-9.1 0-13.5 0-0.5-0.1-0.5 0.4-0.5 2.4 0 4.7 0 7 0 2.2 0 4.3 0.3 6.4 1.1 1.9 0.8 3.4 2 4.6 3.7 1.4 2.1 1.9 4.4 2 6.9C230.5 148.3 230.5 150.2 230.3 152z" fill="#666"/></svg>