<svg xmlns="http://www.w3.org/2000/svg" version="1.1" x="0" y="0" width="300" height="300" viewBox="0 0 300 300" xml:space="preserve"><style>.s0{fill:#676767;}</style><path d="M36.8 174.3c0.6 0.3 1.6 0.7 2.6 0.7 1.1 0 1.7-0.5 1.7-1.1 0-0.7-0.5-1-1.8-1.5 -1.7-0.6-2.9-1.6-2.9-3.1 0-1.8 1.5-3.2 4-3.2 1.2 0 2.1 0.3 2.7 0.5l-0.5 1.9c-0.4-0.2-1.2-0.5-2.2-0.5 -1 0-1.5 0.5-1.5 1 0 0.7 0.6 1 2 1.5 1.9 0.7 2.7 1.7 2.7 3.1 0 1.8-1.4 3.3-4.2 3.3 -1.2 0-2.4-0.3-3-0.7L36.8 174.3zM51.6 174.9c0 0.7 0 1.4 0.1 1.9h-2.1l-0.1-0.8h0c-0.5 0.6-1.3 0.9-2.2 0.9 -1.5 0-2.5-1.1-2.5-2.3 0-2 1.8-2.9 4.5-2.9v-0.1c0-0.4-0.2-1-1.4-1 -0.8 0-1.6 0.3-2.1 0.6l-0.4-1.5c0.5-0.3 1.6-0.7 3-0.7 2.5 0 3.4 1.5 3.4 3.3V174.9zM49.3 173.1c-1.2 0-2.2 0.3-2.2 1.2 0 0.6 0.4 0.9 0.9 0.9 0.6 0 1.1-0.4 1.2-0.9 0-0.1 0-0.3 0-0.4V173.1zM55 169.1l1 3.5c0.2 0.6 0.3 1.2 0.4 1.9h0c0.1-0.6 0.3-1.2 0.4-1.9l1-3.5h2.5l-2.8 7.6h-2.4l-2.8-7.6H55zM63.1 173.7c0.1 1 1 1.5 2.2 1.5 0.8 0 1.5-0.1 2.1-0.3l0.3 1.6c-0.8 0.3-1.7 0.5-2.8 0.5 -2.6 0-4.1-1.5-4.1-3.9 0-1.9 1.2-4.1 3.9-4.1 2.5 0 3.4 1.9 3.4 3.8 0 0.4 0 0.8-0.1 0.9H63.1zM65.9 172.1c0-0.6-0.2-1.5-1.3-1.5 -1 0-1.4 0.9-1.5 1.5H65.9zM72.7 171.6c0-0.9 0-1.8-0.1-2.4h2l0.1 1h0c0.3-0.5 1-1.2 2.3-1.2 1 0 1.8 0.5 2.1 1.3h0c0.3-0.4 0.6-0.7 1-0.9 0.4-0.3 0.9-0.4 1.5-0.4 1.5 0 2.6 1 2.6 3.3v4.5h-2.3v-4.1c0-1.1-0.4-1.7-1.1-1.7 -0.5 0-0.9 0.4-1.1 0.8 -0.1 0.2-0.1 0.4-0.1 0.6v4.5h-2.3v-4.3c0-1-0.3-1.6-1.1-1.6 -0.6 0-1 0.5-1.1 0.9 -0.1 0.2-0.1 0.4-0.1 0.6v4.4h-2.3V171.6zM93.6 172.9c0 2.8-2 4.1-4 4.1 -2.2 0-3.9-1.5-3.9-3.9s1.6-4 4.1-4C92.1 168.9 93.6 170.6 93.6 172.9zM88.1 172.9c0 1.3 0.5 2.3 1.6 2.3 0.9 0 1.5-0.9 1.5-2.3 0-1.1-0.4-2.3-1.5-2.3C88.5 170.6 88.1 171.8 88.1 172.9zM95.1 171.6c0-0.9 0-1.8-0.1-2.4H97.1l0.1 1h0c0.3-0.5 1.1-1.2 2.4-1.2 1.6 0 2.7 1 2.7 3.3v4.5h-2.4v-4.2c0-1-0.3-1.7-1.2-1.7 -0.7 0-1 0.5-1.2 0.9 -0.1 0.2-0.1 0.4-0.1 0.6v4.4h-2.4V171.6zM106.1 173.7c0.1 1 1 1.5 2.2 1.5 0.8 0 1.5-0.1 2.1-0.3l0.3 1.6c-0.8 0.3-1.7 0.5-2.8 0.5 -2.6 0-4.1-1.5-4.1-3.9 0-1.9 1.2-4.1 3.9-4.1 2.5 0 3.4 1.9 3.4 3.8 0 0.4 0 0.8-0.1 0.9H106.1zM108.9 172.1c0-0.6-0.2-1.5-1.3-1.5 -1 0-1.4 0.9-1.5 1.5H108.9zM114.2 169.1l1.1 3.7c0.1 0.5 0.3 1 0.4 1.4h0c0.1-0.4 0.2-1 0.3-1.4l0.9-3.7h2.5l-1.8 5c-1.1 3-1.8 4.2-2.7 5 -0.8 0.7-1.7 1-2.3 1l-0.5-2c0.3 0 0.7-0.2 1-0.4 0.4-0.2 0.7-0.6 1-1 0.1-0.1 0.1-0.2 0.1-0.3 0-0.1 0-0.2-0.1-0.4l-2.8-7H114.2zM121.7 176.9c-0.8 0-1.4-0.6-1.4-1.4 0-0.8 0.6-1.4 1.4-1.4s1.4 0.6 1.4 1.4c0 0.8-0.6 1.4-1.4 1.4H121.7z" fill="#676767"/><path d="M128.5 166.2h2.4v8.5h4.2v2h-6.6V166.2zM139.1 167c0 0.7-0.5 1.2-1.3 1.2 -0.7 0-1.2-0.5-1.2-1.2 0-0.7 0.5-1.2 1.2-1.2C138.6 165.8 139.1 166.3 139.1 167zM136.7 176.8v-7.6h2.4v5.8 1.9H136.7zM143 169.1l1 3.5c0.2 0.6 0.3 1.2 0.4 1.9h0c0.1-0.6 0.3-1.2 0.4-1.9l1-3.5h2.5l-2.8 7.6h-2.4l-2.8-7.6H143zM151.1 173.7c0.1 1 1 1.5 2.2 1.5 0.8 0 1.5-0.1 2.1-0.3l0.3 1.6c-0.8 0.3-1.7 0.5-2.8 0.5 -2.6 0-4.1-1.5-4.1-3.9 0-1.9 1.2-4.1 3.9-4.1 2.5 0 3.4 1.9 3.4 3.8 0 0.4 0 0.8-0.1 0.9H151.1zM153.9 172.1c0-0.6-0.2-1.5-1.3-1.5 -1 0-1.4 0.9-1.5 1.5H153.9zM160.7 165.7h2.4v4.4h0c0.5-0.7 1.3-1.1 2.3-1.1 1.8 0 3.2 1.5 3.1 3.9 0 2.7-1.7 4.1-3.5 4.1 -0.9 0-1.7-0.3-2.3-1.2h0l-0.1 1.1h-2c0-0.5 0.1-1.4 0.1-2.3V165.7zM163.1 173.5c0 0.2 0 0.3 0 0.4 0.2 0.6 0.7 1.1 1.4 1.1 1 0 1.6-0.8 1.6-2.2 0-1.2-0.5-2.1-1.6-2.1 -0.6 0-1.2 0.5-1.4 1.2 0 0.1 0 0.3 0 0.4V173.5zM171.9 173.7c0.1 1 1 1.5 2.2 1.5 0.8 0 1.5-0.1 2.1-0.3l0.3 1.6c-0.8 0.3-1.7 0.5-2.8 0.5 -2.6 0-4.1-1.5-4.1-3.9 0-1.9 1.2-4.1 3.9-4.1 2.5 0 3.4 1.9 3.4 3.8 0 0.4 0 0.8-0.1 0.9H171.9zM174.7 172.1c0-0.6-0.3-1.5-1.3-1.5 -1 0-1.4 0.9-1.5 1.5H174.7zM181.3 167v2.1h1.7v1.7h-1.7v2.8c0 0.9 0.2 1.3 0.9 1.3 0.3 0 0.5 0 0.7-0.1l0 1.8c-0.3 0.1-0.9 0.2-1.5 0.2 -0.8 0-1.4-0.3-1.8-0.7 -0.4-0.5-0.7-1.2-0.7-2.3v-3.1h-1v-1.7h1v-1.4L181.3 167zM187.3 167v2.1h1.7v1.7h-1.7v2.8c0 0.9 0.2 1.3 0.9 1.3 0.3 0 0.5 0 0.7-0.1l0 1.8c-0.3 0.1-0.9 0.2-1.5 0.2 -0.8 0-1.4-0.3-1.8-0.7 -0.4-0.5-0.7-1.2-0.7-2.3v-3.1h-1v-1.7h1v-1.4L187.3 167zM192.5 173.7c0.1 1 1 1.5 2.2 1.5 0.8 0 1.5-0.1 2.1-0.3l0.3 1.6c-0.8 0.3-1.7 0.5-2.8 0.5 -2.6 0-4.1-1.5-4.1-3.9 0-1.9 1.2-4.1 3.9-4.1 2.5 0 3.4 1.9 3.4 3.8 0 0.4 0 0.8-0.1 0.9H192.5zM195.3 172.1c0-0.6-0.2-1.5-1.3-1.5 -1 0-1.4 0.9-1.5 1.5H195.3zM199.2 171.6c0-1.1 0-1.9-0.1-2.5h2l0.1 1.4h0.1c0.4-1.1 1.3-1.6 2.1-1.6 0.2 0 0.3 0 0.5 0v2.2c-0.2 0-0.4-0.1-0.6-0.1 -0.9 0-1.5 0.5-1.6 1.2 0 0.2 0 0.3 0 0.5v3.9h-2.4V171.6zM206.4 176.9c-0.8 0-1.4-0.6-1.4-1.4 0-0.8 0.6-1.4 1.4-1.4 0.8 0 1.4 0.6 1.4 1.4 0 0.8-0.6 1.4-1.4 1.4H206.4z" fill="#676767"/><path d="M239.9 133.1c1.3 0 2.4-0.7 2.5-1.6l1.3-14.7c0-1.5-1.7-2.6-3.8-2.6 -2.1 0-3.8 1.2-3.8 2.6l1.3 14.7c0.1 0.9 1.2 1.6 2.5 1.6H239.9zM231.9 137.7c0.7-1.1 0.6-2.4-0.1-3l-12.1-8.5c-1.3-0.7-3.1 0.1-4.2 2 -1.1 1.9-0.9 3.9 0.4 4.6l13.4 6.2c0.8 0.3 2-0.3 2.6-1.4L231.9 137.7zM247.8 137.7c0.7 1.1 1.8 1.7 2.6 1.4l13.4-6.2c1.3-0.7 1.4-2.8 0.4-4.6 -1.1-1.9-3-2.7-4.2-2l-12.1 8.5c-0.7 0.6-0.7 1.9-0.1 3L247.8 137.7z" fill="#676767"/><path d="M239.9 151.5c1.3 0 2.4 0.7 2.5 1.6l1.3 14.7c0 1.5-1.7 2.6-3.8 2.6 -2.1 0-3.8-1.2-3.8-2.6l1.3-14.7c0.1-0.9 1.2-1.6 2.5-1.6H239.9zM247.8 146.9c0.7-1.1 1.8-1.7 2.6-1.4l13.4 6.2c1.3 0.7 1.4 2.8 0.4 4.7 -1.1 1.8-3 2.7-4.2 2l-12.1-8.5c-0.7-0.6-0.7-1.9-0.1-3L247.8 146.9zM231.9 146.9c0.7 1.1 0.6 2.4-0.1 3l-12.1 8.5c-1.3 0.7-3.1-0.2-4.2-2 -1.1-1.9-0.9-3.9 0.4-4.7l13.4-6.2c0.8-0.3 2 0.3 2.6 1.4L231.9 146.9z" fill="#676767"/><path d="M170.3 144c0-5.6-2.4-10.4-10.4-10.4 -4.1 0-7.4 1.2-9.2 2.2l1.3 4.5c1.6-1 4.2-1.9 6.7-1.9 4.1 0 4.7 2.3 4.7 3.8v0.4c-8.9 0-14.5 3.1-14.5 9.3 0 3.8 2.9 7.4 7.8 7.4 3.1 0 5.6-1.2 7.1-3.2h0.2c0 0 1 4.2 6.6 2.6 -0.3-1.8-0.4-3.6-0.4-5.9V144zM163.6 149.8c0 0.5 0 0.9-0.2 1.3 -0.5 1.7-2.3 3.1-4.5 3.1 -1.8 0-3.3-1-3.3-3.2 0-3.4 3.7-4.3 7.9-4.3V149.8zM32.1 126c0 0 5.8 23.7 6.7 27.6 1.1 4.5 3 6.2 8.6 5l3.6-14.7c0.9-3.7 1.5-6.3 2.1-10h0.1c0.4 3.8 1 6.3 1.8 10 0 0 1.5 6.7 2.2 10.2 0.8 3.5 2.9 5.7 8.4 4.5l8.6-32.6h-7l-2.9 14.1c-0.8 4.1-1.5 7.3-2.1 11.1h-0.1c-0.5-3.7-1.1-6.8-1.9-10.8l-3.1-14.4h-7.2l-3.3 14c-0.9 4.3-1.8 7.7-2.3 11.3h-0.1c-0.6-3.4-1.3-7.7-2.1-11.9 0 0-1.9-10-2.6-13.5H32.1zM94.1 144c0-5.6-2.4-10.4-10.4-10.4 -4.1 0-7.4 1.2-9.2 2.2l1.3 4.5c1.6-1 4.2-1.9 6.7-1.9 4.1 0 4.7 2.3 4.7 3.8v0.4c-8.9 0-14.5 3.1-14.5 9.3 0 3.8 2.9 7.4 7.8 7.4 3.1 0 5.6-1.2 7.1-3.2h0.2c0 0 1 4.2 6.6 2.6 -0.3-1.8-0.4-3.6-0.4-5.9V144zM87.4 149.8c0 0.5 0 0.9-0.2 1.3 -0.5 1.7-2.3 3.1-4.5 3.1 -1.8 0-3.3-1-3.3-3.2 0-3.4 3.7-4.3 7.9-4.3V149.8z" fill="#676767"/><polygon points="105.1 151.7 105.1 126 98.5 126 98.5 158.6 105.1 158.6 " fill="#676767"/><path d="M191.8 126c0 3.1 0 24.1 0 24.1 0 3.3 0.6 5.6 2 7.1 1.2 1.2 3.1 2 5.4 2 2 0 3.9-0.4 4.8-0.7l-0.1-5.2c-0.7 0.2-1.5 0.3-2.5 0.3 -2.3 0-3-1.4-3-4.4v-9.2h5.8v-6.2h-5.8v-7.7H191.8zM174.7 134.1v24.5h6.8v-12.5c0-0.7 0-1.3 0.1-1.8 0.5-2.6 2.5-4.3 5.4-4.3 0.8 0 1.4 0.1 2 0.2v-6.4c-0.5-0.1-0.9-0.2-1.5-0.2 -2.6 0-5.5 1.6-6.7 5.2h-0.2v-4.6H174.7zM109.7 134.1v24.5h6.7v-14.4c0-0.7 0.1-1.4 0.3-2 0.6-1.4 1.9-3.1 4-3.1 2.7 0 3.9 2.3 3.9 5.6v14h6.7v-14.5c0-0.6 0.1-1.4 0.3-2 0.5-1.6 2-3 4-3 2.7 0 4 2.2 4 6.1 0 0 0 10.4 0 13.4h6.7v-14.4c0-7.6-3.9-10.6-8.2-10.6 -1.9 0-3.5 0.5-4.8 1.3 -1.2 0.7-2.2 1.7-3.1 3.1h-0.1c-1.1-2.6-3.5-4.4-6.8-4.4 -4.1 0-6 2.1-7.1 3.9h-0.1v-3.3H109.7z" fill="#676767"/><path d="M266.7 157.1c0.7 0 1.2 0.5 1.2 1.1 0 0.6-0.5 1.1-1.2 1.1 -0.7 0-1.2-0.5-1.2-1.1 0-0.6 0.5-1.1 1.2-1.1H266.7zM266.7 157.3c-0.5 0-0.9 0.4-0.9 0.9 0 0.5 0.4 0.9 0.9 0.9 0.5 0 0.9-0.4 0.9-0.9 0-0.5-0.4-0.9-0.9-0.9H266.7zM266.5 158.8h-0.3v-1.1c0.1 0 0.3 0 0.4 0 0.2 0 0.3 0 0.4 0.1 0.1 0 0.1 0.1 0.1 0.2 0 0.1-0.1 0.2-0.2 0.3v0c0.1 0 0.2 0.1 0.2 0.3 0 0.2 0.1 0.2 0.1 0.3h-0.3c0 0-0.1-0.1-0.1-0.3 0-0.1-0.1-0.2-0.2-0.2h-0.1V158.8zM266.5 158.2h0.1c0.1 0 0.3 0 0.3-0.2 0-0.1-0.1-0.2-0.2-0.2 -0.1 0-0.1 0-0.1 0V158.2z" fill="#676767"/></svg>