<svg xmlns="http://www.w3.org/2000/svg" version="1.1" x="0" y="0" width="300" height="300" viewBox="0 0 300 300" xml:space="preserve"><style>.s0{fill:#666;}</style><path d="M209.8 86.6c-39 0-78 0-116.9 0 -0.8 0-1 0.1-1 0.9 0 19.6 0 39.2 0 58.7 0 19.6 0 39.1 0.2 58.6 0 0.9 0.2 1 1 1 38.9 0 77.8 0 116.8 0 0.8 0 1-0.2 1-1 0-39.1 0-78.2 0-117.3C210.8 86.7 210.6 86.6 209.8 86.6zM166.4 125.3c2.8 0.1 5.4 0.1 8.2 0 1 0 0.8 0.6 0.9 1.1 0.1 0.6-0.1 1.1-0.9 0.9 -0.2-0.1-0.6 0-0.8 0 -1.1-0.2-1.5 0.5-1.5 1.4 0 3.7 0 7.3 0 11 0 0.5 0.2 0.6 0.6 0.6 1.9 0 3.8 0.1 5.6-0.2 1.1-0.2 2.1-1.4 2.2-2.8 0-0.4 0.1-0.7 0.1-1.1 0.1-1.1 0.9-0.9 1.5-0.9 0.9 0 0.6 0.6 0.6 1.2 0 1.7-0.1 3.3 0 5 0 0.8-0.2 0.9-0.9 0.9 -2.4-0.1-5 0-7.5 0 -2.5 0-5-0.1-7.6 0 -0.9 0-0.9-0.4-0.8-0.9 0.1-0.5-0.4-1.2 0.7-1.1 1.3 0 1.6-0.2 1.6-1.7 0-3.2 0-6.3 0-9.5 0-1.7-0.2-1.8-1.9-1.8 -0.6 0-1.3 0.4-1.3-0.9C165.2 125.5 165.5 125.2 166.4 125.3zM147.1 125.6c0.2-0.4 0.4-0.3 0.6-0.3 3 0 6 0 9 0 1.1 0 0.6 0.7 0.6 1.2 0.1 0.5 0.1 0.9-0.7 0.9 -2.4 0-2.4 0.1-2.4 2.5 0 3.2 0 6.4 0 9.5 0 0.6 0.1 0.9 0.9 0.9 1.7-0.1 3.5 0 5.3-0.2 1.3-0.2 2.3-1.7 2.3-3.5 0-0.6-0.2-1.2 0.9-1.3 0.9-0.1 1.3 0.2 1.3 1.2 -0.1 1.7-0.1 3.3 0 5 0 0.6-0.1 0.9-0.9 0.9 -5.3 0-10.6-0.1-15.9 0 -0.9 0-0.8-0.6-0.8-1.1 0-0.6-0.2-1 0.8-1 2.2 0.1 2.4-0.2 2.4-2.4 -0.1-1.1-0.1-2.4-0.1-3.8 0-1.5 0-3 0-4.6s-0.4-2-2-2C147.1 127.3 146.7 126.7 147.1 125.6zM99.2 127.2c-1 0-0.6-0.9-0.7-1.3 -0.1-0.6 0.2-0.7 0.7-0.7 2.5 0 5 0.1 7.5 0 0.9 0 0.6 0.6 0.6 1 0 0.5 0.2 1-0.7 1 -1.7 0-1.9 0.3-1.3 1.7 1.2 2.7 2.2 5.4 3.2 8.3 0.1 0.2 0.2 0.2 0.3 0.4 1.1-2.8 2.2-5.4 3.2-8.1 0.6-1.4-0.3-2.4-1.9-2.4 -1.3 0-1.6-0.5-1.3-1.7 0.1-0.4 0.3-0.3 0.6-0.3 2.8 0 5.4 0 8.2 0 0.6 0 0.6 0.2 0.6 0.7 -0.1 0.5 0.3 1.3-0.6 1.3 -0.4 0.1-0.8 0-1.1 0 -0.9 0-1.3 0.3-0.9 1.2 1 2.6 2.1 5.2 3 7.9 0.2 0.5 0.3 0.9 0.6 1.5 1.2-3.2 2.4-6.1 3.5-9.1 0.4-1 0-1.3-1.2-1.4 -0.7 0-1.6 0.3-1.5-1 0-0.9 0.2-1 1-1 7.8 0 15.6 0 23.4 0 0.9 0 1.1 0.2 1 1 -0.1 1.6 0 3.2 0 4.7 0 0.3 0.2 0.9-0.5 0.8 -0.6-0.2-1.3 0.6-1.7-0.6 -0.1-0.2-0.2-0.4-0.2-0.6 -0.2-2.4-0.9-3.2-3.3-3.3 -1.7-0.1-3.2 0-4.9 0 -0.5 0-0.7 0.1-0.6 0.6 0 1.3 0 2.5 0 3.8 0 0.5 0.1 0.6 0.6 0.6 2.1 0.1 2.9-0.6 3-2.7 0-0.8 0.4-0.7 0.9-0.7 0.6 0 1.2-0.2 1.2 0.8 0 2.4 0 4.9 0 7.4 0 0.8-0.5 0.8-1 0.7 -0.5-0.1-0.9 0.3-1.1-0.6 -0.2-0.9 0.2-2.2-1.3-2.6 -0.7-0.2-1.3-0.1-2-0.1 -0.3 0-0.3 0.2-0.3 0.5 0 1.7 0 3.2 0 4.9 0 0.5 0.2 0.6 0.6 0.6 1.9-0.1 3.9 0.2 5.8-0.2 1.7-0.3 2.3-1 2.7-2.4 0.2-0.5 0.3-1 0.3-1.5 0-0.7 0.3-0.8 0.9-0.9 0.9-0.1 1.2 0.2 1.2 1.2 -0.1 1.7-0.1 3.5 0 5.2 0 0.6-0.2 0.7-0.7 0.7 -5.8 0-11.5 0-17.3 0 -0.9 0-0.7-0.6-0.7-1s-0.3-1.2 0.6-1c0.3 0.1 0.7 0.1 1 0 0.9-0.1 1.5-0.4 1.5-1.5 -0.1-3.3 0-6.6 0-9.9 0-1.2-0.3-1.5-1.5-1.6 -2.9-0.1-2.5-0.1-3.9 3.5s-2.8 7.2-4.1 10.9c-0.2 0.6-0.5 0.7-1 0.7 -2.2 0.1-2.2 0.1-3.1-1.9 -1-2.5-2-5-3.1-7.6 -1.2 3-2.4 5.8-3.5 8.8 -0.2 0.5-0.3 0.6-0.7 0.6 -2.8 0.1-2.7 0.1-3.6-2.4 -1.3-3.6-2.8-7.2-4.3-10.8C101.2 128 100.5 127.2 99.2 127.2zM110.5 157c0 0.6 0.2 0.7 0.7 0.6 0.2 0 0.4 0 0.6 0 1.7 0 2.3-0.5 2.4-2.3 0-0.6 0.1-0.9 0.8-0.9 0.8 0 0.8 0.4 0.8 0.9 0 2.2 0 4.5 0 6.7 0 0.3 0.4 1-0.5 1 -0.6 0-1.3 0.2-1.2-0.8 0-0.2-0.2-0.3-0.2-0.6 -0.2-1.8-1.1-2.4-3-2.1 -0.5 0.1-0.4 0.3-0.4 0.6 0 1.5 0 2.9 0 4.4 0 0.7 0.4 0.9 0.9 0.9 0.6 0.1 1 0 1.6 0s1.3-0.2 1.3 0.9c0 0.9-0.3 1.3-1.3 1.2 -2.8-0.1-5.5-0.1-8.3 0 -0.9 0-1.2-0.2-1.3-1.1 -0.1-1 0.4-0.9 1.1-0.9 1.7 0 1.9-0.2 1.9-1.8 0-3.1 0-6.1 0-9.2 0-2-0.1-1.9-2-2 -1-0.1-0.9-0.5-0.9-1.2 -0.1-0.9 0.6-0.7 1-0.7 2.7 0.2 5.3 0.2 7.9 0.2 2.6 0 5.2 0 7.8 0 0.7 0 0.9 0.2 0.9 0.9 -0.1 1.7-0.1 3.3 0 5 0.1 1-0.6 0.7-1.1 0.7s-1.1 0.2-0.9-0.7c0.1-0.4 0.1-0.9-0.1-1.3 -0.6-2-0.9-2.5-3.5-2.6 -1.3 0-2.8 0-4.1 0 -0.6 0-0.8 0.1-0.8 0.7C110.6 154.6 110.6 155.8 110.5 157zM158.2 164c-0.2 1.5-0.3 3-1.9 3.7 -1.6 0.7-3.9 0.3-4.9-0.7 -0.5-0.4-0.6-0.9-0.6-1.5 0-1.1-0.2-2.2-0.2-3.4 -0.1-1.3-0.7-2.2-2.2-2.4 -0.8-0.1-1.7-0.2-2.4-0.2 -0.7 0-0.8 0.2-0.8 0.9 0.1 1.3 0.1 2.8 0 4.1 -0.1 0.9 0.5 1.1 1.1 1.2 0.2 0.1 0.6 0.1 0.8 0 1.1-0.2 1.4 0.2 1.3 1.3 -0.1 0.6-0.2 0.7-0.8 0.7 -2.6 0-5.1 0-7.7 0 -3.2 0-6.5 0-9.8 0 -1 0-1-0.5-1.1-1.3 -0.1-0.9 0.4-0.9 1-0.9 2.7 0.1 2.8 0 1.7-2.7 -0.2-0.5-0.4-0.7-1-0.7 -1.7 0.1-3.3 0.1-5 0 -0.6 0-0.9 0.2-1.2 0.8 -0.1 0.2-0.1 0.4-0.2 0.6 -0.9 2.1-0.9 2.1 1.5 2.1 0.6 0 1.2-0.1 1.2 0.9 -0.1 0.9-0.3 1.2-1.2 1.1 -2.3-0.1-4.7-0.1-6.9 0 -0.9 0-0.8-0.4-0.8-0.9 0.1-0.5-0.3-1.2 0.7-1.1 1.9 0.2 2.1-1.5 2.7-2.7 1.7-3.9 3.4-8 5-12 0.2-0.5 0.4-0.3 0.7-0.3 0.8 0 1.6 0.1 2.4 0 1.3-0.2 1.6 0.5 2 1.4 1.7 4.1 3.3 8.2 5 12.2 0.6 1.3 2.8 1.9 4 1.1 0.5-0.3 0.8-0.9 0.8-1.5 0-3.2 0-6.5 0-9.8 0-1.3-0.2-1.3-2.1-1.6 -0.9-0.1-1.3-0.7-1-1.6 0.2-0.4 0.4-0.2 0.6-0.2 4.3 0 8.8-0.2 13.1 0.1 2.1 0.1 3.6 0.9 4.3 2.7 0.6 1.9-0.3 4.3-3 5.2 -0.6 0.1-1.1 0.2-2 0.4 3.2 0.7 3.5 2.8 3.4 5.2 0 0.6 0.2 1.1 0.9 1.2 0.6 0.1 0.9-0.1 0.9-0.8 0-0.2 0-0.6 0-0.8 -0.1-0.7 0-1.2 1-1.2C158.6 162.8 158.3 163.5 158.2 164zM176.5 160.8c-1.6-0.2-1.1 1.1-1.2 1.7 -0.2 1.4 0 2.8-0.1 4.3 0 0.3 0.2 0.8-0.4 0.7 -0.4-0.1-1 0.4-1.3-0.3 -0.3-0.9-0.8-0.7-1.5-0.3 -3.3 1.6-6.6 1.8-9.8-0.5 -2-1.5-3.2-3.5-3.5-6.1 -0.2-2 0-4 0.9-5.8 1.3-2.3 3.2-3.5 5.8-4 2.1-0.4 3.9-0.1 5.8 0.7 0.5 0.2 0.9 0.5 1.3 0.9 0.3-0.6 0.6-0.9 0.7-1.4 0.2-0.6 0.7-0.5 1.1-0.5 0.5 0.1 0.5 0.5 0.5 0.9 0 1.3 0 2.8 0 4.1 0 0.3 0.3 0.9-0.4 0.9 -0.6-0.1-1.3 0.4-1.7-0.6 -1-2.9-4.3-3.7-7.1-2.5 -1.4 0.6-2 1.8-2.4 3.3 -0.7 2.4-0.6 4.8 0.6 7 1.4 3 4.9 2.9 7 1.6 0.9-0.6 1.5-2.9 1.1-3.9 -0.2-0.3-0.3-0.2-0.6-0.2 -0.4 0-0.8-0.1-1.1 0 -0.9 0.1-1-0.4-1.1-1.1 -0.1-0.9 0.3-0.9 1-0.9 2 0 4.1 0.1 6.1 0 0.9-0.1 0.8 0.5 0.8 1C177.3 160.3 177.5 161 176.5 160.8zM194.9 166.2c-4.2 2.9-11 2.4-14.3-1.4 -2.8-3.1-2.8-8.1 0.1-11.3 1.9-2 5.3-3.3 8-3.2 3.5 0.1 6.6 1.2 8.6 4.3C199.6 158.1 198.9 163.4 194.9 166.2zM200.1 138.7c-0.6 3.2-3 3.8-5.8 4.1 -2.5 0.3-5-0.2-7.2-1.6 -0.8-0.6-0.8 0.3-0.8 0.5 0 1.3-0.9 0.8-1.6 0.9 -0.9 0.1-0.5-0.7-0.5-1 0-1.1 0-1.9 0-2.7 0-0.9 0-1.8 0-2.8 0-0.5 0-0.9 0.6-0.9 0.6 0 1.4-0.4 1.6 0.6 0.8 3.7 3.6 4.3 6.2 4.4 0.9 0.1 1.7-0.1 2.6-0.5 1.2-0.6 1.8-1.6 1.6-2.4 -0.2-1.3-1.3-1.4-2.4-1.6 -2.4-0.5-5-0.7-7.4-1.5 -1.9-0.6-2.8-1.8-3.1-3.7 -0.2-2 0.6-3.5 2.4-4.5 3.2-1.7 6.4-1.4 9.5 0.2 0.6 0.3 0.9 0.4 1.1-0.2 0.3-0.9 1.1-0.6 1.7-0.6 0.8 0.1 0.3 0.7 0.3 1.1 0.1 1.3 0 2.8 0 4.1 0 0.3 0.2 0.8-0.4 0.7 -0.6-0.1-1.3 0.5-1.6-0.4 -1.2-3.7-5.1-4.1-8-3.4 -0.9 0.2-1.5 0.9-1.6 1.8 -0.2 1.4 0.3 1.6 2.4 2.1 2.4 0.5 4.8 0.7 7.2 1.5C200 133.8 200.5 136.7 200.1 138.7zM145.1 155.3c0-2.5 0-2.5 2.5-2.5 0.8 0 1.6 0 2.4 0 1.3 0.1 2.1 0.9 2.2 2.1 0.2 1.7-0.5 2.4-2 2.8 -1.4 0.3-2.9 0.2-4.3 0.2 -0.7 0-0.8-0.2-0.8-0.9C145.1 156.4 145.1 155.8 145.1 155.3zM128.1 153.9c0.8 2 1.5 3.9 2.3 5.8 0.2 0.5 0.1 0.7-0.5 0.7 -1.3 0-2.5 0-3.8 0 -0.6 0-0.6-0.2-0.4-0.6C126.6 157.7 127.3 155.8 128.1 153.9zM188.6 152.5c2.8-0.3 5.2 2.1 5.6 4.8 0.3 2.3 0.2 4.3-1.1 6.4 -1.8 2.8-6.9 3.1-9 0 -1.5-2.2-1.7-7.3 0.4-9.5C185.6 153 187 152.4 188.6 152.5z" fill="#666"/></svg>