<?xml version="1.0" encoding="utf-8"?>
<!-- Generator: Adobe Illustrator 16.0.4, SVG Export Plug-In . SVG Version: 6.00 Build 0)  -->
<!DOCTYPE svg PUBLIC "-//W3C//DTD SVG 1.1//EN" "http://www.w3.org/Graphics/SVG/1.1/DTD/svg11.dtd">
<svg version="1.1" xmlns="http://www.w3.org/2000/svg" xmlns:xlink="http://www.w3.org/1999/xlink" x="0px" y="0px" width="300px"
	 height="300px" viewBox="0 0 300 300" enable-background="new 0 0 300 300" xml:space="preserve">
<g id="Layer_6">
</g>
<g id="Layer_3" display="none">
	<rect x="-25" y="-8" display="inline" fill="#262626" width="358" height="327"/>
</g>
<g id="Layer_1">
	<g>
		<path fill-rule="evenodd" clip-rule="evenodd" fill="#666666" d="M66.536,174.074c-6.068,0.702-12.875-0.795-15.801-6.699
			c-2.9-5.852-1.389-12.018,1.108-17.528c4.743-10.461,11.803-20.331,20.865-27.782c2.93-2.408,5.427-4.556,9.349-5.132
			c2.972-0.438,5.009,2.47,3.299,2.662c-2.513,0.282-4.103,1.38-5.097,3.266c-0.651,1.237-0.872,3.443,1.019,3.868
			c1.941,0.437,3.179-1.009,4.264-2.343c2.3-2.831,2.494-8.37-1.308-9.481c-9.539-2.785-23.271,7.604-31.597,16.909
			c-7.985,8.923-16.796,21.948-12.51,35.14c3.234,9.951,15.43,11.288,24.83,9.815c13.02-2.043,22.654-7.56,36.926-5.493
			c4.137,0.599,8.664,1.958,10.767,6.088c2.981-3.581,8.942-8.353,25.038-1.191c-6.022-6.191-14.659-8.701-23.069-9.808
			C97.797,164.152,82.888,172.182,66.536,174.074L66.536,174.074z"/>
		<polygon fill-rule="evenodd" clip-rule="evenodd" fill="#666666" points="154.54,130.295 147.486,130.295 143.646,136.561 
			150.601,136.561 154.54,130.295 		"/>
		<path fill-rule="evenodd" clip-rule="evenodd" fill="#666666" d="M261.019,113.705c-5.519,7.664-15.3,11.116-25.389,10.69
			l-5.465,6.516c18.39,0,26.382-9.448,31.35-16.908C262.156,113.038,261.315,113.009,261.019,113.705L261.019,113.705z"/>
		<path fill-rule="evenodd" clip-rule="evenodd" fill="#666666" d="M209.437,114.311c-6.954-0.796-12.221,1.542-13.612,2.088
			c-0.596-1.093-2.035-1.889-3.576-2.138c-7.625-0.701-17.09,4.227-25.155,10.705c-3.115,2.502-5.721,5.016-8.308,7.951
			c-4.821,5.473-8.302,11.071-11.715,17.493c-4.613,8.679-6.512,24.311,5.693,26.187c14.049,2.164,29.397-13.332,27.91-26.58
			c-0.771-6.889-10.448-4.295-13.941-0.391c-1.708,1.583-7.968,9.839-6.874,15.41c2.31-3.065,5.477-5.263,9.141-6.367
			c0.342-4.008,1.846-8.473,5.664-9.945c1.229-0.473,4.123-0.646,4.423,1.593c1.066,8.023-5.187,16.313-12.584,20.903
			c-3.215,1.997-10.782,3.448-12.264-1.901c-3.136-11.323,4.626-21.339,10.533-30.043c5.933-8.741,12.394-15.676,21.401-20.633
			c2.269-1.248,5.281-2.739,7.864-1.346c-1.191,0.596-6.708,3.375-9.836,7.459c-1.342,1.783-5.217,6.664-4.968,10.841
			c0.148,2.088,0.758,3.967,2.905,4.7c1.165,0.397,2.464,0.118,3.495-0.434c7.854-4.202,12.277-13.089,11.583-21.771
			c1.49-0.398,3.975-0.497,5.267,0c3.301,0.687,14.505,7.012,19.375,10.095l5.563-5.719
			C222.022,119.066,216.452,115.829,209.437,114.311z M184.286,138.331c-2.463,0.725-3.727-2.188-2.832-4.823
			c0.998-2.941,1.932-4.832,4.024-7.261c2.777-3.224,6.607-6.315,9.984-7.311C196.406,127.292,189.353,136.839,184.286,138.331z"/>
		<path fill-rule="evenodd" clip-rule="evenodd" fill="#666666" d="M129.475,154.521c-1.49,0.099-1.017-1.692-0.794-2.065
			L141.597,130h-6.956l-1.093,2.001c-4.026-4.561-10.252-0.74-13.692,2.469c-7.437,6.939-10.799,17.303-20.051,22.061
			c-2.025,1.039-4.784,0.727-5.48-1.863c-0.336-1.247-0.049-2.941,0.375-3.966c2.922-7.069,7.75-15.015,13.115-17.601
			c1.789-0.597,3.775-0.595,3.18,2.488c-1.979-1.124-3.7,0.953-4.625,2.476c-0.76,1.252-0.64,3.28,1.041,3.24
			c4.045-0.097,6.64-7.184,4.279-9.593c-5.167-5.271-13.414,3.083-18.306,8.116c-1.786,1.838-4.403,2.426-7.03,2.526
			c-0.292,0.057-0.437-0.024-0.437-0.024c1.922-3.714,3.533-9.276-0.493-11.78c-2.518-1.565-6.171,0.353-8.194,1.609
			c-5.763,3.58-11.699,10.979-14.606,20.288c-1.472,4.716,0.385,8.979,3.22,9.209c9.235,0.46,15.62-11.669,19.235-17.412
			l0.094-0.207l0.386,0.007c1.888,0,4.372-0.299,5.167-0.895c-2.584,3.779-3.677,5.768-4.597,9.608
			c-1.142,4.764,2.298,9.765,7.337,8.858c5.972-1.071,10.077-5.239,14.349-9.716c-0.994,3.382-2.319,8.013,1.668,9.306
			c4.377,1.415,8.01-2.775,11.049-5.723c-0.965,2.69-0.506,6.607,2.716,5.965c5.911-1.181,13.203-8.449,17.255-15.449h-1.59
			C136.331,149,131.958,154.521,129.475,154.521z M74.882,154.706c-1.146,0.684-4.023,1.441-5.067,0.347
			c-2.135-2.09,2.375-9.673,4.063-12.458c0.619-1.019,1.714-2.66,2.484-3.68c0.993,1.89,3.428,4.476,6.955,4.924
			C81.463,147.228,78.854,152.332,74.882,154.706z M84.183,142.157c-1.888,0.099-3.975-1.393-5.018-2.597
			c-1.378-1.59-0.694-4.029,0.98-5.528c1.504-1.349,3.981-1.848,4.928-0.512C87.156,136.021,84.878,141.56,84.183,142.157z
			 M116.25,155.098c-1.938-0.699,0.298-6.117,1.093-7.709c0.794-1.591,6.334-10.807,10.333-13.476
			c2.384-1.591,2.976-1.284,3.676-0.896c0.447,0.249,1.044,1.045,0.646,1.742l-8.496,14.47
			C122.211,151.416,118.768,156,116.25,155.098z"/>
		<path fill-rule="evenodd" clip-rule="evenodd" fill="#666666" d="M240.537,170.154c-1.491,0.102-1.02-1.508-0.795-1.883
			L252.658,146h-6.954l-1.093,1.634c-4.026-4.56-10.253-0.922-13.693,2.286c-4.055,3.781-7.454,9.039-10.701,13.385
			c-1.874,2.514-4.182,5.891-6.931,7.169c-1.082,0.503-2.882,0.502-2.984-1.058c-0.288-4.361,1.693-8.726,3.06-12.332
			c10.183-6.803,19.772-15.121,26.083-25.549l-1.641,0.083c-0.894,1.69-7.689,9.403-9.339,11.236
			c-3.014,2.684-5.943,5.704-9.259,8.089c-1.445,1.042-2.866,1.914-4.255,2.95c6.009-13.319,13.999-25.673,25.139-35.693
			c1.411-1.27,3.874-2.896,4.722-1.818c1.205,1.533-0.018,4.404-1.642,6.083c0.794,0.1,1.291-0.099,1.987-0.199
			c2.384-2.586,2.459-7.616,0.547-8.155c-3.006-0.952-9.513,2.676-13.474,5.81c-12.274,9.71-20.436,24.333-26.718,37.356
			c-0.758,0.667-2.484,0.695-3.677,0.596c1.922-3.715,3.577-9.35-0.45-11.853c-2.518-1.565-6.171,0.352-8.192,1.609
			c-5.765,3.58-11.7,10.978-14.607,20.29c-1.473,4.715,0.385,8.975,3.22,9.205c9.235,0.461,15.619-11.666,19.234-17.411
			c0.847,0.147,3.081,0.147,3.976-0.248c-1.718,5.09-5.663,13.088-0.142,16.264c5.662,3.258,10.056-3.976,13.654-7.909l0.349-0.646
			c-0.994,3.381-2.319,8.01,1.668,9.303c4.377,1.415,8.01-2.776,11.05-5.724c-0.966,2.691-0.508,6.978,2.715,6.332
			c5.912-1.182,13.202-10.084,17.256-15.084h-1.591C247.441,165,243.17,170.154,240.537,170.154z M190.834,170.078
			c-1.146,0.686-4.023,1.443-5.068,0.35c-2.134-2.089,2.376-9.675,4.064-12.459c0.618-1.02,1.714-2.661,2.483-3.681
			c0.994,1.891,3.429,4.475,6.956,4.923C197.414,162.6,194.805,167.707,190.834,170.078z M200.134,157.531
			c-1.889,0.099-3.974-1.395-5.019-2.6c-1.377-1.589-0.693-4.027,0.981-5.527c1.504-1.348,3.98-1.848,4.928-0.512
			C203.106,151.395,200.829,156.931,200.134,157.531z M227.324,170.271c-2.484-0.991,0.05-5.668,0.844-7.259
			c0.796-1.59,6.583-11.257,10.583-13.925c2.385-1.59,2.98-1.292,3.676-0.894s0.993,1.145,0.596,1.84l-8.444,14.373
			C233.286,166.594,229.808,171.268,227.324,170.271z"/>
	</g>
</g>
<g id="Layer_2" display="none">
	<rect x="42.957" y="10.89" display="inline" fill="none" width="211.746" height="257.816"/>
	<g display="inline">
		<g>
			<path fill="#666666" d="M96.35,207.574c-0.102-0.053-0.226-0.038-0.316,0.034c-1.399,1.101-2.614,1.74-4.681,1.74
				c-2.65,0-4.362-1.86-4.362-4.74c0-2.924,1.605-4.74,4.188-4.74c1.761,0,3.353,0.621,4.479,1.748
				c0.086,0.084,0.215,0.111,0.328,0.064c0.111-0.046,0.185-0.154,0.185-0.277v-4.632c0-0.107-0.056-0.206-0.149-0.259
				c-1.342-0.784-2.891-1.15-4.871-1.15c-5.512,0-9.216,3.717-9.216,9.246s3.704,9.246,9.216,9.246c2.123,0,3.685-0.397,5.226-1.325
				c0.09-0.054,0.145-0.153,0.145-0.259v-4.428C96.52,207.728,96.454,207.623,96.35,207.574z"/>
			<path fill="#666666" d="M111.666,195.362c-5.304,0-9.304,3.977-9.304,9.246c0,5.271,4,9.246,9.304,9.246
				c5.322,0,9.334-3.975,9.334-9.246C121,199.339,116.988,195.362,111.666,195.362z M111.666,209.349c-2.5,0-4.245-1.95-4.245-4.74
				c0-2.792,1.745-4.74,4.245-4.74c2.54,0,4.247,1.905,4.247,4.74C115.913,207.444,114.206,209.349,111.666,209.349z"/>
			<path fill="#666666" d="M143.431,195.655h-4.632c-0.129,0-0.244,0.081-0.286,0.202l-4.117,12.081l-4.172-12.081
				c-0.042-0.121-0.157-0.202-0.284-0.202h-4.661c-0.1,0-0.191,0.047-0.248,0.128s-0.069,0.184-0.036,0.276l6.44,17.308
				c0.044,0.117,0.157,0.194,0.283,0.194h5.273c0.126,0,0.239-0.077,0.282-0.194l6.439-17.308c0.035-0.093,0.021-0.195-0.034-0.276
				C143.622,195.702,143.53,195.655,143.431,195.655z"/>
			<path fill="#666666" d="M161.238,209.145h-7.072v-2.37h6.229c0.164,0,0.3-0.136,0.3-0.303v-3.729c0-0.166-0.136-0.3-0.3-0.3
				h-6.229v-2.371h6.869c0.166,0,0.3-0.134,0.3-0.3v-3.817c0-0.167-0.134-0.3-0.3-0.3h-11.452c-0.165,0-0.3,0.133-0.3,0.3v17.307
				c0,0.167,0.135,0.3,0.3,0.3h11.655c0.166,0,0.301-0.133,0.301-0.3v-3.817C161.539,209.278,161.404,209.145,161.238,209.145z"/>
			<path fill="#666666" d="M178.873,206.893c1.896-1.121,2.979-3.009,2.979-5.228c0-4.063-2.735-6.303-7.701-6.303
				c-1.93,0-4.201,0.158-5.528,0.385c-0.146,0.023-0.251,0.149-0.251,0.296v17.219c0,0.167,0.135,0.3,0.301,0.3h4.312
				c0.166,0,0.3-0.133,0.3-0.3v-5.234h0.794l3.64,5.402c0.056,0.084,0.149,0.132,0.249,0.132h5.101c0.111,0,0.214-0.062,0.266-0.162
				c0.051-0.1,0.043-0.221-0.022-0.312L178.873,206.893z M176.851,201.78c0,0.897-0.289,2.092-2.788,2.092h-0.778v-4.115
				c0.274-0.019,0.65-0.033,0.894-0.033C175.951,199.724,176.851,200.415,176.851,201.78z"/>
			<path fill="#666666" d="M200.873,209.145h-7.072v-2.37h6.229c0.165,0,0.3-0.136,0.3-0.303v-3.729c0-0.166-0.135-0.3-0.3-0.3
				h-6.229v-2.371h6.869c0.165,0,0.301-0.134,0.301-0.3v-3.817c0-0.167-0.136-0.3-0.301-0.3h-11.452c-0.167,0-0.3,0.133-0.3,0.3
				v17.307c0,0.167,0.133,0.3,0.3,0.3h11.655c0.166,0,0.3-0.133,0.3-0.3v-3.817C201.173,209.278,201.039,209.145,200.873,209.145z"
				/>
			<path fill="#666666" d="M214.104,195.362c-2.112,0-4.51,0.229-5.845,0.442c-0.146,0.021-0.253,0.148-0.253,0.297v16.985
				c0,0.143,0.098,0.264,0.236,0.294c1.722,0.375,4.593,0.414,5.747,0.414c6.431,0,10.119-3.411,10.119-9.361
				C224.108,198.755,220.369,195.362,214.104,195.362z M214.512,209.408c-0.538,0-1.11-0.023-1.563-0.062v-9.33
				c0.439-0.038,0.98-0.06,1.478-0.06c2.939,0,4.624,1.63,4.624,4.477C219.05,207.641,217.438,209.408,214.512,209.408z"/>
		</g>
		<g>
			<path fill="#666666" d="M93.793,230.988c-0.068-0.034-0.151-0.025-0.211,0.023c-1.042,0.822-1.947,1.299-3.488,1.299
				c-1.98,0-3.262-1.391-3.262-3.541c0-2.186,1.2-3.543,3.132-3.543c1.313,0,2.499,0.464,3.34,1.303
				c0.059,0.059,0.146,0.076,0.22,0.046c0.075-0.03,0.124-0.105,0.124-0.187v-3.439c0-0.07-0.038-0.138-0.099-0.174
				c-0.993-0.58-2.14-0.851-3.607-0.851c-4.08,0-6.82,2.751-6.82,6.845c0,4.09,2.74,6.841,6.82,6.841
				c1.572,0,2.729-0.293,3.868-0.979c0.06-0.038,0.097-0.104,0.097-0.174v-3.288C93.907,231.093,93.863,231.022,93.793,230.988z"/>
			<path fill="#666666" d="M106.852,222.271c-0.029-0.078-0.103-0.129-0.186-0.129h-3.872c-0.083,0-0.158,0.051-0.188,0.129
				l-4.997,12.851c-0.024,0.061-0.016,0.131,0.021,0.186c0.038,0.055,0.1,0.088,0.166,0.088h3.396c0.085,0,0.161-0.054,0.189-0.133
				l0.839-2.312h4.908l0.818,2.312c0.03,0.079,0.104,0.133,0.19,0.133h3.526c0.002,0,0.006,0,0.01,0c0.11,0,0.2-0.09,0.2-0.202
				c0-0.047-0.017-0.09-0.044-0.126L106.852,222.271z M106.057,229.931h-2.717l1.377-3.771L106.057,229.931z"/>
			<path fill="#666666" d="M124.341,232.159h-4.688v-9.817c0-0.109-0.09-0.2-0.201-0.2h-3.224c-0.111,0-0.201,0.091-0.201,0.2
				v12.851c0,0.112,0.09,0.202,0.201,0.202h8.113c0.11,0,0.2-0.09,0.2-0.202v-2.833
				C124.542,232.249,124.451,232.159,124.341,232.159z"/>
			<path fill="#666666" d="M132.562,222.142h-3.224c-0.11,0-0.2,0.091-0.2,0.2v12.851c0,0.112,0.09,0.202,0.2,0.202h3.224
				c0.112,0,0.201-0.09,0.201-0.202v-12.851C132.763,222.232,132.673,222.142,132.562,222.142z"/>
			<path fill="#666666" d="M146.256,222.142h-7.809c-0.112,0-0.201,0.091-0.201,0.2v12.851c0,0.112,0.089,0.202,0.201,0.202h3.224
				c0.11,0,0.2-0.09,0.2-0.202v-4.298h3.887c0.111,0,0.201-0.091,0.201-0.202v-2.79c0-0.109-0.09-0.2-0.201-0.2h-3.887v-2.324h4.385
				c0.111,0,0.202-0.09,0.202-0.2v-2.836C146.458,222.232,146.368,222.142,146.256,222.142z"/>
			<path fill="#666666" d="M157.506,221.925c-3.926,0-6.885,2.943-6.885,6.845c0,3.898,2.959,6.841,6.885,6.841
				c3.939,0,6.907-2.942,6.907-6.841C164.413,224.868,161.445,221.925,157.506,221.925z M157.506,232.311
				c-1.869,0-3.173-1.458-3.173-3.541c0-2.086,1.304-3.543,3.173-3.543c1.898,0,3.174,1.424,3.174,3.543
				C160.68,230.888,159.404,232.311,157.506,232.311z"/>
			<path fill="#666666" d="M177.013,230.456c1.415-0.825,2.221-2.225,2.221-3.873c0-3.002-2.023-4.658-5.695-4.658
				c-1.432,0-3.118,0.118-4.1,0.286c-0.098,0.016-0.169,0.099-0.169,0.196v12.785c0,0.112,0.091,0.202,0.201,0.202h3.201
				c0.111,0,0.201-0.09,0.201-0.202v-3.907h0.623l2.708,4.021c0.037,0.055,0.1,0.088,0.167,0.088h3.786
				c0.075,0,0.144-0.043,0.178-0.109c0.036-0.067,0.028-0.146-0.015-0.208L177.013,230.456z M175.564,226.671
				c0,1.058-0.684,1.571-2.092,1.571h-0.6v-3.097c0.206-0.017,0.497-0.027,0.686-0.027
				C174.474,225.118,175.564,225.387,175.564,226.671z"/>
			<path fill="#666666" d="M196.254,222.142h-3.116c-0.111,0-0.2,0.091-0.2,0.2v7.204l-4.802-7.313
				c-0.037-0.057-0.102-0.091-0.168-0.091h-3.245c-0.11,0-0.201,0.091-0.201,0.2v12.851c0,0.112,0.091,0.202,0.201,0.202h3.116
				c0.111,0,0.201-0.09,0.201-0.202v-7.08l4.998,7.196c0.037,0.054,0.099,0.086,0.165,0.086h3.051c0.111,0,0.202-0.09,0.202-0.202
				v-12.851C196.456,222.232,196.365,222.142,196.254,222.142z"/>
			<path fill="#666666" d="M205.362,222.142h-3.223c-0.111,0-0.201,0.091-0.201,0.2v12.851c0,0.112,0.09,0.202,0.201,0.202h3.223
				c0.111,0,0.201-0.09,0.201-0.202v-12.851C205.563,222.232,205.474,222.142,205.362,222.142z"/>
			<path fill="#666666" d="M223.961,235.066l-4.977-12.796c-0.029-0.078-0.105-0.129-0.188-0.129h-3.873
				c-0.083,0-0.156,0.051-0.187,0.129l-4.997,12.851c-0.024,0.061-0.016,0.131,0.021,0.186c0.038,0.055,0.1,0.088,0.166,0.088h3.397
				c0.085,0,0.159-0.054,0.188-0.133l0.839-2.312h4.908l0.818,2.312c0.029,0.079,0.104,0.133,0.189,0.133h3.526
				c0.004,0,0.006,0,0.01,0c0.111,0,0.201-0.09,0.201-0.202C224.005,235.146,223.987,235.103,223.961,235.066z M218.188,229.931
				h-2.718l1.378-3.771L218.188,229.931z"/>
		</g>
		<path fill="#666666" d="M152.748,53.986c-39.259,0-71.199,32.667-71.199,72.819c0,19.161,7.188,37.192,20.258,50.873l8.027-8.211
			c-10.376-11.382-16.082-26.234-16.082-41.921c0-33.644,26.354-61.014,58.749-61.014c32.393,0,58.747,27.371,58.747,61.014
			c0,15.564-5.631,30.333-15.87,41.686l8.306,8.449c13.074-13.686,20.263-31.716,20.263-50.876
			C223.947,86.653,192.008,53.986,152.748,53.986z"/>
		<path fill="#666666" d="M152.502,68.227c-31.462,0-57.056,26.611-57.056,59.32c0,15.229,5.524,29.648,15.576,40.71l5.749-5.877
			c2.086-2.135,2.445-6.045,0.788-8.54c-0.391-0.589-9.562-14.527-9.562-27.034l0.052-1.956
			c1.013-24.556,20.646-43.783,44.699-43.783c24.048,0,43.684,19.226,44.702,43.771l0.046,1.948
			c-0.532,12.675-9.192,26.259-9.561,26.831c-1.729,2.601-1.354,6.659,0.811,8.872l5.443,5.535
			c9.916-11.031,15.366-25.368,15.366-40.477C209.556,94.838,183.96,68.227,152.502,68.227z"/>
		<g>
			<path fill="#666666" d="M211.517,175.102v0.472h-0.796v2.191h-0.56v-2.191h-0.8v-0.472H211.517z"/>
			<path fill="#666666" d="M213.607,175.102h0.801v2.663h-0.518v-1.801c0-0.053,0-0.125,0.001-0.217
				c0.001-0.095,0.002-0.166,0.002-0.217l-0.504,2.234h-0.54l-0.502-2.234c0,0.051,0.002,0.122,0.002,0.217
				c0.001,0.092,0.002,0.164,0.002,0.217v1.801h-0.519v-2.663h0.811l0.484,2.094L213.607,175.102z"/>
		</g>
		<g>
			<path fill="#666666" d="M170.972,160.632v-29.935c0-0.185,0.095-0.355,0.25-0.452c0.155-0.098,0.351-0.107,0.516-0.029
				c2.805,1.351,6.036,1.347,8.836-0.001c0.165-0.081,0.36-0.069,0.518,0.027c0.153,0.099,0.248,0.269,0.248,0.454v21.913
				 M154.807,165.177v-54.583c0-0.184,0.095-0.354,0.249-0.451c0.156-0.098,0.35-0.109,0.517-0.029c2.805,1.349,6.032,1.349,8.836,0
				c0.168-0.08,0.361-0.069,0.517,0.029c0.155,0.097,0.25,0.267,0.25,0.451v52.552 M139.307,162.971v-20.428
				c0-0.183,0.094-0.354,0.249-0.452c0.155-0.096,0.353-0.108,0.517-0.027c2.801,1.35,6.039,1.347,8.836-0.002
				c0.165-0.08,0.359-0.069,0.515,0.029c0.157,0.097,0.25,0.268,0.25,0.451v22.596 M123.807,152.761V123.95
				c0-0.184,0.094-0.354,0.249-0.453c0.156-0.098,0.351-0.108,0.516-0.028c2.802,1.351,6.039,1.348,8.836,0
				c0.165-0.082,0.359-0.069,0.517,0.029c0.155,0.097,0.25,0.269,0.25,0.451v36.757 M128.988,121.125
				c-3.773,0-6.844-3.07-6.844-6.844c0-3.776,3.071-6.846,6.844-6.846c3.775,0,6.848,3.07,6.848,6.846
				C135.836,118.054,132.763,121.125,128.988,121.125z M144.488,139.717c-3.772,0-6.843-3.069-6.843-6.844
				c0-3.775,3.071-6.846,6.843-6.846c3.775,0,6.848,3.071,6.848,6.846C151.336,136.648,148.264,139.717,144.488,139.717z
				 M176.153,114.182c3.776,0,6.848,3.071,6.848,6.845c0,3.773-3.071,6.844-6.848,6.844c-3.772,0-6.844-3.071-6.844-6.844
				C169.31,117.252,172.381,114.182,176.153,114.182z M159.99,94.079c3.774,0,6.845,3.071,6.845,6.845
				c0,3.773-3.07,6.844-6.845,6.844c-3.775,0-6.845-3.071-6.845-6.844C153.146,97.149,156.215,94.079,159.99,94.079z"/>
			<path fill="#666666" d="M128.988,107.435c-3.773,0-6.844,3.07-6.844,6.846c0,3.774,3.071,6.844,6.844,6.844
				c3.775,0,6.848-3.07,6.848-6.844C135.836,110.504,132.763,107.435,128.988,107.435z"/>
			<path fill="#666666" d="M133.923,123.497c-0.157-0.098-0.352-0.111-0.517-0.029c-2.797,1.349-6.034,1.351-8.836,0
				c-0.165-0.08-0.359-0.069-0.516,0.028c-0.154,0.099-0.249,0.269-0.249,0.453v28.811c2.976,3.191,6.476,5.886,10.366,7.944
				v-36.757C134.173,123.766,134.079,123.594,133.923,123.497z"/>
			<path fill="#666666" d="M144.488,126.027c-3.772,0-6.843,3.071-6.843,6.846c0,3.775,3.071,6.844,6.843,6.844
				c3.775,0,6.848-3.069,6.848-6.844C151.336,129.098,148.264,126.027,144.488,126.027z"/>
			<path fill="#666666" d="M149.423,142.091c-0.155-0.099-0.35-0.109-0.515-0.029c-2.797,1.349-6.035,1.352-8.836,0.002
				c-0.165-0.081-0.362-0.069-0.517,0.027c-0.155,0.098-0.249,0.269-0.249,0.452v20.428c3.276,1.168,6.754,1.908,10.367,2.167
				v-22.596C149.673,142.358,149.58,142.188,149.423,142.091z"/>
			<path fill="#666666" d="M176.153,127.871c3.776,0,6.848-3.071,6.848-6.844c0-3.774-3.071-6.845-6.848-6.845
				c-3.772,0-6.844,3.071-6.844,6.845C169.31,124.8,172.381,127.871,176.153,127.871z"/>
			<path fill="#666666" d="M181.091,130.243c-0.157-0.096-0.353-0.108-0.518-0.027c-2.8,1.349-6.031,1.353-8.836,0.001
				c-0.165-0.079-0.36-0.069-0.516,0.029c-0.155,0.097-0.25,0.267-0.25,0.452v29.935c3.896-2.083,7.396-4.803,10.367-8.022v-21.913
				C181.339,130.512,181.244,130.341,181.091,130.243z"/>
			<path fill="#666666" d="M159.99,107.768c3.774,0,6.845-3.071,6.845-6.844c0-3.774-3.07-6.845-6.845-6.845
				c-3.775,0-6.845,3.071-6.845,6.845C153.146,104.697,156.215,107.768,159.99,107.768z"/>
			<path fill="#666666" d="M164.925,110.143c-0.155-0.098-0.349-0.109-0.517-0.029c-2.804,1.349-6.031,1.349-8.836,0
				c-0.167-0.08-0.36-0.069-0.517,0.029c-0.154,0.097-0.249,0.267-0.249,0.451v54.583c3.61-0.209,7.085-0.911,10.368-2.031v-52.552
				C165.175,110.41,165.08,110.239,164.925,110.143z"/>
		</g>
	</g>
</g>
<g id="Layer_4" display="none">
	<path display="inline" fill="#666666" d="M154.848,93.684c0.089-0.263,0.292-0.023,0.471,0.286c0.185,0.32,0.311,0.559,0.33,0.936
		c0.041,0.844-0.426,1.879-1.297,2.145c-0.371,0.112-0.809,0.001-1.159,0.198c-0.331,0.189-0.399,0.562-0.693,0.78
		c-0.39,0.29-0.842-0.035-1.264,0.084c-0.498,0.14-0.732,0.497-1.296,0.171c0.575,0.076,0.869-0.424,1.385-0.513
		c0.733-0.123,0.976-0.075,1.336-0.788c0.101-0.198,0.256-0.354,0.444-0.468c0.325-0.197,0.708-0.229,1.045-0.389
		c0.423-0.199,0.604-0.426,0.678-0.885c0.068-0.423-0.051-0.881-0.021-1.311C154.812,93.821,154.827,93.74,154.848,93.684
		L154.848,93.684z"/>
	<path display="inline" fill="#666666" d="M164.012,76.948c-0.738,0.377-1.289,1.049-1.424,1.819
		c0.026-0.595,0.187-1.305,0.294-1.939c0.01-0.056,0.014-0.112,0.021-0.168c0.651-0.811,0.901-2.173,0.911-2.524
		c0.029-1.265,0.394-3.408-1.93-4.578l-1.075,0.109c2.685,0.715,2.407,2.593,2.505,4.333c0.039,0.714-0.346,1.932-0.909,2.537
		c-0.054,0.059-0.763,0.554-0.814,0.55c0.123,0.009,0.359,0.163,0.681,0.064c-0.161,1.147-0.123,2.135,0.641,2.757
		c-0.232-0.188-0.318-0.515-0.326-0.909c0.349-0.936,1.205-1.449,2.171-1.607C164.644,77.342,164.105,77.082,164.012,76.948
		L164.012,76.948z"/>
	<path display="inline" fill="#666666" d="M154.908,102.292c-0.111-0.173-0.215-0.35-0.312-0.53
		c-1.378-2.581-0.394-5.43,1.354-6.614c0,0-0.854-1.051-0.856-1.052c0.016,0.02-0.191,0.706-0.187,0.832
		c0.015,0.339,0.047,0.624-0.181,0.91c-0.44,0.558-1.281,0.675-1.523,1.425c-0.186,0.572-0.283,1.188-0.303,1.791
		c-0.021,0.665,0.062,1.331,0.253,1.968c0.064,0.215,0.728,1.999,0.954,1.936C154.255,102.916,154.591,102.778,154.908,102.292
		L154.908,102.292z"/>
	<path display="inline" fill="#666666" d="M158.128,105.816c0.199,0.188,0.399,0.375,0.597,0.563
		c1.005,0.958,2.024,1.901,3.053,2.833c0.601,0.543,1.729,1.185,1.569,2.145c-0.082,0.49-0.481,0.833-0.774,1.205
		c-0.315,0.399-0.605,0.818-0.881,1.249c-1.106,1.737-1.935,3.647-2.619,5.584c-0.59,1.665-1.086,3.371-1.451,5.099
		c-0.025,0.12-0.021,0.283-0.118,0.372c-0.07,0.065-0.582,0.605-0.757,0.818c-0.338,0.413-0.691,0.834-0.973,1.291
		c-0.01,0.015-0.02,0.031-0.028,0.046c-0.424,0.742,0.443,1.204,0.461,2.056c0.011,0.491,0.057,0.981,0.101,1.468
		c0.062,0.675,0.139,1.348,0.227,2.02c0.045,0.335,0.093,0.667,0.147,1.001c0.023,0.154,0.05,0.306,0.077,0.459
		c0.014,0.071,0.026,0.143,0.041,0.216c0.007,0.035,0.014,0.173,0.048,0.189c0.074,0.033,0.096-0.224,0.105-0.27
		c0.023-0.115,0.049-0.231,0.076-0.344c0.07-0.299,0.146-0.595,0.22-0.892c0.191-0.75,0.382-1.499,0.55-2.255
		c0.068-0.308,0.134-0.615,0.191-0.925c0.381-2.004,0.854-4.344,1.201-5.039c0.167-0.337,0.338-0.671,0.51-1.005
		c1.2-2.331,2.509-4.609,3.941-6.804c0.726-1.109,1.484-2.2,2.294-3.25c0.63-0.82,2.056-1.922,1.714-3.095
		c-0.062-0.216-0.202-0.432-0.302-0.631c-0.273-0.554-0.569-1.095-0.873-1.633c-0.994-1.761-2.076-3.476-3.246-5.126
		c-0.422-0.595-0.97-1.183-1.467-1.787c-0.006-0.008,0.761-0.441,0.787-0.404c1.229,1.674,2.409,3.383,3.546,5.121
		c0.639,0.98,1.266,1.97,1.858,2.978c0.62,1.057,1.192,2.204,0.391,3.323c-0.426,0.593-0.889,1.163-1.328,1.748
		c-1.193,1.584-2.376,3.176-3.527,4.791c-1.562,2.187-3.284,4.439-4.374,6.913c-0.099,0.223-0.539,3.75-0.778,4.483
		c-0.123,0.381-0.261,0.758-0.393,1.136c-0.207,0.59-0.418,1.18-0.617,1.773c-0.09,0.267-0.179,0.532-0.261,0.801
		c-0.035,0.109-0.067,0.22-0.1,0.331c-0.012,0.043-0.034,0.188-0.077,0.211c-0.019,0.008-0.036,0.001-0.059-0.033
		c-0.026-0.04-0.043-0.094-0.062-0.138c-0.048-0.103-0.097-0.207-0.145-0.311c-0.07-0.156-0.171-0.332-0.192-0.505
		c-0.066-0.559-0.477-3.133-0.608-3.68c-0.204-0.836-1.229-1.953-1.052-2.813c0.131-0.624,2.271-1.689,2.499-2.27
		c0.238-0.606,0.248-1.316,0.351-1.956c0.199-1.253,0.272-1.667,0.576-2.899c0.617-2.484,1.467-5.047,3.008-7.127
		c0.432-0.585,0.974-1.092,1.466-1.626c0.584-0.633-0.326-0.975-0.817-1.354c-0.597-0.464-1.191-0.936-1.779-1.414
		c-0.838-0.682-1.668-1.377-2.483-2.086L158.128,105.816L158.128,105.816z"/>
	<path display="inline" fill="#666666" d="M183.591,103.93c-0.387-1.579-0.202-2.762-0.259-2.717
		c-0.146,0.117-0.213-0.568-0.295-0.375c-0.244,0.575-0.441,1.491-0.274,2.759c0.246,1.899,0.866,3.414,1.681,5.09
		c2.759,5.678,0.723,10.563-1.73,11.564c1.281,3.889,3.529,7.608,3.913,11.86c0.363,4.057,1.062,6.657,1.998,9.947
		c-0.737-1.476-1.849-3.205-2.536-4.824c-1.854-4.381-3.063-8.68-4.062-10.44c-0.699-1.234-1.597-3.028-2.517-4.071
		c0.185,0.959-0.06,1.775-0.298,2.076c2.158,2.318,3.053,5.574,4.469,8.409c-0.052,2.515,5.051,10.967,6.151,12.826
		c0.906,1.531,1.485,4.564,1.485,4.564s4.037,0.01,4.091,0.007c-0.081-0.268-0.896-1.483-1.235-1.868
		c-0.521-0.591-2.361-2.26-2.703-2.768c-0.706-1.052-1.32-2.169-1.821-3.337c-1.117-2.594-1.799-5.575-1.695-8.414
		c0.149-4.132-1.766-7.558-2.631-11.445c-0.126-0.568-0.427-1.691-0.427-1.691c1.335-1.728,4.342-5.952,0.605-11.585
		C184.539,108.051,184.046,105.79,183.591,103.93L183.591,103.93z"/>
	<path display="inline" fill="#666666" d="M196.547,88.634c0.27-0.3,1.732-1.748,1.604-2.062c-0.133-0.317-1.365,0.246-2.622,0.863
		c-0.38-0.492-0.792-1-1-1.224c-0.028-0.029-0.057-0.055-0.083-0.083c1.069-0.641,2.021-1.257,1.992-1.433
		c-0.097-0.599-2.139-0.649-4.189-0.383c-10.568-6.732-25.044-0.081-28.158,11.528c-0.094,0.358,0.126,1.754,0.075,2.129
		c-0.136,1.45-1.479,2.654-1.471,2.66c0.085,0.061,0.79,0.141,0.79,0.167c0.008,0.639,0.021,0.358,0.091,1.018
		c0.062,0.107,0.752,1.017,0.752,0.99c-0.002-0.403,0.008-0.803,0.032-1.2c0.721-12.375,13.214-21.733,24.105-16.449
		c1.825,0.886,3.208,2.115,4.254,3.48c-0.074-0.091,0.209,2.513,0.13,2.423c0.28,1.01,0.116,0.859,0.003,1.98
		c-0.045,0.436-0.646,0.69-1.1,2.292c-0.416,1.46-0.588,10.988-0.465,11.516c0.189,0.809-0.267,0.86-0.688,1.406
		c-0.342,0.442-0.712,0.856-1.288,0.966c-0.823,0.159-0.458-0.777-2.802-1.05c-0.347-0.041-1.03-3.81-1.079-4.49
		c-0.322-4.421-4.209-9.03-4.382-9.704c-0.004-0.004-0.186,1.697-0.146,1.766c0.285,0.501,2.972,5.042,3.313,5.818
		c0.436,0.991,0.727,2.027,0.958,3.083c0.128,0.582,0.427,3.816,0.768,4.127c0.536,0.486,1.123,0.703,1.797,0.752
		c0.467,0.035,0.908,1.088,1.693,1.028c1.174-0.091,1.274-0.996,1.633-1.27c1.532-1.166,0.939-3.698,0.968-4.501
		c0.1-2.624,0.6-7.506,0.713-8.189c0.342-2.05,0.568-0.936,1.028-1.764c0.262-0.471-0.272-3.493-0.001-3.739
		C194.042,90.201,195.906,89.346,196.547,88.634L196.547,88.634z"/>
	<path display="inline" fill="#666666" d="M144.219,82.772c0.047-0.474,0.675-0.533,0.987-0.693c0.507-0.266,0.447-0.688,0.44-1.217
		c-0.012-1.287-0.496-2.862,0.361-3.994c0.836-1.106,1.934-2.046,3.226-2.582c1.802-0.744,3.62-1.447,5.382-2.282
		c0.357-0.168,0.644-0.381,1.021-0.494c0.432-0.129,0.865-0.25,1.297-0.38c0.863-0.26,1.721-0.544,2.542-0.917
		c0.367-0.167,0.695-0.328,1.01-0.586c0.222-0.183,0.548-0.396,0.84-0.284c0.16-0.229,0.207-0.743-0.089-0.898
		c-0.588-0.306-0.93,0.426-1.243,0.754c-0.447,0.464-1.109,0.72-1.698,0.975c-0.626,0.268-1.181,0.502-1.798,0.783
		c-0.695,0.318-1.447,0.475-2.152,0.763c-2.152,0.877-4.518,1.482-6.534,2.665c-0.87,0.51-1.951,1.201-2.455,2.101
		c-0.552,0.99-0.368,1.872-0.281,2.946c0.059,0.733,0.109,1.219-0.325,1.809C144.329,81.81,144.218,82.038,144.219,82.772
		L144.219,82.772z"/>
	<path display="inline" fill="#666666" d="M150.73,97.119c-0.03,0.097-0.111,0.171-0.182,0.25c-0.504,0.552-1.254,0.188-1.869,0.063
		c-0.326-0.064-0.757-0.083-1.037,0.109c0.418-0.29,0.395-0.431,0.911-0.515c0.38-0.062,0.927,0.074,1.261-0.176
		c0.373-0.28,0.39-0.823,0.757-1.125c0.326-0.27,0.795-0.337,1.193-0.43c1.296-0.3,0.885-1.227,1.352-2.076
		c0.18-0.328,0.539-0.598,0.835-0.809c-0.381,0.271-0.389,1.259-0.469,1.662c-0.107,0.534-0.331,1.194-0.833,1.474
		C151.689,96.08,151.145,95.736,150.73,97.119L150.73,97.119z"/>
	<path display="inline" fill="#666666" d="M156.303,69.273c-0.973,0.683-1.922,1.26-3.015,1.706
		c-2.154,0.877-4.52,1.483-6.538,2.666c-1.947,1.143-3.67,2.943-3.942,5.274c-0.108,0.911,0.682,2.286,0.382,2.983
		c-0.38,0.879-2.123,0.876-2.676,1.033c-1.664,0.472-2.895,1.509-2.646,2.729c0.246,1.221,0.311,1.567,0.14,2.337
		c-0.233,1.053-1.416,1.036-2.162,1.542c-1.119,0.759-1.103,1.384-1.229,2.638c-0.117,1.175-0.944,1.219-1.642,1.994
		c-0.701,0.779-0.454,1.309-0.674,2.235c-0.141,0.598-0.373,0.932-0.863,1.134c-0.038,0.016-0.031,0.062,0.012,0.067
		c1.11,0.142,1.112-1.241,1.276-1.792c0.289-0.975,0.447-1.381,1.486-1.871c0.457-0.216,1.179-0.26,1.401-0.781
		c0.47-1.103-0.334-1.979,0.588-2.894c0.703-0.698,1.947-0.578,2.632-1.333c0.851-0.932,0.136-2.153,0.095-2.59
		c-0.081-0.869,0.098-2.045,1.062-2.663c0.4-0.255,1.378-0.338,2.17-0.351c0.398-0.005,0.812-0.026,1.172-0.212
		c0.196-0.103,0.32-0.253,0.429-0.381c0.594-0.703,0.21-1.442,0.127-2.425c-0.249-2.915,1.589-5.659,4.286-6.774
		c1.802-0.745,3.621-1.447,5.382-2.283c1.16-0.55,2.179-1.353,3.321-1.937c0.906-0.464,2.394-1.196,3.363-0.493
		C160.274,66.763,156.824,68.908,156.303,69.273L156.303,69.273z"/>
	<path display="inline" fill="#666666" d="M144.154,90.289c0.321,0.004,0.54-0.096,0.815-0.257c0.887-0.513,1.283-1.439,1.447-2.357
		c0.444-2.489,3.576-4.909,6.316-6.062c1.514-0.637,4.257-3.318,5.026-5.065c-3.172,1.365-7.23,3.121-9.667,6.546
		c0,0-0.385,0.253-0.386,0.253c0.45-0.296,0.95-1.686,1.385-2.164c0.807-0.888,1.777-1.632,2.772-2.297
		c1.176-0.785,2.425-1.464,3.704-2.062c0.926-0.433,2.393-0.507,2.713-1.673c1.275,2.069-3.325,6.449-4.984,7.171
		c-3.317,1.443-5.656,2.513-6.573,5.673c-0.287,0.991-0.824,2.069-1.777,2.572c-0.111,0.058-0.811,0.243-1.204,0.074
		c-0.545-0.235-1.593-0.669-1.783-0.432c0.202-0.252,0.491-0.381,0.963-0.271C142.943,89.942,143.698,90.283,144.154,90.289
		L144.154,90.289z"/>
	<path display="inline" fill="#666666" d="M141.396,86.414c0.008-0.17,0.024-0.35,0.078-0.534c0.232-0.795,0.804-1.208,1.606-1.29
		c0.792-0.081,1.473,0.537,2.162,0.452c0.375-0.045,0.734-0.288,0.998-0.546c0.535-0.527,0.855-1.282,0.987-2.012
		c0.445-2.49,3.425-5.216,6.246-6.157c3.307-1.104,5.104-3.8,5.028-5.065c-3.174,1.364-7.23,3.121-9.669,6.545l-0.383,0.253
		c0.449-0.296,0.95-1.685,1.384-2.163c0.806-0.89,1.776-1.63,2.77-2.297c1.176-0.785,2.426-1.464,3.705-2.063
		c0.926-0.433,2.394-0.507,2.714-1.672c1.274,2.069-1.237,5.569-4.986,7.171c-3.326,1.419-5.656,2.513-6.573,5.672
		c-0.314,1.09-0.904,2.446-2.095,2.774c-0.877,0.242-1.542-0.657-2.448-0.275c-0.695,0.292-0.841,0.972-0.949,1.661
		c-0.213,1.351-1.477,0.997-1.973,1.913c-0.051-0.706,0.654-0.768,1.039-1.155C141.416,87.243,141.377,86.848,141.396,86.414
		L141.396,86.414z"/>
	<path display="inline" fill="#666666" d="M142.876,90.959c-0.104-0.019-0.213-0.023-0.334-0.017c0.014,0.183,0.442,0.3,0.584,0.396
		c0.307,0.207,0.523,0.511,0.828,0.726c0.304,0.214,0.646,0.375,1.002,0.475c0.782,0.219,1.625,0.133,2.332-0.269
		c0.134-0.075,0.261-0.161,0.383-0.255c5.492-4.281,5.444-8.816,8.681-12.408c-0.513,0.241-1.056,0.454-1.056,0.454
		c-1.162,1.032-2.979,7.993-7.697,11.262c-0.652,0.451-1.441,0.687-2.232,0.641c-0.33-0.02-0.657-0.086-0.964-0.206
		c-0.31-0.123-0.526-0.332-0.807-0.492c-0.117-0.067-0.239-0.139-0.361-0.191C143.11,91.02,142.994,90.982,142.876,90.959
		L142.876,90.959z"/>
	<path display="inline" fill="#666666" d="M137.228,97.214c0.435-1.369,1.842-0.614,2.871-0.64c1.532-0.04,1.709-1.179,2.13-2.326
		c0.467-1.271,3.122-0.603,4.353-0.553c1.726,0.072,2.189,0.246,3.605-0.871c1.581-1.25,0.731-4.094,1.684-5.599
		c-0.485,0.766-1.194,0.892-1.421,1.939c-0.161,0.744-0.331,2.507-0.858,3.154c-1.101,1.352-1.641,1.076-3.269,1.027
		c-1.044-0.031-3.542-0.804-4.209,0.064c-0.784,1.018-0.541,2.378-2.015,2.606c-1.035,0.162-2.43-1.006-3.095,1.181
		C136.96,97.34,137.188,97.337,137.228,97.214L137.228,97.214z"/>
	<path display="inline" fill="#666666" d="M141.843,97.177c-0.559,0.14-1.116,0.071-1.65-0.133c-0.259-0.098-0.51-0.219-0.761-0.337
		c-0.241-0.113-0.506-0.177-0.743-0.287c0.056-0.111,0.366-0.013,0.466,0.022c0.163,0.055,0.329,0.088,0.496,0.126
		c0.503,0.11,1.095,0.365,1.615,0.243c1.558-0.362,1.039-2.288,2.335-2.815c0.958-0.389,2.193,0.056,3.115,0.356
		c6.259,2.048,8.843-3.684,6.393-6.972c-0.192-0.259-0.534-1.52-0.22-2.257l0.948-1.579c-0.868,2.079-0.448,3.396-0.193,3.829
		c2.856,4.871-2.256,9.751-6.886,7.391c-0.938-0.478-2.371-0.916-3.25-0.075C142.654,95.503,143.323,96.807,141.843,97.177
		L141.843,97.177z"/>
	<path display="inline" fill="#666666" d="M144.403,103.704c0.28,0.75,1.226,0.125,1.762,0.22c0.323,0.057,0.516,0.378,0.81,0.386
		c0.419,0.012,0.766-0.457,1.194-0.5c0.718-0.072,1.146,0.625,1.8,0.743c0.819,0.148,1.121-0.758,1.561-1.268
		c1.094-1.27,2.012-0.333,3.228-1.062c0.871-0.523,0.785-1.929,1.006-2.806c0.25-0.989,0.851-1.72,1.869-1.937
		c0.941-0.202,1.921-0.06,2.872-0.135c0.473-0.038,1.082-0.123,1.486-0.379c0.728-0.462,0.818-1.346,0.88-2.316
		c0.092,0.364,0.274,1.273-0.241,2.139c-0.543,0.915-1.638,1.316-2.641,1.424c-1.486,0.163-2.698-0.228-3.607,1.276
		c-0.526,0.873-0.104,2.14-0.741,2.942c-0.711,0.894-1.842,0.396-2.76,0.875c-0.599,0.312-0.782,0.779-1.139,1.325
		c-0.437,0.674-1.092,1.123-1.896,0.63c-0.554-0.339-0.967-0.658-1.637-0.691c-0.505-0.025-0.994,0.389-1.49,0.252
		c-0.211-0.06-0.387-0.229-0.598-0.284c-0.393-0.104-1.062-0.019-1.478-0.194C144.266,104.187,144.521,104.017,144.403,103.704
		L144.403,103.704z"/>
	<path display="inline" fill="#666666" d="M161.361,69.467c-0.069,0.076-0.137,0.151-0.203,0.223
		c-0.215-0.194-0.072-0.515,0.063-0.696c0.795-1.053,2.132-0.487,3.187-0.378c0.907,0.093,0.594-0.652,0.932-1.073
		c0.259-0.324,0.819-0.161,1.036,0.152c0.283,0.411-0.247,1.326,0.084,1.372c0.075,0.361-0.363,0.427-0.555,0.188
		c-0.272-0.337,0.171-0.434,0.238-0.677c0.07-0.264-0.01-0.719-0.304-0.725c-0.396-0.01-0.32,0.477-0.491,0.687
		c-0.22,0.274-0.626,0.387-0.96,0.402c-0.539,0.024-0.991-0.293-1.521-0.312C162.229,68.605,161.762,69.036,161.361,69.467
		L161.361,69.467z"/>
	<path display="inline" fill="#666666" d="M161.018,68.219c0.181-0.454,0.538-0.871,0.896-1.071c0.585-0.33,1.419-0.246,1.999,0.068
		c0.236,0.129,1.16,0.907,0.977,1.258c-0.549,0.104-0.576-0.594-0.916-0.83c-0.43-0.303-1.224-0.121-1.661,0.124
		c-0.295,0.164-0.543,0.401-0.747,0.668c-0.04,0.055-0.493,0.881-0.443,0.887c-0.02-0.001-0.066,0-0.087,0
		C160.842,68.996,160.869,68.595,161.018,68.219L161.018,68.219z"/>
	<path display="inline" fill="#666666" d="M154.604,68.952c0.768-0.188,1.118-0.656,1.538-1.279
		c0.228-0.341,0.572-0.581,0.913-0.792c0.214-0.131,0.502-0.24,0.75-0.115c0.193,0.095,0.316,0.371,0.535,0.405
		c0.637,0.098,1.021-0.772,1.699-0.478c0.633,0.273,0.566,1.075,0.777,1.623c0.077,0.202,0.229,0.365,0.326,0.552
		c0.186-0.786,0.179-1.578-0.312-2.236c-0.471-0.631-1.145-0.736-1.802-0.363c-0.679,0.383-1.483-0.15-2.136,0.219
		c-0.447,0.25-0.823,0.874-1.143,1.258c-0.443,0.535-0.864,0.713-1.55,0.535c-0.713-0.185-1.313,0.426-1.44,1.09
		c-0.1,0.528-0.086,1.463-0.687,1.716c0.621,0.3,0.862-0.387,1.025-0.849C153.358,69.508,153.819,69.144,154.604,68.952
		L154.604,68.952z"/>
	<path display="inline" fill="#666666" d="M136.624,94.564c1.121-0.015,1.19-1.255,2.441-1.475c1.33-0.232,0.546-2.226,3.367-2.188
		c0.251,0.004,0.457,0.11,0.693,0.172c0.201,0.052,0.368,0.119,0.506,0.291c0.056,0.072,0.137,0.146,0.183,0.222
		c0.064,0.111,0.034,0.13,0.029,0.247c-0.708-0.375-1.62-0.651-2.388-0.286c-0.61,0.29-1.015,0.797-1.193,1.443
		c-0.33,1.184-0.911,0.745-1.513,1.031C137.975,94.388,137.548,95.119,136.624,94.564L136.624,94.564z"/>
	<path display="inline" fill="#666666" d="M127.741,99.74c-0.303-0.006-0.602-0.011-0.901-0.015
		c-4.924-0.286-6.464-1.898-10.185-0.131c-0.103,0.051-0.203,0.1-0.299,0.152c-3.635,1.942-2.371,5.205-4.751,7.227
		c-2.142,1.821-6.088,2.831-7.907,4.279c-1.153,0.916-1.597,2.312-1.729,2.917c-0.331,1.505-0.119,3.473,1.011,5.32
		c0.883,1.441-0.588,2.322-0.252,3.763c0.31-1.087,1.058-1.687,1.263-2.671c0.169-0.822-0.153-1.634-0.619-2.349
		c-0.565-0.867-0.87-2.723-0.699-3.759c0.224-1.359,1.769-2.226,3.124-2.758c3.611-1.417,7.192-3.7,8.068-7.271
		c1.347-5.483,6.69-5.335,10.362-4.7c-2.455,0.102-4.684,0.513-6.695,1.818c-2.142,1.388-2.887,4.567-3.701,5.464
		c-4.279,4.71-9.66,5.039-9.368,13.817c0.017,0.453-0.642,1.823-0.87,2.471c-0.212,0.61-0.435,1.216-0.396,1.87
		c0.015,0.262,0.119,1.165,0.81,1.48c-0.216-0.38-0.475-0.891-0.475-1.322c0-0.574,0.197-0.912,0.389-1.442
		c0.251-0.7,0.537-1.386,0.745-2.104c0.333-1.153,0.51-2.348,0.613-3.542c0.451-5.229,3.965-6.557,8.571-9.421
		c1.157-0.72,1.623-1.722,1.946-2.695c0.179-0.536,0.327-1.09,0.382-1.644c0.062-0.653,0.202-1.339,0.703-1.865
		c0.112-0.121,0.918-0.735,1.057-0.832c1.341-0.938,3.047-1.208,4.689-1.518c1.338-0.251,2.467-0.158,3.696-0.107
		c0.106,0.024,0.209,0.046,0.307,0.068c-1.896,0.12-3.932,0.442-5.932,1.268c-0.306,0.127-0.706,0.275-0.981,0.443
		c-0.267,0.162-0.52,0.31-0.792,0.469c-1.305,0.762-1.828,1.972-2.025,3.258c-0.242,1.57-0.592,3.064-2.16,3.8
		c-10.389,4.857-7.663,8.76-9.109,11.997c-0.84,1.885-1.521,3.423-0.978,5.43c0.332,1.219,2.679,4.241,7.98,4.923
		c-2.517-1.212-8.425-2.4-7.479-7.426c0.323-1.719,1.75-4.495,1.948-6.638c0.066-0.703,0.534-1.373,1.025-2.062
		c1.893-2.451,5.548-3.116,7.614-5.301c1.294-1.191,2.006-2.697,2.293-4.289c0.127-0.71,0.335-2.671,2.023-3.689
		c0.886-0.532,2-0.897,3.042-1.133c0.91-0.207,1.92-0.292,2.961-0.421c-0.217,0.049-0.49,0.144-0.626,0.181
		c-0.38,0.096-0.75,0.211-1.119,0.337c-0.747,0.256-1.475,0.556-2.185,0.878c-1.475,0.667-2.782,1.689-2.969,2.818
		c-1.054,6.372-6.243,7.69-9.859,11.811c-0.434,0.518-0.731,1.053-0.911,1.601c-0.197,0.554-0.275,1.118-0.741,1.872
		c-2.359,3.825-1.967,10.463,4.945,9.68c-3.098-0.443-6.107-2.667-5.889-5.53c0.394-1.925,1.692-3.697,2.375-5.2
		c0.683-1.5,0.92-2.331,2.032-3.097c4.369-3.014,8.219-5.405,8.287-9.704c0.026-1.694,1.382-3.065,2.505-3.642
		c1.246-0.639,2.412-1.065,3.75-1.424c-0.28,0.135-2.528,1.292-4.256,2.575c-0.847,0.63-1.763,2.779-1.851,4.32
		c-0.274,4.772-3.185,6.345-7.658,9.141c-2.185,1.367-3.544,4.369-3.77,6.585c-0.126,1.247,0.096,2.577,1.186,3.493
		c0.582,0.489,1.308,0.743,2.077,0.941c1.333,0.343,1.654,0.449,2.454,1.479c0.716,0.921,1.204,1.103,2.437,1.539
		c-1.089-1.049-0.987-2.38-2.001-3.342c-0.822-0.781-2.214-0.632-3.179-1.201c-0.973-0.576-1.346-1.536-1.47-2.495
		c-0.315-2.465,1.042-4.954,3.139-6.609c0.234-0.2,0.652-0.302,0.944-0.422c1.805-0.744,3.49-1.703,4.728-3.068
		c0.851-0.941,1.448-2.031,1.77-3.186c0.193-0.698,0.288-1.415,0.303-2.132c0.018-0.879,0.08-1.608,0.305-2.509
		c0.471-1.896,2.003-2.871,2.908-3.522c0.611-0.439,1.345-0.708,2.085-0.944c0.335-0.106,1.591-0.513,1.591-0.513
		s1.204-1.342,1.304-1.534C128.819,99.819,127.933,99.698,127.741,99.74L127.741,99.74z"/>
	<path display="inline" fill="#666666" d="M157.61,124.197c0.007-0.01,0.15-1.283,0.139-1.291c-3.537-0.239-8.63-1.268-10.922-2.008
		c-0.108-0.028-0.139-2.926-2.398-4.48c-0.295-0.205,0.202,0.833,0.35,1.96c0.198,1.519,0.116,3.328,0.116,3.498
		c-0.006,3.966-1.873,11.302-1.832,11.533c0.215,1.257,0.32,2.32,2.404,3.715c3.137,2.098,8.917,7.963,9.02,8.436
		c-6.38-4.874-10.951-7.641-14.017-8.454c-0.93-0.247-1.908-11.5-7.111-15.479c-2.562-1.959-5.398-3.634-6.53-5.852
		c-3.229-6.324-1.245-14.103,7.065-17.371c6.568-2.582,16.066,0.348,19.401,1.516c0.092,0.034,0.093-0.695-0.059-0.76
		c-2.653-1.12-12.855-4.345-20.794-1.508c-8.919,3.187-11.343,11.806-6.619,19.521c3.08,5.027,10.262,5.661,11.116,14.656
		c0.182,1.902,0.333,3.208,0.366,4.091c0.056,1.637,1.208,2.134,2.115,2.282c2.628,0.429,15.997,7.41,16.961,11.268
		c0.079,0.311-0.041,0.812-0.195,1.098l4.644,0.032c0.013-0.404-1.015-1.9-1.473-2.611c-1.104-1.713-8.977-7.547-9.709-8.238
		c-4.702-4.431-5.074-7.76-5.055-8.312c0.008-0.278,1.288-8.519,1.408-9.309c0.007-0.052,0.008-0.072,0.002-0.052
		c0.128,0.048-0.13-2.172,0.005-2.125c0.096,0.032,0.582,2.332,0.684,2.367C149.349,123.223,155.593,124.143,157.61,124.197
		L157.61,124.197z"/>
	<path display="inline" fill="#666666" d="M159.55,124.36l0.85-1.3c0,0,4.579,0.122,6.775-0.596c0,0,4.513,5.191,6.26,6.739
		c1.181,1.046,4.438,4.113,4.972,4.502c0.566,0.415,1.147,0.98,1.224,1.725c0.065,0.623-0.397,1.125-0.68,1.647
		c-0.314,0.583-1.623,3.356-1.972,4.156c0.42,0,4.778-5.436,4.04-6.754c-1.02-1.82-2.046-3.634-3.149-5.406
		c-0.729-1.168-1.482-2.325-2.303-3.434c-0.197-0.267,0.849-0.93,1.596-1.975c0.771-1.08,1.246-2.537,1.329-2.423
		c0.032,0.043,0.556,1.904,0.138,2.985c-0.185,0.474-1.056,1.453-0.998,1.548c1.456,2.367,3.055,5.949,3.59,6.967
		c0.385,0.736,1.193,1.467,1.248,2.444c0.072,1.309-3.201,5.1-4.043,5.985c-1.193,1.252-1.904,2.72-2.993,3.753
		c-0.556,0.528-4.254,2.637-4.254,2.637c0.104-0.37-0.169-4.008-0.063-4.537c0.009-0.05,3.559-0.448,3.835-0.699
		c1.127-1.024,1.861-2.918,2.609-4.218c0.404-0.7,1.025-1.481,1.108-2.305c0.091-0.928-0.925-1.601-1.596-2.026
		c-1.741-1.096-5.103-4.276-6.116-5.072c-1.036-0.814-3.893-3.631-4.203-4.341C164.302,124.549,159.55,124.36,159.55,124.36
		L159.55,124.36z"/>
	<path display="inline" fill="#666666" d="M121.812,125.34C121.903,125.323,121.722,125.324,121.812,125.34L121.812,125.34z"/>
	<path display="inline" fill="#666666" d="M135.498,125.714c-1.47-1.665-8.019-6.847-8.019-6.847
		c-0.205,0.438-0.49,1.137-0.839,1.604c-1.991,2.653-4.761,4.279-5.039,4.233c-0.555,0.106-1.187,0.442-1.537,0.94
		c-0.461,0.655-0.497,1.534-0.211,2.223c0.827,2,1.304,6.267,1.234,8.08c-0.069,1.861,0.139,3.464-0.562,5.188
		c-0.832,2.046-4.588,1.978-4.88,2.046c0,0.001,1.981,4.185,1.981,4.185c0.309-0.222,2.206-1.57,2.516-2.274
		c0.749-1.694,0.788-1.686,1.273-2.973c0.312-0.825,1.831-4.508,2.072-5.755c0.378-1.949,0.516-3.87,0.504-4.203
		c-0.001-0.032,0.133-1.729,0.258-1.926c0.18-0.29,0.468-0.631,0.777-0.77c0.405-0.183,2.178-0.33,2.698-0.291
		c0.328,0.026,4.687,0.36,7.018-1.691C134.742,127.483,136.011,126.296,135.498,125.714L135.498,125.714L135.498,125.714z
		 M125.134,127.113c-1.319-0.105-1.719,1.467-1.855,1.683c-0.062,0.1-0.196,3.385-0.396,5.769c-0.091,1.072-0.387,2.301-0.755,3.47
		c0.547-3.811-0.456-8.334-0.942-10.028c-0.311-1.08,0.334-2.221,0.75-2.3c0.834,0.067,4.408-2.872,6.625-5.578
		c0,0,3.06,1.061,4.053,2.162c0.996,1.102,2.524,2.885,2.524,2.885C132.433,127.877,130.145,127.505,125.134,127.113
		L125.134,127.113z"/>
	<path display="inline" fill="#666666" d="M186.537,148.456h0.245c0.28,0,0.517-0.101,0.517-0.363c0-0.187-0.136-0.373-0.517-0.373
		c-0.109,0-0.187,0.01-0.245,0.017V148.456L186.537,148.456L186.537,148.456z M186.537,149.63h-0.338v-2.122
		c0.177-0.025,0.347-0.052,0.602-0.052c0.321,0,0.53,0.069,0.659,0.163c0.127,0.092,0.193,0.236,0.193,0.439
		c0,0.279-0.186,0.447-0.414,0.517v0.015c0.188,0.034,0.312,0.205,0.354,0.517c0.051,0.33,0.104,0.457,0.136,0.523h-0.355
		c-0.049-0.067-0.101-0.262-0.142-0.54c-0.052-0.271-0.188-0.373-0.459-0.373h-0.236V149.63L186.537,149.63L186.537,149.63z
		 M186.893,146.916c-0.837,0-1.522,0.718-1.522,1.606c0,0.906,0.686,1.617,1.531,1.617c0.846,0.009,1.522-0.711,1.522-1.606
		c0-0.899-0.677-1.617-1.522-1.617H186.893L186.893,146.916L186.893,146.916z M186.901,146.62c1.04,0,1.868,0.846,1.868,1.903
		c0,1.074-0.828,1.913-1.877,1.913c-1.041,0-1.886-0.839-1.886-1.913c0-1.057,0.845-1.903,1.886-1.903H186.901L186.901,146.62z"/>
	<path display="inline" fill="#666666" d="M163.244,84.556c-0.379,0.162-1.467,1.054-1.522,1.161
		c-0.181,0.342-0.3,0.729-0.368,1.129c-0.165,0.943-0.137,1.284-0.65,1.795c-0.224,0.223-2.299,1.577-3.246,2.072
		c0.109-0.258,0.195-0.556,0.262-0.781l0.177-0.626c0.151-0.742,0.026-1.509-0.358-2.034c-0.163-0.221-0.176-0.586-0.227-0.841
		c0.039-0.291,0.077-0.581,0.091-0.859c0.025-0.51-0.236-1.007-0.236-1.468c0,0.31-0.285,0.637-0.298,0.975
		c-0.026,0.719-0.655,4.945,0.003,6.687c0.135,0.353,3.201-2.158,3.989-2.807c0.985-0.812,0.793-1.661,1.136-2.769
		c0.092-0.295,1.054-1.229,1.378-1.455c0.427-0.299,1.254-0.518,1.424-0.633C164.557,84.032,163.543,84.429,163.244,84.556
		L163.244,84.556L163.244,84.556z M157.353,89.195l-0.165,0.578c-0.006,0.018-0.009,0.033-0.015,0.051
		c-0.01-0.641-0.013-1.285,0.009-1.926C157.334,88.325,157.44,88.76,157.353,89.195L157.353,89.195z"/>
	<path display="inline" fill="#666666" d="M163.011,71.434c-0.331,0.123-0.939,0.638-0.967,0.826
		c-0.038,0.277,0.062,0.661,0.171,0.87c0.179,0.347,0.195,0.294,0.432,0.684c0.062-0.169-0.178-0.492-0.202-0.602
		c-0.058-0.263-0.098-0.27-0.105-0.429c-0.023-0.6,0.607-0.347,0.543-1.091L163.011,71.434L163.011,71.434z"/>
	<path display="inline" fill="#666666" d="M163.078,87.144c-0.315,0.69-0.121,1.149-0.622,1.797
		c-1.301,1.684-6.145,5.868-6.383,5.622c-1.159-1.199-1.569-4.877-1.571-7.539c-0.001-1.953,0.148-3.978,0.532-5.116
		c0.431-1.282,1.093-2.027,2.024-2.274c0.211-0.056,0.457-0.082,0.719-0.079c0.796,0.005,2.582,0.55,2.904,1.442
		c-0.226-0.623-0.712-1.135-1.309-1.484c0.083-0.606-0.097-2.773-0.438-4.155c0,0-0.015,0.109-0.319,0.053
		c-0.306-0.058-0.425-0.482-0.425-0.482c0.155,0.571,0.753,3.703,0.765,4.376c-0.663-0.284-1.402-0.376-2.04-0.206
		c-1.11,0.294-1.921,1.181-2.409,2.634c-0.457,1.354-0.607,3.783-0.589,5.959c0.018,2.387,0.397,6.425,1.817,7.845
		c0.681,0.683,6.66-5.672,7.157-6.849c0.204-0.48,0.359-1.168,0.806-2.003c0.396-0.737,0.702-1.87,1.099-2.582
		C164.431,84.381,163.485,86.25,163.078,87.144L163.078,87.144z"/>
	<path display="inline" fill="#666666" d="M164.493,98.4c-0.659,2.294-0.561,1.92-1.939,2.779c-1.61,1.005-1.524,1.694-1.275,3.088
		c0.229,1.273-0.539,1.6-1.648,1.374c-1.311-0.264-1.607,1.454-2.795,1.308c-0.602-0.074-1.057,0.364-1.633,0.663
		c-0.287,0.149-0.96,0.395-1.23-0.015c0.716,0.103,0.884-0.546,1.368-0.876c0.534-0.365,1.223-0.223,1.81-0.52
		c0.441-0.224,0.587-0.767,1.049-0.95c0.532-0.21,1.136,0.217,1.664,0.043c0.804-0.268,0.627-1.459,0.463-2.074
		c-0.425-1.589,1.554-2.199,2.077-2.646c0.529-0.453,1.116-1.071,1.408-2.082c0.554-1.924-0.05-3.101,0.036-4.383
		c0.039-0.59,0.04-0.934,0.37-1.449c0.342-0.537,1-0.812,1.465-1.243c0.373-0.347,1.03-0.788,1.436-1.014
		c-0.517,0.636-1.548,1.274-2.04,1.779c-0.609,0.622-0.942,1.295-0.812,2.229C164.442,95.675,164.853,97.152,164.493,98.4
		L164.493,98.4z"/>
	<path display="inline" fill="#666666" d="M172.821,81.204c-0.581-0.457-1.236-0.603-0.883-1.569
		c0.182-0.49,0.485-0.945,0.342-1.586c-0.095-0.436-0.32-0.828-0.702-1.071c-0.399-0.255-0.89-0.333-1.354-0.376
		c-0.519-0.048-1.04-0.05-1.559-0.115c-0.245-0.03-0.571-0.081-0.808-0.158c-0.114-0.037-0.393-0.147-0.55-0.455
		c-0.244-0.478,0.393-0.617,0.682-0.838c0.223-0.171,0.41-0.391,0.537-0.643c0.33-0.654,0.18-1.471-0.537-1.777
		c-0.301-0.13-0.3-0.38-0.121-0.581c0.531-0.602,0.445-2.228-1.104-2.174c-0.798,0.028-0.978,0.526-1.896,0.427
		c-0.49-0.053-0.795-0.24-0.973-0.935c-0.164-0.638-0.794-0.944-1.377-0.605c-0.311,0.181-0.432,0.449-0.562,0.764
		c-0.042,0.098-0.244,0.37-0.037,0.404c0.186,0.032,0.162-0.237,0.236-0.333c0.054-0.069,0.14-0.124,0.219-0.165
		c0.32-0.167,0.752-0.098,0.83,0.303c0.301,1.537,0.642,2.093,1.032,2.711c0.218,0.342,0.499,0.785,0.191,1.094
		c-0.223,0.221-0.602,0.247-0.629,0.67c-0.026,0.399,0.24,0.804,0.695,0.739c0.54-0.077,0.485-0.883-0.08-0.777
		c0.19,0.005,0.302,0.285,0.146,0.394c-0.302,0.213-0.563-0.17-0.377-0.423c0.131-0.176,0.439-0.326,0.599-0.453
		c0.635-0.509,0.231-1.125-0.171-1.664c-0.54-0.727-0.998-1.419-1.029-2.095c0.689,1.427,2.323,0.434,3.227,0.268
		c0.999-0.184,1.258,1.057,0.465,1.583c-0.771,0.513-0.37,0.961,0.5,1.228c0.139,0.042,0.273,0.11,0.372,0.222
		c0.231,0.259,0.146,0.631-0.015,0.905c-0.102,0.176-0.239,0.331-0.396,0.464c-0.379,0.32-0.944,0.731-0.702,1.308
		c0.177,0.419,0.714,0.609,1.108,0.745c0.184,0.065,0.387,0.117,0.576,0.161c0.658,0.153,1.387,0.244,1.992,0.569
		c0.675,0.361,1.111,0.775,0.91,1.995c-0.105,0.644-0.711,0.952-0.299,1.578c0.28,0.422,1.164,0.503,1.415,1.045
		c0.459,0.986-0.255,1.292-0.865,1.709c-0.438,0.3-0.779,0.507-0.892,1.021c-0.16,0.729,0.549,1.264,0.106,2.03
		c-0.277,0.478-0.856,0.694-1.347,0.867c-0.661,0.232-0.721,0.604-1.296,1.005c-0.644,0.451-1.234,1.119-1.795,1.656
		c-1.204,1.159-3.115,0.432-3.72,1.65c-0.715,1.437,0.513,3.795,0.232,5.265c-0.309,1.622-2.229,1.788-3.542,1.901
		c-1.606,0.138-2.708,0.789-2.2,2.482c0.356,1.193,0.484,1.233,0.485,2.021c0.003,1.212-1.536,0.759-2.294,1.058
		c-0.979,0.389-1.389,1.732-3.18,1.764c-0.732,0.012-1.276-0.169-2.015,0.1c-0.781,0.286-1.482,0.825-2.356,0.181
		c-0.27-0.2-0.28-0.669-0.641-0.777c-0.311-0.091-0.619,0.091-0.925,0.015c-0.241-0.062-0.385-0.323-0.621-0.376
		c-0.206-0.043-0.621,0.104-0.655-0.214c-0.009,0.191,0.178,0.388,0.356,0.423c0.16,0.031,0.318-0.038,0.424,0.115
		c0.119,0.171,0.209,0.399,0.438,0.444c0.246,0.047,0.516-0.039,0.758,0.062c0.508,0.209,0.882,0.897,1.378,1.122
		c0.711,0.323,1.531-0.009,2.229-0.181c0.769-0.19,1.181-0.042,1.903,0.028c1.195,0.118,1.862-0.628,2.532-1.451
		c0.938-1.151,2.423-0.522,3.171-1.341c0.851-0.934-0.017-2.174-0.143-2.593c-0.437-1.473,0.115-2.484,2.937-2.711
		c1.305-0.104,1.981-0.773,2.088-0.902c1.14-1.346-0.105-3.81-0.024-5.235c0.078-1.315,1.482-1.058,2.419-1.705
		c0.895-0.618,1.385-1.362,2.12-2.141c0.077-0.082,0.154-0.157,0.233-0.229c0.718-0.658,1.51-0.954,2.383-1.458
		c0.563-0.324,1.103-0.788,1.174-1.464c0.074-0.703-0.214-1.349,0.466-1.854c0.533-0.395,1.327-0.73,1.524-1.473
		C173.781,82.043,173.415,81.669,172.821,81.204L172.821,81.204z"/>
	<path display="inline" fill="#666666" d="M163.613,70.603c0.717,1.544,2.15,1.233,2.715,0.824c1.443-1.048,1.583-0.291,1.198,0.114
		l0.354-0.06c0.175-0.761-0.198-1.139-1.415-0.528c-0.843,0.423-2.096,0.178-2.896-1.375L163.613,70.603L163.613,70.603z"/>
	<path display="inline" fill="#666666" d="M163.499,74.655c-0.308,1.634,0.669,2.571,2.434,3.067
		c0.667,0.188,2.295,0.419,2.787,0.914c0.764,0.765-0.348,1.521,0.042,2.427c0.249,0.578,0.903,0.68,1.095,1.306
		c0.289,0.955-0.276,1.333-0.621,2.072c-0.325,0.695-0.062,1.242,0.275,1.806c0.322,0.535,0.296,1.776-0.431,2.101
		c0.474-0.828-0.018-1.395-0.381-2.124c-0.473-0.954-0.21-1.55,0.349-2.418c0.383-0.596,0.382-1.159-0.009-1.762
		c-0.292-0.452-0.784-0.559-0.869-1.115c-0.09-0.588,0.291-0.754,0.431-1.238c0.284-1.01-2.465-1.488-3.151-1.642
		c1.49,0.78,0.784,3.061,0.294,3.938c-0.303,0.546-0.468,0.696-0.836,1.224c-0.235,0.339-0.5,0.768-0.699,1.069l-0.542,0.206
		c0.274-0.733,0.816-1.372,1.234-2.042c0.578-0.929,1.013-2.467,0.711-3.554c-0.227-0.818-1.147-1.014-1.693-1.556
		c-0.684-0.677-0.698-2.361-0.207-3.102L163.499,74.655L163.499,74.655z"/>
	<path display="inline" fill="#666666" d="M163.695,86.265c0.221,0.398,0.523,0.744,0.518,1.282
		c-0.011,0.72-0.611,1.302-0.583,2.005c0.022,0.563,0.385,1.174,0.037,1.701c-0.23,0.35-0.619,0.384-0.626,0.868
		c0.261-0.383,0.995-0.3,1.326-0.68c0.565-0.646,0.029-1.125-0.122-1.749c-0.194-0.802,0.402-1.319,0.515-2.073
		c0.114-0.777-0.575-1.115-0.825-1.714L163.695,86.265L163.695,86.265z"/>
	<path display="inline" fill="#666666" d="M166.796,85.557c-0.007-0.064-0.021-0.127-0.042-0.19
		c-0.085-0.248-0.312-0.446-0.491-0.627c-0.462-0.467-0.716-0.919-0.626-1.603c0.069-0.523,0.387-0.979,0.616-1.442
		c0.264-0.535,0.438-1.207,0.267-1.792c-0.112-0.386-0.334-0.705-0.573-1.021c-0.252-0.33-0.575-0.459-0.416-0.899
		c0.332,0.185,0.962,0.695,1.165,1.014c0.48,0.752,0.483,1.663,0.139,2.512c-0.278,0.687-0.738,1.287-0.524,2.07
		c0.15,0.556,0.633,0.875,0.942,1.331c0.202,0.298,0.29,0.607,0.158,0.943c-0.246,0.629-0.666,0.939-0.217,1.58
		c0.472,0.673,0.993,0.717,0.796,1.632c-0.06,0.274-0.076,0.568-0.301,0.771c-0.112,0.102-0.706,0.193-0.709,0.196
		c0.462-0.767,0.601-1.272-0.018-1.915c-0.346-0.357-0.614-0.775-0.55-1.29C166.469,86.356,166.856,86.055,166.796,85.557
		L166.796,85.557z"/>
	<path display="inline" fill-rule="evenodd" clip-rule="evenodd" fill="#666666" d="M105.391,192.021
		c4.159,0,12.291-2.634,12.296-15.524c0.005-9.959-6.294-16.727-13.592-16.727c-7.708,0-13.026,5.125-13.037,14.875
		C91.05,184.664,97.078,192.021,105.391,192.021L105.391,192.021L105.391,192.021z M104.418,157.884
		c10.389,0,18.548,6.558,18.548,17.316c0,10.345-7.694,18.893-18.825,18.893c-12.646,0-18.225-9.843-18.225-18.15
		C85.916,168.46,91.675,157.884,104.418,157.884L104.418,157.884z"/>
	<path display="inline" fill-rule="evenodd" clip-rule="evenodd" fill="#666666" d="M139.585,176.889
		c0,4.895,0.051,9.146,0.093,10.016c0.047,1.158,0.317,2.694,0.686,3.205c0.6,0.881,1.776,1.843,7.226,1.843
		c4.302,0,7.72-1.255,10.441-3.98c2.404-2.353,3.698-6.785,3.698-11.035c0-5.865-2.539-9.654-4.427-11.639
		c-4.353-4.577-9.062-4.91-14.56-4.91c-0.922,0-2.182,0.145-2.555,0.324c-0.412,0.187-0.551,0.429-0.551,0.922
		c-0.051,1.571-0.051,5.976-0.051,9.531V176.889L139.585,176.889L139.585,176.889z M134.579,190.05
		c0.23-1.946,0.23-5.589,0.23-10.022v-8.122c0-7.212,0.037-8.502-0.093-9.978l-0.018-3.279c0.556,0,5.964-0.138,8.737-0.138
		c4.573,0,13.416-0.418,18.901,5.261c2.312,2.403,4.484,6.236,4.484,11.733c0,5.819-2.396,10.294-4.983,13.021
		c-1.984,2.08-6.539,5.312-14.391,5.312c-3.966,0-12.504-0.555-12.969-0.555L134.579,190.05L134.579,190.05z"/>
	<path display="inline" fill-rule="evenodd" clip-rule="evenodd" fill="#666666" d="M178.44,190.036
		c0.231-1.948,0.231-5.591,0.231-10.024v-8.124c0-7.211-0.014-8.499-0.096-9.98l-0.281-3.413c0.646,0.001,1.814,0.135,2.771,0.14
		c0.691,0.006,1.997-0.179,2.55-0.14l-0.08,3.413c-0.089,1.481-0.089,2.77-0.089,9.98v8.124c0,4.434-0.014,8.076,0.232,10.024
		l0.289,3.367c-1.001-0.028-1.561-0.152-2.902-0.138c-1.218,0.015-1.956,0.2-2.783,0.138L178.44,190.036L178.44,190.036z"/>
	<path display="inline" fill-rule="evenodd" clip-rule="evenodd" fill="#666666" d="M69.844,181.634
		c0-3.742-0.008-5.543-0.008-5.543c0.784-0.002,1.516,0.128,2.393,0.14c0.727,0.006,1.683-0.142,2.463-0.14l0.016,3.42
		c-0.094,1.477-0.094,2.866-0.094,4.801v5.174c0,2.078-0.045,2.173-0.598,2.494c-2.962,1.57-7.56,2.066-10.242,2.077
		c-4.391,0.026-11.188-0.763-15.811-5.174c-2.702-2.576-5.496-7.27-5.501-12.927c-0.011-7.394,3.646-12.613,7.758-15.188
		c4.157-2.594,9.31-2.917,12.864-2.917c2.91,0,6.413,0.601,7.287,0.791c0.973,0.227,2.585,0.407,3.746,0.448
		c0.461,0.054,0.553,0.237,0.553,0.421c0,0.649-0.279,0.328-0.328,4.965c-0.006,0.506-0.478,0.305-1.072-0.268
		c0,0-0.614-0.465-1.051-0.86c-1.559-1.401-4.7-3.562-10.661-3.562c-2.909,0-6.037,0.268-9.323,2.824
		c-2.696,2.1-4.657,6.323-4.657,11.73c0,6.508,3.273,11.217,4.889,12.794c3.651,3.554,7.31,4.641,11.635,4.761
		c1.661,0.045,3.73-0.199,4.819-0.789c0.597-0.336,0.924-0.833,0.924-1.621V181.634L69.844,181.634z"/>
	<path display="inline" fill-rule="evenodd" clip-rule="evenodd" fill="#666666" d="M222.588,158.495
		c0.305,0.041,1.448,0.134,2.005,0.134c0.275,0,0.338-0.043,1.682-0.043l-2.19,5.447c-0.517,1.295-2.899,6.799-5.399,12.508
		c-2.937,6.695-4.976,11.737-6.038,14.005c-1.295,2.763-1.583,3.496-2.049,3.501c-0.562,0.01-0.872-0.646-1.754-2.859
		l-11.466-28.306l-1.771-4.39c0.856-0.037,2.382,0.137,2.934,0.137c0.468,0,2.343-0.134,2.906-0.137c0,0,1.193,3.837,1.882,5.631
		l8.479,22.28c2.684-6.189,8.556-20.941,9.573-24.268C221.613,161.446,222.588,158.495,222.588,158.495L222.588,158.495z"/>
	<path display="inline" fill-rule="evenodd" clip-rule="evenodd" fill="#666666" d="M246.639,178.567
		c0.225,0,0.225-0.14,0.186-0.325l-4.288-12.434c-0.182-0.361-0.316-0.361-0.521,0l-4.14,12.434c-0.092,0.231,0,0.325,0.139,0.325
		H246.639L246.639,178.567L246.639,178.567z M251.765,191.435l-4.017-10.517c-0.101-0.187-0.196-0.277-0.425-0.277h-9.93
		c-0.23,0-0.368,0.139-0.458,0.37l-2.707,7.325c-0.415,1.16-1.795,5.081-1.795,5.081s-0.93-0.042-1.443-0.042
		c-0.502,0-1.358,0.091-1.893,0.042l2.001-5.081l10.879-28.618c0.559-1.522,0.953-1.803,1.229-1.803
		c0.277,0,0.704,0.329,1.255,1.766c0.694,1.757,8.016,20.656,10.799,27.691l2.278,6.045c-0.684,0-1.907,0-5.101-0.094
		L251.765,191.435L251.765,191.435z"/>
	<path display="inline" fill-rule="evenodd" clip-rule="evenodd" fill="#666666" d="M186.049,202.458
		c0.191,0.161,0.3,0.437,0.3,0.821c0,0.362-0.119,0.673-0.344,0.951c-0.233,0.271-0.517,0.411-0.852,0.411
		c-0.368,0-0.641-0.084-0.834-0.251c-0.203-0.162-0.299-0.444-0.299-0.812s0.113-0.685,0.35-0.965
		c0.233-0.268,0.503-0.404,0.837-0.404C185.573,202.21,185.851,202.296,186.049,202.458L186.049,202.458z"/>
	<path display="inline" fill-rule="evenodd" clip-rule="evenodd" fill="#666666" d="M113.604,207.57
		c-0.036-0.589-0.107-1.156-0.215-1.739c-0.106-0.585-0.287-1.104-0.541-1.572c-0.257-0.461-0.6-0.83-1.036-1.124
		c-0.423-0.292-0.98-0.436-1.652-0.436c-0.747,0-1.451,0.174-2.118,0.521c-0.657,0.352-1.258,0.808-1.803,1.393
		c-0.549,0.573-1.032,1.237-1.451,1.982c-0.422,0.752-0.778,1.514-1.069,2.314c-0.285,0.788-0.509,1.572-0.667,2.354
		c-0.165,0.772-0.237,1.494-0.237,2.132c0,0.633,0.069,1.222,0.21,1.773c0.139,0.549,0.358,1.04,0.659,1.472
		c0.294,0.411,0.689,0.742,1.179,0.983c0.484,0.247,1.081,0.366,1.776,0.366c0.731,0,1.403-0.143,2.034-0.426
		c0.627-0.279,1.212-0.643,1.752-1.094c0.538-0.451,1.033-0.945,1.475-1.505c0.447-0.556,0.858-1.111,1.22-1.672l0.321,0.219
		c-0.344,0.682-0.803,1.354-1.365,2.031c-0.565,0.665-1.186,1.271-1.873,1.806c-0.69,0.541-1.425,0.982-2.212,1.315
		c-0.789,0.343-1.574,0.513-2.369,0.513c-0.782,0-1.488-0.13-2.123-0.396c-0.638-0.268-1.186-0.637-1.63-1.119
		c-0.447-0.478-0.784-1.045-1.025-1.7c-0.238-0.65-0.356-1.363-0.356-2.121c0-1.472,0.292-2.917,0.892-4.334
		c0.592-1.416,1.408-2.674,2.431-3.779c1.023-1.109,2.22-1.995,3.583-2.673c1.361-0.662,2.818-1,4.357-1
		c0.529,0,1.068,0.066,1.611,0.199c0.547,0.133,1.049,0.31,1.516,0.542c-0.198,0.799-0.38,1.589-0.55,2.384
		c-0.161,0.796-0.323,1.595-0.472,2.389H113.604L113.604,207.57z"/>
	<path display="inline" fill-rule="evenodd" clip-rule="evenodd" fill="#666666" d="M131.64,210.253
		c-0.334,0.269-0.647,0.623-0.925,1.074c-0.282,0.428-0.531,0.921-0.74,1.465c-0.226,0.533-0.4,1.068-0.561,1.602
		c-0.158,0.534-0.28,1.034-0.361,1.479c-0.077,0.458-0.127,0.828-0.127,1.117c0,0.938,0.467,1.405,1.388,1.405
		c0.382,0,0.742-0.126,1.081-0.401c0.335-0.277,0.646-0.638,0.928-1.071c0.281-0.442,0.526-0.933,0.739-1.472
		c0.215-0.54,0.406-1.07,0.562-1.607c0.154-0.525,0.274-1.021,0.363-1.476c0.074-0.459,0.116-0.831,0.116-1.113
		c0-0.938-0.462-1.416-1.388-1.416C132.338,209.839,131.979,209.976,131.64,210.253L131.64,210.253L131.64,210.253z M135.76,213.046
		c-0.191,0.595-0.46,1.191-0.796,1.759c-0.342,0.571-0.738,1.105-1.181,1.614c-0.442,0.508-0.925,0.945-1.439,1.336
		c-0.511,0.382-1.042,0.68-1.594,0.902c-0.55,0.226-1.097,0.34-1.627,0.34c-0.43,0-0.779-0.063-1.049-0.176
		c-0.272-0.117-0.495-0.274-0.659-0.478c-0.173-0.191-0.278-0.436-0.339-0.719c-0.057-0.279-0.085-0.589-0.085-0.92
		c0-0.55,0.112-1.115,0.335-1.721c0.227-0.595,0.521-1.178,0.896-1.751c0.371-0.569,0.792-1.113,1.275-1.615
		c0.481-0.509,0.976-0.957,1.488-1.331c0.519-0.384,1.026-0.691,1.537-0.918c0.514-0.217,0.975-0.327,1.391-0.327
		c0.425,0,0.779,0.052,1.051,0.166c0.275,0.118,0.495,0.278,0.655,0.475c0.168,0.208,0.279,0.445,0.339,0.727
		c0.06,0.279,0.088,0.582,0.088,0.92C136.047,211.872,135.953,212.449,135.76,213.046L135.76,213.046z"/>
	<path display="inline" fill-rule="evenodd" clip-rule="evenodd" fill="#666666" d="M139.252,218.969
		c0.631-0.002,1.247-0.133,1.855-0.406c0,0,0.585-0.318,0.958-0.574c0.368-0.25,1.274-0.996,1.28-1.065
		c0.005-0.101-0.037-0.151-0.135-0.156c-0.019-0.003-1.369,1.109-2.21,1.109l-0.261,0.006c-0.624,0-1.082-0.174-1.348-0.531
		l-0.092-0.154c-0.186-0.305-0.276-0.702-0.276-1.176c0-0.249,0.036-0.571,0.11-0.977c0.082-0.405,0.177-0.837,0.309-1.292
		c0.129-0.457,0.294-0.913,0.486-1.377c0.188-0.466,0.391-0.883,0.63-1.252c0.234-0.381,0.478-0.69,0.758-0.922
		c0.269-0.239,0.554-0.362,0.848-0.362c0.285,0,0.538,0.062,0.763,0.181c0.217,0.117,0.372,0.319,0.454,0.592
		c-0.101,0.087-0.183,0.182-0.265,0.295c-0.069,0.1-0.106,0.224-0.106,0.358c0,0.283,0.08,0.49,0.252,0.637
		c0.165,0.141,0.378,0.214,0.643,0.214c0.433,0,0.734-0.155,0.896-0.477c0.163-0.311,0.253-0.659,0.253-1.027
		c0-0.427-0.133-0.801-0.399-1.109c-0.265-0.315-0.619-0.46-1.072-0.46c-0.742,0-1.507,0.236-2.293,0.722
		c-0.788,0.473-1.501,1.076-2.151,1.809c-0.638,0.724-1.176,1.507-1.592,2.351c-0.411,0.833-0.618,1.617-0.618,2.342
		c0,0.745,0.219,1.377,0.657,1.917c0.333,0.392,0.765,0.64,1.296,0.736C138.882,218.918,139.095,218.97,139.252,218.969
		L139.252,218.969z"/>
	<path display="inline" fill-rule="evenodd" clip-rule="evenodd" fill="#666666" d="M149.819,210.253
		c-0.338,0.269-0.634,0.623-0.925,1.074c-0.28,0.428-0.523,0.921-0.748,1.465c-0.206,0.533-0.392,1.068-0.553,1.602
		c-0.154,0.534-0.27,1.034-0.357,1.479c-0.079,0.458-0.127,0.828-0.127,1.117c0,0.938,0.469,1.405,1.396,1.405
		c0.376,0,0.732-0.126,1.068-0.401c0.339-0.277,0.646-0.638,0.93-1.071c0.279-0.442,0.527-0.933,0.747-1.472
		c0.212-0.54,0.402-1.07,0.556-1.607c0.16-0.525,0.276-1.021,0.355-1.476c0.08-0.459,0.121-0.831,0.121-1.113
		c0-0.938-0.452-1.416-1.385-1.416C150.521,209.839,150.161,209.976,149.819,210.253L149.819,210.253L149.819,210.253z
		 M153.946,213.046c-0.191,0.595-0.464,1.191-0.8,1.759c-0.348,0.571-0.733,1.105-1.174,1.614c-0.447,0.508-0.932,0.945-1.446,1.336
		c-0.514,0.382-1.045,0.68-1.598,0.902c-0.55,0.226-1.093,0.34-1.624,0.34c-0.433,0-0.783-0.063-1.053-0.176
		c-0.269-0.117-0.497-0.274-0.656-0.478c-0.164-0.191-0.275-0.436-0.339-0.719c-0.058-0.279-0.086-0.589-0.086-0.92
		c0-0.55,0.119-1.115,0.336-1.721c0.222-0.595,0.525-1.178,0.896-1.751c0.367-0.569,0.794-1.113,1.277-1.615
		c0.472-0.509,0.978-0.957,1.492-1.331c0.5-0.384,1.017-0.691,1.527-0.918c0.517-0.217,0.982-0.327,1.385-0.327
		c0.44,0,0.784,0.052,1.062,0.166c0.271,0.118,0.495,0.278,0.658,0.475c0.165,0.208,0.279,0.445,0.334,0.727
		c0.064,0.279,0.088,0.582,0.088,0.92C154.227,211.872,154.134,212.449,153.946,213.046L153.946,213.046z"/>
	<path display="inline" fill-rule="evenodd" clip-rule="evenodd" fill="#666666" d="M196.422,209.345h1.841l-1.361,3.611
		l0.043,0.047c0.198-0.353,0.434-0.75,0.704-1.198c0.259-0.44,0.558-0.876,0.896-1.294c0.352-0.407,0.711-0.747,1.107-1.035
		c0.399-0.276,0.829-0.412,1.292-0.412c0.475,0,0.848,0.132,1.143,0.402c0.286,0.275,0.438,0.654,0.438,1.121
		c0,0.17-0.028,0.35-0.065,0.547c-0.046,0.203-0.12,0.378-0.215,0.534c-0.101,0.152-0.226,0.284-0.371,0.39
		c-0.15,0.107-0.333,0.162-0.553,0.162c-0.286,0-0.52-0.082-0.684-0.246c-0.169-0.166-0.258-0.379-0.258-0.658
		c0-0.151,0.033-0.294,0.089-0.425c0.05-0.131,0.116-0.259,0.196-0.393c-0.106-0.114-0.244-0.181-0.411-0.205
		c-0.172-0.019-0.325-0.04-0.475-0.04c-0.352,0-0.688,0.171-1.046,0.507c-0.347,0.34-0.686,0.772-1.004,1.3
		c-0.325,0.536-0.63,1.125-0.91,1.78c-0.277,0.648-0.541,1.291-0.776,1.912c-0.243,0.638-0.444,1.215-0.614,1.727
		c-0.165,0.53-0.28,0.924-0.363,1.203h-1.694L196.422,209.345L196.422,209.345z"/>
	<path display="inline" fill-rule="evenodd" clip-rule="evenodd" fill="#666666" d="M126.063,216.749
		c-0.019,0-1.13,1.265-2.204,1.239c-0.547-0.012-0.693-0.289-0.693-0.872c0-0.207,0.096-0.633,0.289-1.26
		c0.187-0.625,0.978-3.204,1.015-3.334c0.162-0.517,0.44-2.06-0.245-2.819c-0.258-0.291-0.75-0.63-1.375-0.63
		c-0.561,0-1.1,0.146-1.616,0.444c-0.512,0.298-0.987,0.671-1.439,1.114c-0.449,0.449-0.849,0.926-1.217,1.421
		c-0.361,0.51-0.679,0.98-0.939,1.404l-0.05-0.051c0.76-2.032,3.896-10.428,4.642-12.393h-1.911l-6.232,17.668h1.689
		c0.115-0.49,0.83-2.479,1.25-3.478c0.265-0.634,0.616-1.22,0.97-1.813c0.356-0.58,0.734-1.103,1.14-1.557
		c0.406-0.451,0.836-0.817,1.291-1.104c0.958-0.584,1.872-0.497,2.133-0.112c0.136,0.21,0.246,0.481,0.207,0.812
		c-0.183,1.631-1,3.861-1.375,5.134c-0.23,0.759-0.139,1.706,0.273,2.069c0.303,0.27,0.697,0.364,1.129,0.364
		c0.344,0,0.603-0.101,1.038-0.293c0.428-0.194,0.705-0.371,1.077-0.651c0.349-0.269,1.299-1.085,1.299-1.155
		C126.212,216.798,126.16,216.749,126.063,216.749L126.063,216.749z"/>
	<path display="inline" fill-rule="evenodd" clip-rule="evenodd" fill="#666666" d="M188.244,212.574
		c0.166-0.393,0.37-0.778,0.62-1.145c0.249-0.374,0.523-0.701,0.817-0.979c0.3-0.263,0.602-0.401,0.921-0.401
		c0.229,0,0.425,0.032,0.575,0.11c0.146,0.073,0.218,0.227,0.218,0.456c0,0.351-0.122,0.692-0.381,1.021
		c-0.263,0.33-0.572,0.626-0.935,0.894c-0.361,0.266-0.75,0.495-1.154,0.668c-0.398,0.185-0.758,0.298-1.052,0.347
		C187.952,213.3,188.074,212.977,188.244,212.574L188.244,212.574L188.244,212.574z M187.701,214.047
		c0.422-0.101,0.942-0.251,1.568-0.454c0.632-0.196,1.231-0.449,1.819-0.764s1.091-0.683,1.512-1.109
		c0.419-0.434,0.631-0.921,0.631-1.467c0-0.794-0.396-1.189-1.187-1.189c-0.447,0-0.922,0.113-1.428,0.347
		c-0.509,0.232-1.01,0.552-1.518,0.957c-0.505,0.4-0.987,0.863-1.454,1.379c-0.458,0.521-0.874,1.067-1.225,1.637
		c-0.355,0.574-0.636,1.153-0.854,1.748c-0.216,0.592-0.323,1.158-0.323,1.686c0,0.686,0.196,1.229,0.614,1.594
		c0.395,0.374,0.95,0.559,1.643,0.559c0.638,0,1.246-0.16,1.86-0.436c0,0,0.586-0.289,0.956-0.546
		c0.368-0.25,1.271-0.995,1.278-1.064c0.004-0.101-0.041-0.151-0.139-0.159c-0.016,0-1.366,1.085-2.203,1.085l-0.261,0.007
		c-0.627,0-1.076-0.147-1.353-0.505c-0.276-0.351-0.402-0.817-0.402-1.402c0-0.258,0.043-0.579,0.126-0.966
		C187.46,214.604,187.569,214.293,187.701,214.047L187.701,214.047z"/>
	<path display="inline" fill-rule="evenodd" clip-rule="evenodd" fill="#666666" d="M172.578,216.563
		c-0.26,0.748-0.217,1.706,0.2,2.069c0.293,0.27,0.692,0.364,1.127,0.364c0.341,0,0.602-0.101,1.037-0.293
		c0.427-0.194,0.699-0.371,1.073-0.651c0.352-0.269,1.3-1.085,1.3-1.155c0-0.1-0.053-0.148-0.151-0.148
		c-0.016,0-1.128,1.265-2.2,1.239c-0.548-0.012-0.694-0.289-0.694-0.872c0-0.207,0.096-0.633,0.29-1.26l0.675-2.088
		c0.251-0.749,0.501-1.486,0.752-2.196c0.246-0.716,0.427-1.255,0.522-1.643h3.201l0.156-0.594h-3.162l1.377-3.999l-1.925,0.473
		c-0.264,0.793-0.541,1.632-0.83,2.511c-0.288,0.871-0.579,1.742-0.87,2.592c-0.289,0.844-0.559,1.671-0.818,2.452
		c-0.257,0.787-0.487,1.479-0.699,2.085L172.578,216.563L172.578,216.563z"/>
	<path display="inline" fill-rule="evenodd" clip-rule="evenodd" fill="#666666" d="M167.812,213.815
		c-0.148,0.296-0.241,0.515-0.285,0.638c-0.133,0.303-0.324,0.651-0.573,1.034c-0.246,0.386-0.535,0.754-0.855,1.092
		c-0.322,0.34-0.664,0.622-1.035,0.854c-0.353,0.23-0.727,0.346-1.106,0.346c-0.296,0-0.556-0.087-0.771-0.283
		c-0.212-0.191-0.32-0.447-0.32-0.753c0-0.498,0.081-1.016,0.248-1.532c0.165-0.522,0.379-1.035,0.63-1.548
		c0.255-0.514,0.549-0.988,0.843-1.464c0.291-0.469,0.427-0.705,0.697-1.116c0.134-0.167,0.254-0.314,0.347-0.422
		c0.116-0.123,0.222-0.243,0.323-0.315c0.095-0.069,0.354-0.253,0.519-0.301c0.153-0.059,0.325-0.083,0.495-0.1
		c0.139-0.011,0.527,0.021,0.726,0.085c0.204,0.062,0.379,0.121,0.585,0.311c0.159,0.137,0.262,0.275,0.353,0.454
		c0.082,0.181,0.105,0.441,0.105,0.645c0,0.077-0.048,0.264-0.164,0.535c-0.095,0.287-0.222,0.588-0.356,0.913
		C168.084,213.204,167.946,213.514,167.812,213.815L167.812,213.815L167.812,213.815z M171.412,216.749
		c-0.016,0-1.133,1.265-2.204,1.239c-0.541-0.012-0.688-0.289-0.688-0.872c0-0.207,0.094-0.633,0.285-1.26l0.204-0.608
		c0.182-0.525,0.378-1.08,0.593-1.689c0.221-0.597,0.436-1.19,0.646-1.776c0.211-0.567,0.413-1.094,0.596-1.556
		c0.183-0.458,0.336-0.801,0.453-1.019l-1.64,0.006c-0.088,0.245-0.21,0.505-0.352,0.785c-0.083-0.267-0.229-0.483-0.432-0.669
		c-0.202-0.178-0.45-0.267-0.733-0.267c-0.329,0-0.736,0.108-1.227,0.335c-0.485,0.221-0.995,0.525-1.528,0.905
		c-0.521,0.379-1.059,0.823-1.6,1.335c-0.534,0.516-1.017,1.062-1.439,1.649c-0.414,0.582-0.762,1.192-1.025,1.82
		c-0.262,0.619-0.393,1.241-0.393,1.861c0,0.223,0.024,0.461,0.072,0.704c0.048,0.234,0.135,0.454,0.251,0.646
		c0.112,0.18,0.266,0.337,0.456,0.464c0.187,0.128,0.432,0.185,0.707,0.185c0.459,0,0.951-0.133,1.45-0.394
		c0.503-0.258,0.996-0.599,1.452-0.995c0.466-0.399,0.9-0.822,1.277-1.28c0.393-0.457,0.705-0.861,0.937-1.227l0.045,0.048
		c-0.061,0.147-0.162,0.351-0.296,0.602c-0.131,0.261-0.233,0.487-0.355,0.841c-0.283,0.815-0.186,1.706,0.233,2.069
		c0.301,0.27,0.556,0.364,0.987,0.364c0.349,0,0.607-0.101,1.034-0.293c0.433-0.194,0.71-0.371,1.076-0.651
		c0.354-0.269,1.298-1.085,1.298-1.155C171.554,216.798,171.511,216.749,171.412,216.749L171.412,216.749z"/>
	<path display="inline" fill-rule="evenodd" clip-rule="evenodd" fill="#666666" d="M179.564,216.563
		c-0.223,0.759-0.136,1.706,0.278,2.069c0.301,0.27,0.698,0.364,1.126,0.364c0.349,0,0.612-0.101,1.039-0.293
		c0.425-0.194,0.705-0.371,1.078-0.651c0.347-0.269,1.298-1.085,1.298-1.155c0-0.1-0.049-0.148-0.146-0.148
		c-0.017,0-1.131,1.265-2.204,1.239c-0.548-0.012-0.69-0.289-0.69-0.872c0-0.207,0.092-0.633,0.285-1.26l0.141-0.461
		c0.238-0.707,0.511-1.449,0.829-2.235c0.32-0.779,0.655-1.534,0.94-2.295c0.308-0.788,0.503-1.303,0.68-1.802H182.3
		c-0.409,1.229-0.808,2.328-1.171,3.32c-0.362,0.988-0.987,2.613-1.255,3.336L179.564,216.563L179.564,216.563z"/>
	<path display="inline" fill-rule="evenodd" clip-rule="evenodd" fill="#666666" d="M155.463,215.72l-0.232,0.843
		c-0.23,0.758-0.18,1.707,0.232,2.07c0.298,0.27,0.641,0.364,1.075,0.364c0.351,0,0.607-0.101,1.033-0.293
		c0.429-0.194,0.707-0.371,1.077-0.651c0.355-0.269,1.307-1.085,1.307-1.155c0-0.1-0.05-0.148-0.151-0.148
		c-0.016,0-1.131,1.265-2.205,1.239c-0.54-0.012-0.721-0.226-0.721-0.808c0-0.209,0.129-0.697,0.32-1.324l0.138-0.461l0.289-0.997
		c0.222-0.688,0.481-1.457,0.775-2.301c0.301-0.848,0.611-1.724,0.924-2.628c0.315-0.896,0.636-1.791,0.94-2.682
		c0.315-0.883,0.612-1.708,0.878-2.481c0.274-0.77,0.517-1.441,0.717-2.019c0.203-0.584,0.349-1.012,0.441-1.289h-1.861
		c-0.416,1.323-0.832,2.637-1.261,3.947c-0.437,1.308-0.853,2.553-1.261,3.744c-0.399,1.195-0.783,2.301-1.151,3.338
		c-0.363,1.032-0.684,1.91-0.947,2.687L155.463,215.72L155.463,215.72z"/>
</g>
<g id="Layer_5" display="none">
	<g display="inline">
		<g>
			<path fill="#666666" d="M187.723,82.171c14.188,0,25.688,59.808,25.688,133.584h20.554c0-79.452-20.705-143.859-46.242-143.859
				c-14.527,0-27.488,19.356-35.965,49.626c-8.475-30.27-21.441-49.626-35.968-49.626c-25.536,0-46.244,64.407-46.244,143.859
				h20.556c0-73.776,11.504-133.584,25.688-133.584c14.188,0,25.693,55.209,25.693,123.309h20.55
				C162.032,137.38,173.536,82.171,187.723,82.171z"/>
		</g>
		<g>
			<path fill="#666666" d="M244.254,205.48c2.785,0,5.124,2.211,5.124,5.114c0,2.949-2.339,5.161-5.124,5.161
				c-2.8,0-5.155-2.212-5.155-5.161C239.099,207.691,241.454,205.48,244.254,205.48z M244.254,215.002
				c2.361,0,4.194-1.895,4.194-4.407c0-2.463-1.833-4.358-4.194-4.358c-2.391,0-4.221,1.896-4.221,4.358
				C240.033,213.107,241.863,215.002,244.254,215.002z M242.257,207.612h2.314c1.415,0,2.083,0.562,2.083,1.715
				c0,1.088-0.679,1.54-1.563,1.635l1.704,2.653h-1.001l-1.623-2.582h-0.982v2.582h-0.932V207.612z M243.188,210.279h0.97
				c0.817,0,1.57-0.04,1.57-0.992c0-0.799-0.684-0.92-1.312-0.92h-1.229V210.279z"/>
		</g>
	</g>
</g>
</svg>
